<?xml version="1.0" encoding="utf-8"?>
<!-- Generator: Adobe Illustrator 19.1.0, SVG Export Plug-In . SVG Version: 6.00 Build 0)  -->
<svg version="1.1" id="Layer_1" xmlns="http://www.w3.org/2000/svg" xmlns:xlink="http://www.w3.org/1999/xlink" x="0px" y="0px"
	 viewBox="0 0 294.3 45.9" style="enable-background:new 0 0 294.3 45.9;" xml:space="preserve">
<style type="text/css">
	.st0{fill:none;}
	.st1{fill:#FBB040;}
	.st2{fill:#231F20;}
	.st3{fill:#58595B;}
	.st4{fill:#FFFFFF;}
</style>
<g>
	<polygon class="st0" points="23.8,37 23.8,37 23.8,37 	"/>
	<polygon class="st0" points="28.4,9 20,9 24.2,16.1 	"/>
	<polygon class="st0" points="17.2,27.9 17.2,27.8 17.2,27.8 	"/>
	<polygon class="st0" points="29.9,26.9 29.9,26.9 35.9,37 35.9,37 	"/>
	<polygon class="st0" points="19.2,9 19.2,9 23.8,16.7 23.8,16.7 	"/>
	<polygon class="st1" points="22.3,19.3 23.8,16.7 19.2,9 10.5,9 9.6,10.5 3.4,0 1.8,0 17.8,26.9 22.3,19.3 	"/>
	<polygon class="st1" points="23.8,37 23.8,37 35.9,37 29.9,26.9 	"/>
	<polygon class="st2" points="35.9,37 40.7,45.2 35.9,37 	"/>
	<polygon class="st3" points="38.9,0 15.8,0 15.2,1 20,9 28.4,9 24.2,16.1 26.1,19.2 32.2,9 35.6,3.3 38.9,8.9 39.7,10.3 45.9,0 	
		"/>
	<polygon class="st4" points="14.9,1.6 10.5,9 19.2,9 19.2,9 	"/>
	<polygon class="st3" points="40.7,45.2 35.9,37 23.8,37 23.8,37 23.8,37 22.9,35.3 22.3,36.3 17.2,27.8 17.2,27.9 16.9,28.4 
		11.8,37 6.5,45.9 22.3,45.9 19.4,41.1 21.9,37 22.3,36.3 22.7,37 25.1,41.1 22.3,45.9 41.2,45.9 	"/>
	<polygon class="st4" points="17.2,27.8 17.2,27.8 17.8,26.9 17.8,26.9 17.2,27.8 17.2,27.8 	"/>
	<polygon class="st4" points="22.3,19.3 22.3,19.3 17.8,26.9 17.8,26.9 	"/>
	<polyline class="st4" points="17.2,27.8 22.3,36.3 22.9,35.3 23.8,37 29.9,26.9 23.8,16.7 22.3,19.3 17.8,26.9 	"/>
	<polygon class="st3" points="17.2,27.8 17.2,27.8 17.2,27.8 0.7,0 0,0 16.9,28.4 17.2,27.9 	"/>
	<polygon class="st3" points="17.2,27.9 16.9,28.4 16.9,28.4 	"/>
	<polygon class="st3" points="17.2,27.8 17.2,27.8 17.2,27.8 17.2,27.8 	"/>
</g>
<g>
	<g>
		<polygon class="st1" points="77.2,22.4 81.1,22.4 84.8,16.7 73.7,16.7 73.7,19.5 79,19.5 		"/>
		<polygon class="st1" points="80.9,22.8 76.9,22.8 74.9,26 73.3,28.4 72.3,29.9 84,29.9 84,27 78.1,27 		"/>
	</g>
	<path class="st4" d="M40.5,23.6v-2.8h7.1c0,0.1,0,0.2,0,0.3c0,0.1,0,0.3,0,0.5c0,2.3-0.6,4-1.8,5.3c-1.2,1.3-2.9,1.9-5.1,1.9
		c-1.1,0-2-0.2-2.9-0.5c-0.8-0.3-1.6-0.8-2.2-1.5c-0.6-0.6-1.1-1.4-1.5-2.2c-0.3-0.9-0.5-1.8-0.5-2.7c0-1,0.2-1.9,0.5-2.7
		c0.3-0.8,0.8-1.6,1.5-2.2c0.7-0.6,1.4-1.1,2.3-1.5c0.9-0.3,1.8-0.5,2.8-0.5c1.3,0,2.4,0.3,3.4,0.8c1,0.5,1.8,1.3,2.5,2.3l-3.1,1.5
		c-0.4-0.5-0.8-0.9-1.3-1.1c-0.5-0.2-1-0.4-1.6-0.4c-1.1,0-1.9,0.4-2.5,1.1c-0.6,0.7-0.9,1.7-0.9,2.9c0,1.3,0.3,2.2,0.9,3
		c0.6,0.7,1.5,1.1,2.5,1.1c0.9,0,1.7-0.2,2.3-0.7c0.6-0.4,1-1,1.1-1.8H40.5z"/>
	<path class="st4" d="M48.3,28.4V16.6h3.3v11.8H48.3z"/>
	<path class="st4" d="M58.3,24.1v-2.5h6.3c0,0.1,0,0.2,0,0.3c0,0.1,0,0.2,0,0.4c0,2-0.5,3.6-1.6,4.7c-1.1,1.1-2.6,1.7-4.5,1.7
		c-1,0-1.8-0.1-2.6-0.4c-0.7-0.3-1.4-0.7-2-1.3c-0.6-0.6-1-1.2-1.3-2c-0.3-0.8-0.5-1.6-0.5-2.4c0-0.9,0.2-1.7,0.5-2.4
		c0.3-0.7,0.8-1.4,1.3-2c0.6-0.6,1.3-1,2-1.3c0.8-0.3,1.6-0.4,2.5-0.4c1.2,0,2.2,0.2,3.1,0.7c0.9,0.5,1.6,1.1,2.2,2l-2.8,1.3
		c-0.3-0.5-0.7-0.8-1.1-1c-0.4-0.2-0.9-0.3-1.4-0.3c-1,0-1.7,0.3-2.3,1c-0.6,0.6-0.8,1.5-0.8,2.6c0,1.1,0.3,2,0.8,2.7
		c0.6,0.6,1.3,1,2.3,1c0.8,0,1.5-0.2,2-0.6c0.5-0.4,0.9-0.9,1-1.6H58.3z"/>
	<path class="st0" d="M69.9,19.6c-0.1-0.3-0.1-0.6-0.3-1c-0.1,0.3-0.1,0.6-0.2,0.8c-0.1,0.3-0.1,0.5-0.2,0.8L68,24h3.2L70,20.1
		C70,20,70,19.8,69.9,19.6z"/>
	<path class="st4" d="M71.6,16.6h-4l-4.1,11.8h3.2l0.6-2.1h4.6l0.6,2.1h0.7l1.6-2.5L71.6,16.6z M68,24l1.2-3.9
		c0.1-0.2,0.1-0.5,0.2-0.8c0.1-0.3,0.1-0.5,0.2-0.8c0.1,0.4,0.2,0.8,0.3,1C70,19.8,70,20,70,20.1l1.2,3.9H68z"/>
	<polygon class="st3" points="74.9,26 73.3,28.4 75.7,28.4 	"/>
	<g>
		<path class="st1" d="M99.9,22.4c0-0.2,0-0.5,0-0.8c0-0.4-0.1-0.8-0.1-1.3c0.2,0.5,0.4,0.9,0.6,1.3c0.2,0.4,0.3,0.6,0.4,0.7l0,0
			h3.3l-4.2-5.7h-3.1v5.7H99.9z"/>
		<rect x="105.3" y="16.6" class="st1" width="3.1" height="5.7"/>
		<rect x="96.8" y="22.8" class="st1" width="3.1" height="5.7"/>
		<path class="st1" d="M105.3,22.8c0,0.2,0,0.5,0,0.7c0,0.4,0.1,0.8,0.1,1.3c-0.2-0.5-0.5-1-0.7-1.3c-0.2-0.3-0.3-0.6-0.4-0.7h-3.3
			l4.2,5.7h3.1v-5.7H105.3z"/>
	</g>
	<g>
		<polygon class="st1" points="112.8,23.8 116.6,23.8 116.6,22.8 109.6,22.8 109.6,28.4 116.9,28.4 116.9,25.8 112.8,25.8 		"/>
		<polygon class="st1" points="109.6,16.6 109.6,22.4 116.6,22.4 116.6,21.3 112.8,21.3 112.8,19.2 116.9,19.2 116.9,16.6 		"/>
	</g>
	<g>
		<path class="st1" d="M93,22.8c0,0.9-0.3,1.7-0.9,2.3c-0.5,0.6-1.2,0.9-2,1v2.7c0.8,0,1.5-0.2,2.2-0.5c0.8-0.3,1.5-0.8,2.1-1.3
			c0.6-0.6,1.1-1.3,1.4-2c0.3-0.7,0.4-1.4,0.5-2.2H93z"/>
		<path class="st1" d="M92.1,20.1c0.6,0.6,0.8,1.4,0.9,2.3h3.2c0-0.8-0.2-1.5-0.5-2.2c-0.3-0.7-0.8-1.4-1.4-2
			c-0.6-0.6-1.3-1-2.1-1.3c-0.7-0.3-1.5-0.4-2.2-0.5v2.7C90.9,19.1,91.6,19.5,92.1,20.1z"/>
	</g>
	<g>
		<polygon class="st1" points="77.2,22.4 81.1,22.4 84.8,16.7 73.7,16.7 73.7,19.5 79,19.5 		"/>
		<polygon class="st1" points="80.9,22.8 76.9,22.8 74.9,26 75.7,28.4 73.3,28.4 72.3,29.9 84,29.9 84,27 78.1,27 		"/>
	</g>
	<g>
		<path class="st1" d="M87.7,25.1c-0.5-0.6-0.8-1.4-0.9-2.3h-3.2c0,0.8,0.2,1.5,0.5,2.2c0.3,0.7,0.8,1.4,1.4,2c0.6,0.6,1.3,1,2,1.3
			c0.7,0.3,1.4,0.4,2.2,0.5V26C88.9,26,88.2,25.7,87.7,25.1z"/>
		<path class="st1" d="M87.5,16.8c-0.8,0.3-1.5,0.8-2,1.3c-0.6,0.6-1.1,1.3-1.4,2c-0.3,0.7-0.4,1.4-0.5,2.2h3.2
			c0-0.9,0.3-1.7,0.9-2.3c0.5-0.6,1.2-0.9,2-1v-2.7C88.9,16.4,88.2,16.5,87.5,16.8z"/>
	</g>
	<g>
		<path class="st1" d="M117.9,18.1V17h-0.3v-0.3h1.1V17h-0.3v1.1H117.9z"/>
		<path class="st1" d="M120.5,18.1h-0.4l-0.1-0.6c0,0,0-0.1,0-0.1c0-0.1,0-0.1,0-0.2c0,0.1,0,0.1-0.1,0.2c0,0,0,0,0,0l-0.2,0.7h-0.3
			l-0.2-0.7c0,0,0,0,0,0c0-0.1,0-0.2-0.1-0.2c0,0.1,0,0.1,0,0.2c0,0.1,0,0.1,0,0.2l-0.1,0.6h-0.4l0.2-1.5h0.4l0.2,0.8c0,0,0,0,0,0
			c0,0.1,0,0.1,0,0.2c0,0,0-0.1,0-0.1c0,0,0-0.1,0-0.1l0.2-0.8h0.4L120.5,18.1z"/>
	</g>
</g>
<g>
	<path class="st4" d="M128.9,21.9h5.4V22c0,1.3-0.5,3.3-1.7,4.5c-1.2,1.2-2.6,1.5-3.9,1.5c-1.3,0-2.7-0.2-4-1.5
		c-0.6-0.6-1.6-2-1.6-4.1c0-1.8,0.6-3.2,1.6-4.1c1.3-1.4,3-1.6,4.2-1.6c0.9,0,2,0.1,3,0.8c0.7,0.5,1.4,1.2,1.7,1.9l-2.3,1.2
		c-0.2-0.4-0.5-0.9-1-1.2c-0.5-0.4-1-0.5-1.7-0.5c-1,0-1.7,0.3-2.2,0.9c-0.6,0.6-0.9,1.6-0.9,2.6c0,1.2,0.5,2,0.9,2.5
		c0.6,0.6,1.4,0.8,2.2,0.8c1.1,0,1.6-0.4,1.9-0.6c0.1-0.1,0.6-0.5,0.8-1.3h-2.6V21.9z"/>
	<path class="st4" d="M140.9,25.8h-4.1l-0.8,2h-2.6l4.4-10.8h2.3l4.3,10.8h-2.6L140.9,25.8z M140.2,23.9l-1.3-3.6l-1.3,3.6H140.2z"
		/>
	<path class="st4" d="M143.8,27.8l1.7-10.8h2.1l2.7,6.5L153,17h2.1l1.7,10.8h-2.5l-0.9-6.4l-2.7,6.4h-0.9l-2.7-6.4l-0.9,6.4H143.8z"
		/>
	<path class="st4" d="M160,17v10.8h-2.5V17H160z"/>
	<path class="st4" d="M161.1,27.8V17h2.2l5.9,7v-7h2.5v10.8h-2.2l-5.9-7v7H161.1z"/>
	<path class="st4" d="M178,21.9h5.4V22c0,1.3-0.5,3.3-1.7,4.5c-1.2,1.2-2.6,1.5-3.9,1.5c-1.3,0-2.7-0.2-4-1.5
		c-0.6-0.6-1.6-2-1.6-4.1c0-1.8,0.6-3.2,1.6-4.1c1.3-1.4,3-1.6,4.2-1.6c0.9,0,2,0.1,3,0.8c0.7,0.5,1.4,1.2,1.7,1.9l-2.3,1.2
		c-0.2-0.4-0.5-0.9-1-1.2c-0.5-0.4-1-0.5-1.7-0.5c-1,0-1.7,0.3-2.2,0.9c-0.6,0.6-0.9,1.6-0.9,2.6c0,1.2,0.5,2,0.9,2.5
		c0.6,0.6,1.4,0.8,2.2,0.8c1.1,0,1.6-0.4,1.9-0.6c0.1-0.1,0.6-0.5,0.8-1.3H178V21.9z"/>
</g>
<g>
	<path class="st4" d="M195.3,27.5c-1,0.5-1.7,0.6-2.4,0.6c-2,0-3.3-0.7-4.2-1.6c-1-0.9-1.7-2.4-1.7-4.1c0-1.7,0.7-3.1,1.7-4.1
		c1-0.9,2.3-1.6,4-1.6c0.7,0,1.5,0.1,2.6,0.6v2.9c-0.6-0.6-1.4-1.1-2.5-1.1c-0.9,0-1.6,0.3-2.2,0.8c-0.6,0.6-1,1.5-1,2.5
		c0,1.1,0.5,1.9,0.9,2.4c0.2,0.2,1,0.9,2.3,0.9c0.6,0,1.5-0.2,2.5-1.1V27.5z"/>
	<path class="st4" d="M198.6,21.1h4.3V17h2.5v10.8h-2.5v-4.6h-4.3v4.6h-2.5V17h2.5V21.1z"/>
	<path class="st4" d="M212.9,25.8h-4.1l-0.8,2h-2.6l4.4-10.8h2.3l4.3,10.8h-2.6L212.9,25.8z M212.2,23.9l-1.3-3.6l-1.3,3.6H212.2z"
		/>
	<path class="st4" d="M215.8,27.8l1.7-10.8h2.1l2.7,6.5l2.7-6.5h2.1l1.7,10.8h-2.5l-0.9-6.4l-2.7,6.4h-0.9l-2.7-6.4l-0.9,6.4H215.8z
		"/>
	<path class="st4" d="M233.2,17c0.9,0,2,0.1,2.8,0.9c0.9,0.8,1.1,1.9,1.1,2.6c0,1.4-0.5,2.1-0.9,2.5c-0.9,0.9-2,1-2.8,1h-1.5v3.8
		h-2.5V17H233.2z M231.9,22h0.9c0.3,0,0.9,0,1.3-0.4c0.2-0.2,0.4-0.6,0.4-1.1c0-0.5-0.2-0.8-0.4-1.1c-0.4-0.4-0.9-0.4-1.4-0.4h-0.8
		V22z"/>
	<path class="st4" d="M240,17v10.8h-2.5V17H240z"/>
	<path class="st4" d="M250.7,18.3c1,1,1.7,2.4,1.7,4.1c0,1.4-0.5,2.9-1.7,4c-1,1-2.4,1.6-4.2,1.6c-2,0-3.4-0.8-4.2-1.6
		c-1-1-1.7-2.4-1.7-4c0-1.6,0.7-3.1,1.7-4.1c0.7-0.7,2.1-1.6,4.2-1.6C248.3,16.8,249.7,17.3,250.7,18.3z M244.2,20
		c-0.5,0.5-1,1.2-1,2.4c0,1,0.3,1.8,1,2.4c0.7,0.7,1.5,0.9,2.3,0.9c1.1,0,1.9-0.4,2.4-0.9c0.4-0.4,0.9-1.2,0.9-2.4
		c0-1.1-0.5-1.9-0.9-2.4c-0.5-0.5-1.4-0.9-2.4-0.9C245.6,19.1,244.8,19.4,244.2,20z"/>
	<path class="st4" d="M253.1,27.8V17h2.2l5.9,7v-7h2.5v10.8h-2.2l-5.9-7v7H253.1z"/>
	<path class="st4" d="M270.3,19.7c-0.8-0.7-1.5-0.8-1.8-0.8c-0.3,0-0.8,0-1.1,0.4c-0.2,0.2-0.3,0.4-0.3,0.7c0,0.3,0.1,0.5,0.2,0.6
		c0.3,0.2,0.6,0.3,1.4,0.6l0.8,0.3c0.5,0.2,1.1,0.4,1.5,0.8c0.6,0.6,0.8,1.4,0.8,2c0,1.1-0.4,2.1-1,2.7c-1,1-2.3,1.1-3.1,1.1
		c-0.8,0-1.5-0.1-2.1-0.5c-0.6-0.3-1.2-0.8-1.6-1.2l1.3-1.8c0.3,0.3,0.7,0.6,1,0.8c0.4,0.3,0.9,0.4,1.4,0.4c0.3,0,0.8-0.1,1.1-0.4
		c0.2-0.2,0.4-0.5,0.4-0.9c0-0.4-0.1-0.6-0.4-0.8c-0.3-0.2-1-0.5-1.3-0.6l-0.9-0.3c-0.5-0.2-1.1-0.4-1.5-0.9
		c-0.6-0.6-0.6-1.4-0.6-1.9c0-1,0.3-1.8,0.9-2.4c0.8-0.8,1.7-1,2.7-1c0.7,0,1.9,0.1,3.2,1.1L270.3,19.7z"/>
	<path class="st4" d="M274.9,21.1h4.3V17h2.5v10.8h-2.5v-4.6h-4.3v4.6h-2.5V17h2.5V21.1z"/>
	<path class="st4" d="M285.4,17v10.8h-2.5V17H285.4z"/>
	<path class="st4" d="M290.4,17c0.9,0,2,0.1,2.8,0.9c0.9,0.8,1.1,1.9,1.1,2.6c0,1.4-0.5,2.1-0.9,2.5c-0.9,0.9-2,1-2.8,1h-1.5v3.8
		h-2.5V17H290.4z M289.1,22h0.9c0.3,0,0.9,0,1.3-0.4c0.2-0.2,0.4-0.6,0.4-1.1c0-0.5-0.2-0.8-0.4-1.1c-0.4-0.4-0.9-0.4-1.4-0.4h-0.8
		V22z"/>
</g>
</svg>
