<?xml version="1.0" encoding="utf-8"?>
<!-- Generator: Adobe Illustrator 21.0.0, SVG Export Plug-In . SVG Version: 6.00 Build 0)  -->
<svg version="1.1" id="Layer_1" xmlns="http://www.w3.org/2000/svg" xmlns:xlink="http://www.w3.org/1999/xlink" x="0px" y="0px"
	 viewBox="0 0 329.3 74.1" style="enable-background:new 0 0 329.3 74.1;" xml:space="preserve">
<style type="text/css">
	.st0{fill:none;}
	.st1{fill:#FBB042;}
	.st2{fill:#FFFFFF;}
	.st3{fill:#58595B;}
</style>
<rect y="-0.2" class="st0" width="329.3" height="74.3"/>
<g>
	<g>
		<polygon class="st1" points="316.8,52.6 314.4,56.8 316.8,60.9 319.3,56.8 		"/>
	</g>
</g>
<g>
	<path class="st2" d="M329.1,60.7v5.2l-2.2-2c-0.4-0.4-1.1-0.9-1.4-1.1c-0.2-0.2-0.7-0.4-1.2-0.4c-0.3,0-0.5,0.1-0.7,0.3
		c-0.1,0.1-0.2,0.4-0.2,0.6c0,0.3,0.1,0.5,0.2,0.6c0.2,0.2,0.6,0.3,0.8,0.3v1.6c-0.6-0.1-1.3-0.3-1.7-0.7c-0.4-0.3-0.7-0.9-0.7-1.9
		c0-1,0.4-1.5,0.6-1.8c0.4-0.4,0.9-0.6,1.6-0.6c0.6,0,1.1,0.2,1.5,0.5c0.4,0.3,0.8,0.6,1.2,1.1l0.7,0.7v-2.3H329.1z"/>
	<path class="st2" d="M328.5,55.2c0.4,0.4,0.7,1,0.7,1.8c0,0.8-0.3,1.4-0.7,1.8c-0.7,0.7-1.7,1-2.9,1c-1.2,0-2.2-0.3-2.9-1
		c-0.4-0.4-0.7-1-0.7-1.8c0-0.8,0.3-1.4,0.7-1.8c0.6-0.7,1.7-1,2.9-1C326.8,54.2,327.9,54.5,328.5,55.2z M323.7,57.6
		c0.5,0.5,1.5,0.6,2,0.6c0.5,0,1.5-0.1,2-0.6c0.2-0.2,0.3-0.4,0.3-0.6s-0.1-0.4-0.3-0.6c-0.5-0.5-1.4-0.6-2-0.6
		c-0.5,0-1.5,0.1-2,0.6c-0.2,0.2-0.3,0.4-0.3,0.6S323.5,57.4,323.7,57.6z"/>
	<path class="st2" d="M323.6,52.2v1h-1.3v-2.5h6.9v1.6H323.6z"/>
	<path class="st2" d="M323.6,46.2v3h-1.3v-5.4l7,4l-0.4,1.4L323.6,46.2z"/>
</g>
<g>
	<title>gigazone-gaming-championship-X-wide-on-dark</title>
	<path class="st2" d="M71.5,56.1h7.7v0.2c0,1.9-0.7,4.7-2.4,6.5s-3.7,2.1-5.5,2.1c-1.8,0-3.9-0.3-5.7-2.2c-3-3.3-3-8.4,0-11.8
		c1.9-1.9,4.3-2.3,6.1-2.3c1.5,0,3,0.4,4.3,1.2c1,0.7,1.9,1.7,2.5,2.8l-3.2,1.7c-0.3-0.7-0.8-1.2-1.4-1.7c-0.7-0.5-1.5-0.8-2.4-0.7
		c-1.2-0.1-2.4,0.4-3.2,1.3c-0.9,1-1.4,2.3-1.3,3.7c-0.1,1.3,0.4,2.6,1.3,3.6c0.8,0.8,2,1.3,3.1,1.2c1,0.1,1.9-0.2,2.7-0.8
		c0.5-0.5,0.9-1.1,1.1-1.8h-3.7L71.5,56.1z"/>
	<path class="st2" d="M88.8,61.6h-5.8l-1.2,2.9H78L84.3,49h3.3l6.1,15.5h-3.7L88.8,61.6z M87.8,58.8l-1.9-5.2l-1.9,5.2L87.8,58.8z"
		/>
	<path class="st2" d="M92.9,64.5L95.4,49h3l3.9,9.3l3.9-9.3h3l2.5,15.5H108l-1.2-9.3l-3.9,9.3h-1.3l-3.9-9.3l-1.2,9.3H92.9z"/>
	<path class="st2" d="M116.1,49v15.5h-3.6V49H116.1z"/>
	<path class="st2" d="M117.8,64.5V49h3.1l8.4,10V49h3.6v15.5h-3.1l-8.4-10v10H117.8z"/>
	<path class="st2" d="M142,56.1h7.7v0.2c0,1.9-0.7,4.7-2.4,6.5c-1.7,1.8-3.7,2.1-5.5,2.1c-1.8,0-3.9-0.3-5.7-2.2
		c-3-3.3-3-8.4,0-11.8c1.9-1.9,4.3-2.3,6.1-2.3c1.5,0,3,0.4,4.3,1.2c1,0.7,1.9,1.7,2.5,2.8l-3.2,1.7c-0.3-0.7-0.8-1.2-1.4-1.7
		c-0.7-0.5-1.5-0.8-2.4-0.7c-1.2-0.1-2.4,0.4-3.2,1.3c-0.9,1-1.4,2.3-1.3,3.7c-0.1,1.3,0.4,2.6,1.3,3.6c0.8,0.8,2,1.3,3.1,1.2
		c1,0.1,1.9-0.2,2.7-0.8c0.5-0.5,0.9-1.1,1.1-1.8h-3.7L142,56.1z"/>
	<path class="st2" d="M169,64c-1.1,0.6-2.2,0.8-3.4,0.8c-2.9,0-4.8-1-6.1-2.3c-3.2-3.2-3.2-8.5,0-11.7c1.6-1.5,3.6-2.3,5.8-2.2
		c1.3,0,2.5,0.3,3.7,0.9v4.1c-0.9-1-2.2-1.6-3.6-1.6c-1.2,0-2.3,0.4-3.2,1.2c-1,0.9-1.5,2.2-1.5,3.6c-0.1,2.5,1.8,4.6,4.3,4.7
		c0.1,0,0.2,0,0.4,0c1.4,0,2.6-0.6,3.6-1.6L169,64z"/>
	<path class="st2" d="M173.7,54.9h6.2V49h3.6v15.5h-3.6v-6.6h-6.2v6.6h-3.6V49h3.6V54.9z"/>
	<path class="st2" d="M194.2,61.6h-5.8l-1.2,2.9h-3.7l6.2-15.5h3.3l6.1,15.5h-3.7L194.2,61.6z M193.2,58.8l-1.9-5.2l-1.9,5.2
		L193.2,58.8z"/>
	<path class="st2" d="M198.4,64.5l2.5-15.5h3l3.9,9.3l3.9-9.3h3l2.5,15.5h-3.6l-1.2-9.3l-3.9,9.3H207l-3.9-9.3l-1.2,9.3H198.4z"/>
	<path class="st2" d="M223.4,49c1.3,0,2.8,0.2,4.1,1.3c1,1,1.6,2.3,1.5,3.8c0.1,1.3-0.4,2.7-1.3,3.6c-1.2,1.3-2.9,1.4-3.9,1.4h-2.2
		v5.4h-3.6V49H223.4z M221.5,56.1h1.3c0.7,0.1,1.4-0.1,1.9-0.6c0.4-0.4,0.6-1,0.6-1.5c0-0.6-0.2-1.1-0.6-1.5c-0.6-0.4-1.3-0.7-2-0.6
		h-1.2L221.5,56.1z"/>
	<path class="st2" d="M233.1,49v15.5h-3.6V49H233.1z"/>
	<path class="st2" d="M248.5,50.9c3.2,3.2,3.2,8.4,0,11.6c0,0,0,0,0,0c-1.6,1.5-3.8,2.3-6,2.3c-2.2,0.1-4.4-0.8-6-2.3
		c-1.6-1.5-2.4-3.6-2.4-5.8c0-2.2,0.9-4.3,2.4-5.9c1-1,3-2.3,6.1-2.3C244.7,48.6,246.9,49.4,248.5,50.9z M239.1,53.3
		c-0.9,0.9-1.4,2.2-1.4,3.5c0,1.3,0.5,2.6,1.4,3.5c0.9,0.9,2.1,1.3,3.3,1.3c1.3,0,2.5-0.4,3.4-1.3c0.9-0.9,1.4-2.2,1.3-3.5
		c0-1.3-0.5-2.5-1.3-3.5c-0.9-0.9-2.1-1.3-3.4-1.3C241.2,51.9,240,52.4,239.1,53.3z"/>
	<path class="st2" d="M251.9,64.5V49h3.1l8.4,10V49h3.6v15.5h-3.1l-8.4-10v10H251.9z"/>
	<path class="st2" d="M276.6,52.8c-0.7-0.7-1.6-1.1-2.6-1.1c-0.6,0-1.1,0.1-1.5,0.5c-0.3,0.3-0.4,0.6-0.4,1c0,0.3,0.1,0.6,0.3,0.9
		c0.4,0.3,0.9,0.5,1.9,0.9l1.2,0.4c0.8,0.3,1.5,0.7,2.1,1.2c0.8,0.8,1.2,1.8,1.1,2.9c0,1.4-0.4,2.8-1.4,3.8
		c-1.4,1.5-3.4,1.6-4.4,1.6c-1.1,0-2.1-0.2-3.1-0.6c-0.8-0.5-1.6-1-2.3-1.7l1.9-2.6c0.4,0.4,0.9,0.8,1.5,1.2
		c0.6,0.4,1.3,0.6,1.9,0.6c0.6,0,1.2-0.2,1.6-0.5c0.4-0.3,0.6-0.8,0.6-1.3c0-0.4-0.2-0.9-0.5-1.1c-0.6-0.4-1.2-0.7-1.8-0.9l-1.3-0.4
		c-0.8-0.2-1.5-0.7-2.2-1.2c-0.6-0.7-1-1.7-0.9-2.7c0-1.3,0.4-2.6,1.3-3.5c1.1-1.1,2.4-1.4,3.8-1.4c1.7,0,3.3,0.5,4.6,1.5
		L276.6,52.8z"/>
	<path class="st2" d="M283.2,54.9h6.2V49h3.6v15.5h-3.6v-6.6h-6.2v6.6h-3.6V49h3.6V54.9z"/>
	<path class="st2" d="M298.3,49v15.5h-3.6V49H298.3z"/>
	<path class="st2" d="M305.4,49c1.3,0,2.8,0.2,4.1,1.3c1,1,1.6,2.3,1.5,3.8c0.1,1.3-0.4,2.7-1.3,3.6c-1.2,1.3-2.9,1.4-3.9,1.4h-2.2
		v5.4H300V49H305.4z M303.6,56.1h1.3c0.7,0.1,1.4-0.1,1.9-0.6c0.4-0.4,0.6-1,0.6-1.5c0-0.6-0.2-1.1-0.6-1.5c-0.6-0.4-1.3-0.7-2-0.6
		h-1.2L303.6,56.1z"/>
	<polygon class="st1" points="38.6,59.6 38.6,59.6 58,59.6 48.3,43.3 	"/>
	<polygon class="st1" points="3.1,0 28.9,43.3 28.9,43.3 38.6,26.9 31.2,14.4 17.1,14.4 15.6,16.9 5.6,0 	"/>
	<polygon class="st3" points="25.7,0 24.7,1.6 32.4,14.4 46,14.4 39.2,25.9 42.2,31 57.5,5.3 64.2,16.6 74.1,0 	"/>
	<path class="st3" d="M27.8,45.1l-0.5,0.8L27.8,45.1z"/>
	<polygon class="st2" points="17.1,14.4 31.2,14.4 24.1,2.6 	"/>
	<polygon class="st2" points="38.6,26.9 36.1,31.2 28.9,43.3 28,44.9 36.1,58.6 37,57 38.6,59.6 48.3,43.3 	"/>
	<path class="st3" d="M36.1,58.6l4.6,7.7l-4.6,7.7h30.5L58,59.6H38.6l0,0L37,57L36.1,58.6z M0.2,0l27.2,45.8L10.6,74.1h25.5
		l-4.6-7.7l4.6-7.7L28,44.8L1.3,0H0.2z"/>
	<path class="st2" d="M60.2,34.3v-4h10.2c0,0.1,0,0.3,0,0.4c0,0.2,0,0.4,0,0.7c0,3.2-0.9,5.8-2.6,7.6c-1.7,1.8-4.1,2.7-7.3,2.7
		c-1.4,0-2.8-0.2-4.1-0.7c-1.2-0.5-2.3-1.2-3.2-2.1c-0.9-0.9-1.6-2-2.1-3.2c-0.5-1.2-0.7-2.6-0.7-3.9c0-1.3,0.2-2.7,0.7-3.9
		c1-2.4,3-4.3,5.4-5.3c1.3-0.5,2.6-0.7,4-0.7c1.7,0,3.4,0.3,4.9,1.1c1.5,0.8,2.7,1.9,3.6,3.3l-4.5,2.1c-0.5-0.7-1.1-1.2-1.8-1.6
		c-0.7-0.4-1.5-0.5-2.2-0.5c-1.4-0.1-2.7,0.5-3.6,1.5c-0.9,1-1.3,2.4-1.3,4.2c0,1.8,0.4,3.2,1.3,4.3c0.9,1,2.3,1.6,3.6,1.5
		c1.2,0,2.3-0.3,3.3-1c0.8-0.6,1.4-1.5,1.5-2.6L60.2,34.3z"/>
	<polygon class="st2" points="71.4,41.3 71.4,24.3 76,24.3 76,41.3 71.4,41.3 	"/>
	<path class="st2" d="M85.8,35v-3.6h9.1c0,0.1,0,0.2,0,0.4c0,0.1,0,0.3,0,0.6c0,2.9-0.8,5.2-2.3,6.8c-1.5,1.6-3.7,2.4-6.5,2.4
		c-1.2,0-2.5-0.2-3.7-0.6c-1.1-0.4-2.1-1.1-2.9-1.9c-0.8-0.8-1.4-1.8-1.9-2.9c-0.9-2.2-0.9-4.7,0-7c0.9-2.2,2.7-3.9,4.9-4.7
		c1.1-0.4,2.3-0.6,3.6-0.6c1.5,0,3,0.3,4.4,1c1.3,0.7,2.4,1.7,3.2,2.9l-4,1.9c-0.4-0.6-1-1.1-1.6-1.5c-0.6-0.3-1.3-0.5-2-0.5
		c-1.2-0.1-2.4,0.4-3.3,1.4c-0.8,1.1-1.3,2.4-1.2,3.8c0,1.6,0.4,2.9,1.2,3.8c0.8,0.9,2,1.4,3.3,1.4c1,0,2.1-0.3,2.9-0.9
		c0.8-0.5,1.3-1.4,1.4-2.3H85.8z"/>
	<path class="st2" d="M99.7,34.9l1.7-5.6c0.1-0.3,0.2-0.7,0.3-1.1c0.1-0.4,0.2-0.8,0.3-1.2l0.4,1.5c0.1,0.4,0.2,0.7,0.2,0.8l1.7,5.6
		L99.7,34.9z M104.9,24.3h-5.8l-5.8,16.9h4.6l0.9-3h6.6l0.9,3h1.1l2.3-3.6L104.9,24.3L104.9,24.3z"/>
	<polygon class="st3" points="109.5,37.7 107.2,41.3 110.7,41.3 109.5,37.7 	"/>
	<path class="st1" d="M145.4,32.5c0-0.3,0-0.7-0.1-1.1c0-0.5-0.1-1.2-0.2-1.9c0.3,0.7,0.6,1.4,0.9,1.9c0.2,0.4,0.4,0.7,0.6,1.1l0,0
		h4.7l-6-8.2H141v8.2H145.4z"/>
	<polygon class="st1" points="157.5,32.5 157.5,24.3 153.1,24.3 153.1,32.5 157.5,32.5 	"/>
	<polygon class="st1" points="141,33.1 141,41.3 145.4,41.3 145.4,33.1 141,33.1 	"/>
	<path class="st1" d="M153.1,33.1c0,0.3,0,0.7,0.1,1c0,0.5,0.1,1.2,0.2,1.9c-0.3-0.7-0.6-1.4-0.9-1.9c-0.2-0.5-0.4-0.8-0.6-1h-4.7
		l6,8.2h4.4v-8.2H153.1z"/>
	<polygon class="st1" points="163.8,34.6 169.4,34.6 169.4,33.1 159.3,33.1 159.3,41.3 169.7,41.3 169.7,37.5 163.8,37.5 
		163.8,34.6 	"/>
	<polygon class="st1" points="159.3,24.3 159.3,32.5 169.4,32.5 169.4,31 163.8,31 163.8,28 169.7,28 169.7,24.3 159.3,24.3 	"/>
	<path class="st1" d="M135.5,33.1c0,1.2-0.5,2.4-1.3,3.3c-0.7,0.9-1.8,1.4-2.9,1.4v3.9c1.1,0,2.2-0.3,3.2-0.7c1.1-0.5,2.1-1.1,3-1.9
		c1.6-1.6,2.6-3.7,2.6-6L135.5,33.1z"/>
	<path class="st1" d="M134.2,29.2c0.8,0.9,1.2,2.1,1.3,3.3h4.6c-0.1-2.3-1-4.4-2.6-6c-0.8-0.8-1.8-1.5-2.9-1.9
		c-1-0.4-2.1-0.6-3.2-0.7v3.9C132.5,27.9,133.5,28.4,134.2,29.2z"/>
	<polygon class="st1" points="112.8,32.5 118.4,32.5 123.7,24.4 107.7,24.4 107.7,28.5 115.4,28.5 112.8,32.5 	"/>
	<polygon class="st1" points="118.1,33.1 112.4,33.1 109.5,37.7 110.7,41.3 107.2,41.3 105.8,43.3 122.6,43.3 122.6,39.2 
		114.1,39.2 118.1,33.1 	"/>
	<path class="st1" d="M127.9,36.4c-0.8-0.9-1.2-2.1-1.2-3.3H122c0.1,2.3,1,4.4,2.7,6c0.8,0.8,1.8,1.5,2.9,1.9c1,0.4,2.1,0.6,3.2,0.7
		v-3.9C129.6,37.8,128.6,37.3,127.9,36.4z"/>
	<path class="st1" d="M127.6,24.6c-1.1,0.4-2.1,1.1-2.9,1.9c-1.7,1.6-2.6,3.7-2.7,6h4.6c0-1.2,0.4-2.4,1.2-3.3
		c0.7-0.8,1.8-1.4,2.9-1.4v-3.9C129.7,24,128.6,24.2,127.6,24.6L127.6,24.6z"/>
	<path class="st1" d="M171.9,25.7h0.1c0.2,0,0.3-0.1,0.3-0.2c0-0.1-0.1-0.2-0.3-0.2c-0.1,0-0.1,0-0.2,0L171.9,25.7L171.9,25.7z
		 M171.9,26.4h-0.3v-1.3c0.2,0,0.3,0,0.5,0c0.2,0,0.3,0,0.5,0.1c0.1,0.1,0.1,0.2,0.1,0.3c0,0.2-0.1,0.3-0.3,0.3l0,0
		c0.1,0.1,0.2,0.2,0.2,0.3c0,0.1,0,0.2,0.1,0.3h-0.3c-0.1-0.1-0.1-0.2-0.1-0.3c0-0.1-0.1-0.2-0.3-0.2h-0.1L171.9,26.4L171.9,26.4z
		 M171.1,25.7c0,0.6,0.4,1,1,1c0,0,0,0,0,0c0.6,0,1-0.5,1-1c0,0,0,0,0,0c0-0.6-0.5-1-1-1C171.5,24.7,171.1,25.2,171.1,25.7
		L171.1,25.7z M173.4,25.7c0,0.7-0.6,1.4-1.3,1.4s-1.4-0.6-1.4-1.3c0-0.7,0.6-1.4,1.3-1.4c0,0,0,0,0,0
		C172.8,24.4,173.4,25,173.4,25.7C173.4,25.7,173.4,25.7,173.4,25.7z"/>
</g>
</svg>
