<?xml version="1.0" encoding="utf-8"?>
<!-- Generator: Adobe Illustrator 19.1.0, SVG Export Plug-In . SVG Version: 6.00 Build 0)  -->
<svg version="1.1" id="Layer_1" xmlns="http://www.w3.org/2000/svg" xmlns:xlink="http://www.w3.org/1999/xlink" x="0px" y="0px"
	 viewBox="-282 251.1 225.5 111.9" style="enable-background:new -282 251.1 225.5 111.9;" xml:space="preserve">
<style type="text/css">
	.st0{fill:#FBB040;}
	.st1{fill:#FFFFFF;}
	.st2{fill:#58595B;}
	.st3{fill:none;}
	.st4{fill:#231F20;}
</style>
<g>
	<g>
		<polygon class="st0" points="-234.8,272.9 -255.6,272.9 -257.8,276.5 -272.6,251.5 -276.3,251.5 -238.2,315.5 -227.6,297.6 
			-227.5,297.7 -223.8,291.4 		"/>
		<polygon class="st0" points="-223.8,339.7 -223.8,339.7 -195.1,339.7 -209.5,315.6 		"/>
		<polygon class="st0" points="-157.8,296.1 -157.8,296.1 -157.8,296.1 -153.1,296.1 -148.6,289.2 -148.6,289.2 -148.6,289.2 
			-162.1,289.2 -162.1,289.2 -162.1,292.7 -155.6,292.7 		"/>
		<path class="st0" d="M-130.3,295.2c0-0.5-0.1-1-0.2-1.6c0.3,0.6,0.5,1.1,0.8,1.6c0.2,0.5,0.4,0.8,0.5,0.9l0,0h4l-5.1-7h-3.7v7h3.8
			C-130.2,295.8-130.2,295.5-130.3,295.2z"/>
		<rect x="-123.7" y="289.1" class="st0" width="3.8" height="7"/>
		<rect x="-134" y="296.6" class="st0" width="3.8" height="6.9"/>
		<path class="st0" d="M-123.7,303.5h3.8v-6.9h-3.7c0,0.3,0,0.6,0,0.9c0,0.5,0.1,1,0.2,1.6c-0.3-0.6-0.6-1.2-0.8-1.6
			s-0.4-0.7-0.5-0.8h-4L-123.7,303.5z"/>
		<polygon class="st0" points="-114.6,297.8 -109.9,297.8 -109.9,296.6 -118.4,296.6 -118.4,303.5 -109.7,303.5 -109.7,300.3 
			-114.6,300.3 		"/>
		<polygon class="st0" points="-118.4,296.1 -109.9,296.1 -109.9,294.8 -114.6,294.8 -114.6,292.3 -109.7,292.3 -109.7,289.1 
			-118.4,289.1 		"/>
		<path class="st0" d="M-137,301.7c0.7-0.7,1.3-1.5,1.7-2.4c0.3-0.8,0.5-1.7,0.6-2.7h-3.9c0,1.1-0.4,2-1.1,2.8
			c-0.7,0.7-1.5,1.1-2.5,1.2v3.3c0.9,0,1.8-0.2,2.7-0.6C-138.5,302.9-137.7,302.4-137,301.7z"/>
		<path class="st0" d="M-138.6,296.1h3.9c0-0.9-0.2-1.8-0.6-2.7c-0.4-0.9-0.9-1.7-1.7-2.4c-0.7-0.7-1.6-1.2-2.5-1.6
			s-1.8-0.5-2.7-0.6v3.3c1,0.1,1.8,0.5,2.4,1.2C-139,294.1-138.7,295-138.6,296.1z"/>
		<polygon class="st0" points="-149.6,301.7 -156.7,301.7 -153.4,296.6 -158.2,296.6 -158.2,296.6 -160.6,300.5 -162.6,303.5 
			-163.7,305.2 -149.6,305.2 		"/>
		<path class="st0" d="M-146.1,296.6h-3.9c0,0.9,0.2,1.8,0.6,2.6c0.4,0.9,0.9,1.7,1.7,2.4c0.7,0.7,1.5,1.2,2.5,1.6
			c0.9,0.4,1.8,0.5,2.7,0.6v-3.3c-1-0.1-1.8-0.4-2.5-1.2C-145.7,298.6-146.1,297.7-146.1,296.6z"/>
		<path class="st0" d="M-150.1,296.1h3.9c0-1.1,0.4-2,1.1-2.8c0.7-0.7,1.5-1.1,2.4-1.2v-3.3c-0.9,0-1.8,0.2-2.7,0.6
			c-0.9,0.4-1.8,0.9-2.5,1.6c-0.7,0.7-1.3,1.5-1.7,2.4C-149.8,294.3-150,295.2-150.1,296.1z"/>
		<polygon class="st0" points="-108.5,290.9 -108,290.9 -108,289.6 -107.6,289.6 -107.6,289.1 -108.9,289.1 -108.9,289.6 
			-108.5,289.6 		"/>
		<path class="st0" d="M-106.9,290.1c0-0.1,0-0.1,0-0.2c0-0.1,0-0.1,0-0.2c0,0.1,0,0.2,0.1,0.3c0,0,0,0,0,0.1l0.2,0.8h0.3l0.3-0.8
			c0,0,0,0,0-0.1c0-0.1,0.1-0.2,0.1-0.3c0,0.1,0,0.2,0,0.2c0,0.1,0,0.1,0,0.2l0.1,0.8h0.5l-0.3-1.8h-0.4l-0.3,0.9c0,0.1,0,0.1,0,0.1
			v0.1c0-0.1,0-0.1,0-0.2l0,0l-0.3-0.9h-0.5l-0.3,1.8h0.5L-106.9,290.1z"/>
		<polygon class="st0" points="-179.3,342.6 -183,346.3 -181.7,347.7 -179.9,345.9 -179.9,352.3 -178,352.3 -178,345.9 
			-176.2,347.7 -174.9,346.3 -178.6,342.6 		"/>
		<polygon class="st0" points="-169.1,342.6 -172.8,346.3 -171.4,347.7 -169.6,345.9 -169.6,352.3 -167.8,352.3 -167.8,345.9 
			-165.9,347.7 -164.6,346.3 -168.3,342.6 		"/>
		<polygon class="st0" points="-157.5,349.1 -157.5,342.6 -159.4,342.6 -159.4,349.1 -161.2,347.3 -162.5,348.6 -158.8,352.3 
			-158.1,352.3 -154.4,348.6 -155.7,347.3 		"/>
		<polygon class="st0" points="-147.2,349.1 -147.2,342.6 -149.1,342.6 -149.1,349.1 -150.9,347.3 -152.3,348.6 -148.6,352.3 
			-147.8,352.3 -144.1,348.6 -145.4,347.3 		"/>
		<polygon class="st0" points="-137.7,344.7 -139.1,343.4 -142.7,347.1 -142.7,347.9 -139.1,351.6 -137.7,350.2 -139.5,348.4 
			-133.1,348.4 -133.1,346.5 -139.5,346.5 		"/>
		<polygon class="st0" points="-126.8,344.7 -125,346.5 -131.4,346.5 -131.4,348.4 -125,348.4 -126.8,350.2 -125.5,351.6 
			-121.8,347.9 -121.8,347.1 -125.5,343.4 		"/>
		<polygon class="st0" points="-115,344.7 -116.4,343.4 -120,347.1 -120,347.9 -116.4,351.6 -115,350.2 -116.8,348.4 -110.4,348.4 
			-110.4,346.5 -116.8,346.5 		"/>
		<polygon class="st0" points="-103.1,343.4 -104.5,344.7 -102.7,346.5 -109.1,346.5 -109.1,348.4 -102.7,348.4 -104.5,350.2 
			-103.1,351.6 -99.4,347.9 -99.4,347.1 		"/>
	</g>
	<g>
		<path class="st1" d="M-60.6,353.2h-10c-2.1,0-3.8-1.7-3.8-3.8v-2.9c0-2.1,1.7-3.8,3.8-3.8h10c2.1,0,3.8,1.7,3.8,3.8v2.9
			C-56.9,351.5-58.6,353.2-60.6,353.2z"/>
		<path class="st0" d="M-60.6,344.7c1,0,1.8,0.8,1.8,1.8v2.9c0,1-0.8,1.8-1.8,1.8h-10c-1,0-1.8-0.8-1.8-1.8v-2.9
			c0-1,0.8-1.8,1.8-1.8H-60.6 M-60.6,342.8h-10c-2.1,0-3.8,1.7-3.8,3.8v2.9c0,2.1,1.7,3.8,3.8,3.8h10c2.1,0,3.8-1.7,3.8-3.8v-2.9
			C-56.9,344.5-58.6,342.8-60.6,342.8L-60.6,342.8z"/>
	</g>
	<g>
		<circle class="st1" cx="-80.8" cy="348" r="4.2"/>
		<path class="st0" d="M-80.8,353.4c-3,0-5.4-2.4-5.4-5.4s2.4-5.4,5.4-5.4s5.4,2.4,5.4,5.4S-77.8,353.4-80.8,353.4z M-80.8,344.9
			c-1.7,0-3.1,1.4-3.1,3.1c0,1.7,1.4,3.1,3.1,3.1s3.1-1.4,3.1-3.1C-77.7,346.3-79.1,344.9-80.8,344.9z"/>
	</g>
	<g>
		<g>
			<circle class="st1" cx="-92.2" cy="348" r="4.2"/>
			<path class="st0" d="M-92.2,353.4c-3,0-5.4-2.4-5.4-5.4s2.4-5.4,5.4-5.4s5.4,2.4,5.4,5.4S-89.3,353.4-92.2,353.4z M-92.2,344.9
				c-1.7,0-3.1,1.4-3.1,3.1c0,1.7,1.4,3.1,3.1,3.1c1.7,0,3.1-1.4,3.1-3.1C-89.1,346.3-90.5,344.9-92.2,344.9z"/>
		</g>
		<g>
			<polygon class="st2" points="-212.8,272.9 -222.9,289.9 -218.5,297.4 -203.9,272.9 -195.8,259.3 -187.9,272.7 -185.9,276 
				-171.3,251.5 -187.9,251.5 -242.9,251.5 -244.3,253.9 -233,272.9 			"/>
			<polygon class="st2" points="-195.1,339.7 -223.8,339.7 -223.8,339.7 -223.8,339.7 -226.2,335.8 -227.6,338.1 -239.6,317.9 
				-238.2,315.6 -227.5,297.7 -227.6,297.6 -238.2,315.5 -239.6,317.8 -278.9,251.5 -280.6,251.5 -240.4,319.3 -252.5,339.7 
				-265.2,361 -227.6,361 -234.4,349.6 -228.5,339.7 -227.6,338.1 -226.6,339.7 -220.8,349.6 -227.6,361 -182.5,361 -183.6,359.2 
							"/>
			<path class="st1" d="M-202.1,290.8c0.7,0,1.3,0.2,1.9,0.5c0.6,0.3,1.1,0.8,1.5,1.4l3.8-1.8c-0.8-1.2-1.8-2.1-3-2.8
				c-1.2-0.6-2.6-0.9-4.2-0.9c-1.2,0-2.3,0.2-3.4,0.6c-1.1,0.4-2,1-2.8,1.8c-0.8,0.8-1.4,1.7-1.8,2.7c-0.4,1-0.6,2.1-0.6,3.3
				c0,1.1,0.2,2.2,0.6,3.3c0.4,1,1,2,1.8,2.7c0.8,0.8,1.7,1.4,2.7,1.8c1,0.4,2.2,0.6,3.5,0.6c2.6,0,4.7-0.8,6.1-2.3
				c1.5-1.5,2.2-3.7,2.2-6.4c0-0.3,0-0.4,0-0.6c0-0.1,0-0.3,0-0.4h-8.6v3.4h4.4c-0.1,0.9-0.6,1.6-1.3,2.2c-0.7,0.5-1.7,0.8-2.8,0.8
				c-1.3,0-2.3-0.4-3.1-1.3c-0.8-0.9-1.1-2.1-1.1-3.6s0.4-2.7,1.1-3.6C-204.4,291.2-203.4,290.8-202.1,290.8z"/>
			<rect x="-192.9" y="289.1" class="st1" width="4" height="14.4"/>
			<path class="st1" d="M-173,295.5c0-0.1,0-0.2,0-0.3h-7.7v3h3.9c-0.1,0.8-0.5,1.5-1.2,1.9c-0.7,0.5-1.5,0.7-2.5,0.7
				c-1.2,0-2.1-0.4-2.8-1.2c-0.7-0.8-1-1.9-1-3.2c0-1.4,0.3-2.4,1-3.2c0.7-0.8,1.6-1.2,2.8-1.2c0.6,0,1.2,0.1,1.7,0.4
				c0.5,0.3,1,0.7,1.4,1.2l3.4-1.5c-0.7-1.1-1.6-1.9-2.7-2.5s-2.3-0.8-3.7-0.8c-1.1,0-2.1,0.2-3,0.5c-0.9,0.4-1.8,0.9-2.5,1.6
				c-0.7,0.7-1.3,1.5-1.6,2.4c-0.4,0.9-0.5,1.9-0.5,3c0,1,0.2,2,0.6,2.9s0.9,1.7,1.6,2.4c0.7,0.7,1.5,1.3,2.4,1.6s1.9,0.5,3.1,0.5
				c2.4,0,4.2-0.7,5.5-2c1.3-1.3,2-3.3,2-5.7C-173,295.8-173,295.6-173,295.5z"/>
			<path class="st2" d="M-68.9,348.6c0.2-0.2,0.4-0.4,0.5-0.6c0.2-0.2,0.2-0.4,0.2-0.7c0-0.3-0.1-0.6-0.3-0.8
				c-0.1-0.1-0.4-0.3-0.8-0.3c-0.5,0-0.7,0.2-0.9,0.3c-0.2,0.2-0.3,0.5-0.3,0.8h0.7c0-0.1,0-0.3,0.1-0.4c0.1-0.1,0.2-0.1,0.3-0.1
				s0.2,0,0.3,0.1c0.1,0.1,0.1,0.2,0.1,0.3c0,0.2-0.1,0.4-0.2,0.5c-0.1,0.2-0.4,0.5-0.5,0.7l-1,1h2.5v-0.6h-1.1L-68.9,348.6z"/>
			<path class="st2" d="M-66.7,346.3c-0.4,0-0.7,0.1-0.9,0.3c-0.3,0.3-0.5,0.8-0.5,1.3s0.1,1,0.5,1.3c0.2,0.2,0.5,0.3,0.9,0.3
				s0.7-0.1,0.9-0.3c0.3-0.3,0.5-0.8,0.5-1.3c0-0.6-0.1-1-0.5-1.3C-66,346.4-66.3,346.3-66.7,346.3z M-66.4,348.9
				c-0.1,0.1-0.2,0.1-0.3,0.1s-0.2,0-0.3-0.1c-0.2-0.2-0.3-0.7-0.3-0.9c0-0.2,0-0.7,0.3-0.9c0.1-0.1,0.2-0.1,0.3-0.1s0.2,0,0.3,0.1
				c0.2,0.2,0.3,0.7,0.3,0.9C-66.1,348.2-66.2,348.7-66.4,348.9z"/>
			<polygon class="st2" points="-65.3,347 -64.8,347 -64.8,349.6 -64.1,349.6 -64.1,346.4 -65.3,346.4 			"/>
			<path class="st2" d="M-61.3,347.7c-0.1-0.1-0.4-0.3-0.8-0.3c-0.1,0-0.2,0-0.3,0.1l0.8-1.1l-0.8-0.1l-0.7,1
				c-0.3,0.4-0.5,0.7-0.5,1.2c0,0.3,0.1,0.6,0.3,0.8c0.3,0.3,0.7,0.4,1,0.4s0.7,0,1-0.4c0.2-0.2,0.3-0.6,0.3-0.9
				C-61.1,348-61.2,347.8-61.3,347.7z M-62,348.9c-0.1,0.1-0.2,0.1-0.4,0.1s-0.3-0.1-0.4-0.1c-0.1-0.1-0.2-0.2-0.2-0.4
				c0-0.2,0.1-0.4,0.2-0.4c0.1-0.1,0.2-0.1,0.4-0.1c0.1,0,0.3,0,0.4,0.1c0.1,0.1,0.2,0.2,0.2,0.4S-61.9,348.8-62,348.9z"/>
			<path class="st2" d="M-81.1,346.2l-1.3,3.2h0.8l0.2-0.6h1.2l0.2,0.6h0.8l-1.3-3.2H-81.1z M-81.2,348.2l0.4-1.1l0.4,1.1H-81.2z"/>
			<path class="st2" d="M-91.6,347.7c0.1,0,0.2-0.1,0.3-0.2c0.1-0.1,0.1-0.3,0.1-0.4s0-0.4-0.2-0.6c-0.3-0.2-0.7-0.2-0.8-0.2h-1v3.2
				h1.2c0.2,0,0.6,0,0.9-0.3c0.1-0.1,0.3-0.3,0.3-0.7c0-0.3-0.1-0.5-0.2-0.6C-91.2,347.8-91.4,347.7-91.6,347.7z M-92.5,346.7h0.1
				c0.1,0,0.3,0,0.4,0.1c0.1,0,0.1,0.1,0.1,0.3c0,0.1-0.1,0.2-0.1,0.3c-0.1,0.1-0.3,0.1-0.4,0.1h-0.1V346.7z M-91.8,348.7
				c-0.1,0.1-0.4,0.1-0.6,0.1h-0.2V348h0.2c0.2,0,0.4,0,0.5,0.1c0,0,0.1,0.1,0.1,0.3C-91.7,348.5-91.7,348.6-91.8,348.7z"/>
		</g>
	</g>
</g>
<g>
	<g>
		<path class="st3" d="M-223.8,339.7L-223.8,339.7L-223.8,339.7z"/>
		<polygon class="st3" points="-212.8,272.9 -233,272.9 -222.9,289.9 		"/>
		<polygon class="st3" points="-239.7,318.2 -239.6,317.9 -239.6,317.9 		"/>
		<polygon class="st3" points="-209.5,315.6 -209.5,315.6 -195.1,339.7 -195.1,339.7 		"/>
		<polygon class="st3" points="-234.8,272.9 -234.8,272.9 -223.8,291.4 -223.8,291.4 		"/>
	</g>
	<g>
		<g>
			<path class="st1" d="M-160.6,300.5l-4-11.4h-4.9l-5,14.4h3.9l0.7-2.6h5.6l0.7,2.6h0.9h3L-160.6,300.5z M-168.9,298.1l1.4-4.7
				c0.1-0.3,0.2-0.6,0.2-0.9c0.1-0.3,0.2-0.7,0.2-1c0.1,0.5,0.2,0.9,0.3,1.2c0.1,0.3,0.1,0.6,0.2,0.7l1.6,4.7H-168.9z"/>
			<path class="st3" d="M-166.7,292.7c-0.1-0.3-0.2-0.7-0.3-1.2c-0.1,0.4-0.2,0.7-0.2,1c-0.1,0.3-0.2,0.6-0.2,0.9l-1.4,4.7h3.9
				l-1.5-4.7C-166.6,293.2-166.6,293-166.7,292.7z"/>
			<polygon class="st2" points="-160.6,300.5 -162.6,303.5 -159.6,303.5 			"/>
		</g>
		<g>
			<polygon class="st1" points="-219.4,298.9 -219.4,298.9 -223.8,291.4 -223.8,291.4 -227.5,297.7 -238.2,315.6 -239.6,317.9 
				-227.6,338.1 -226.2,335.8 -223.8,339.7 -209.5,315.6 -209.5,315.6 -217.2,302.5 			"/>
			<path class="st4" d="M-195.1,339.7l11.5,19.5L-195.1,339.7z"/>
			<polygon class="st1" points="-234.8,272.9 -245.2,255.3 -255.6,272.9 			"/>
			<path class="st1" d="M-188.3,320c1.5-1.5,2-3.9,2-5.5v-0.1h-6.5v2.4h3.2c-0.3,1-0.8,1.5-0.9,1.6c-0.3,0.3-1,0.7-2.3,0.7
				c-1,0-1.9-0.2-2.7-1c-0.6-0.6-1.1-1.5-1.1-3c0-1.2,0.4-2.3,1.1-3.1c0.6-0.7,1.5-1.1,2.7-1.1c0.7,0,1.4,0.2,2,0.6
				c0.5,0.4,0.9,0.9,1.2,1.4l2.7-1.5c-0.5-0.8-1.2-1.7-2.1-2.3c-1.2-0.8-2.6-1-3.7-1c-1.6,0-3.5,0.2-5.1,1.9c-1.1,1.1-1.9,2.8-1.9,5
				c0,2.6,1.2,4.2,1.9,5c1.5,1.6,3.2,1.8,4.8,1.8C-191.4,321.8-189.8,321.5-188.3,320z"/>
			<path class="st1" d="M-184.2,321.5l1-2.5h5l1,2.5h2.5h0.6h2.4l1-7.8l3.3,7.8h1.1l3.3-7.8l1,7.8h3l-2-13.1h-2.5l-3.3,7.8l-3.3-7.8
				h-2.5l-1.9,12l-4.7-12h-2.8l-5.3,13.1H-184.2z M-180.6,312.3l1.6,4.4h-3.2L-180.6,312.3z"/>
			<rect x="-158.1" y="308.4" class="st1" width="3" height="13.1"/>
			<polygon class="st1" points="-150.6,313 -143.5,321.5 -140.8,321.5 -140.8,308.4 -143.8,308.4 -143.8,316.9 -151,308.4 
				-153.6,308.4 -153.6,321.5 -150.6,321.5 			"/>
			<path class="st1" d="M-133.3,321.8c1.6,0,3.2-0.3,4.7-1.8s2-3.9,2-5.5v-0.1h-6.5v2.4h3.2c-0.3,1-0.8,1.5-0.9,1.6
				c-0.3,0.3-1,0.7-2.3,0.7c-1,0-1.9-0.2-2.7-1c-0.6-0.6-1.1-1.5-1.1-3c0-1.2,0.4-2.3,1.1-3.1c0.6-0.7,1.5-1.1,2.7-1.1
				c0.7,0,1.4,0.2,2,0.6c0.5,0.4,0.9,0.9,1.2,1.4l2.7-1.5c-0.5-0.8-1.2-1.7-2.1-2.3c-1.2-0.8-2.6-1-3.7-1c-1.6,0-3.5,0.2-5.1,1.9
				c-1.1,1.1-1.9,2.8-1.9,5c0,2.6,1.2,4.2,1.9,5C-136.6,321.6-134.9,321.8-133.3,321.8z"/>
			<path class="st1" d="M-188.5,326.9c-1.2,1.1-2,2.9-2,4.9c0,2.1,0.9,3.8,2,5c1.1,1.1,2.7,1.9,5.1,1.9c0.8,0,1.7-0.1,2.9-0.7v-3.5
				c-1.2,1.1-2.2,1.4-3,1.4c-1.6,0-2.6-0.8-2.8-1.1c-0.6-0.6-1.1-1.5-1.1-2.9c0-1.3,0.5-2.3,1.2-3c0.7-0.7,1.6-1,2.7-1
				c1.4,0,2.4,0.7,3.1,1.4v-3.5c-1.3-0.6-2.3-0.7-3.1-0.7C-185.7,325-187.4,325.8-188.5,326.9z"/>
			<polygon class="st1" points="-171.3,330.3 -176.5,330.3 -176.5,325.3 -179.5,325.3 -179.5,338.4 -176.5,338.4 -176.5,332.9 
				-171.3,332.9 -171.3,338.4 -168.3,338.4 -168.3,325.3 -171.3,325.3 			"/>
			<path class="st1" d="M-144.5,325.3l-3.3,7.8l-3.3-7.8h-2.5l-1.9,12l-4.7-12h-2.8l-5.3,13.1h3.1l1-2.5h5l1,2.5h2.5h0.6h2.4l1-7.8
				l3.3,7.8h1.1l3.3-7.8l1,7.8h3l-2-13.1H-144.5z M-163.2,333.6l1.6-4.4l1.6,4.4H-163.2z"/>
			<path class="st1" d="M-134.5,325.3h-4.6v13.1h3v-4.6h1.8c0.9,0,2.3-0.1,3.3-1.2c0.5-0.5,1.1-1.4,1.1-3.1c0-0.9-0.2-2.2-1.3-3.2
				C-132.1,325.5-133.3,325.3-134.5,325.3z M-133.3,330.8c-0.5,0.5-1.2,0.5-1.6,0.5h-1.1v-3.6h1c0.6,0,1.2,0.1,1.7,0.5
				c0.3,0.3,0.5,0.7,0.5,1.3C-132.9,330.1-133.1,330.6-133.3,330.8z"/>
			<rect x="-129.3" y="325.3" class="st1" width="3" height="13.1"/>
			<path class="st1" d="M-118.2,325c-2.6,0-4.2,1-5.1,1.9c-1.2,1.2-2,3.1-2,5c0,1.9,0.8,3.7,2,4.9c1,0.9,2.7,1.9,5.1,1.9
				c2.2,0,3.9-0.7,5.1-1.9c1.4-1.4,2-3.2,2-4.9c0-2-0.8-3.8-2-5C-114.5,325.6-116.2,325-118.2,325z M-115.4,334.8
				c-0.6,0.6-1.6,1.1-2.9,1.1c-1,0-2-0.3-2.8-1.1c-0.8-0.8-1.2-1.7-1.2-2.9c0-1.5,0.6-2.4,1.2-3c0.7-0.7,1.7-1.1,2.9-1.1
				s2.2,0.5,2.9,1.1c0.6,0.6,1.1,1.6,1.1,2.9C-114.2,333.4-114.8,334.3-115.4,334.8z"/>
			<polygon class="st1" points="-100.6,333.8 -107.7,325.3 -110.3,325.3 -110.3,338.4 -107.3,338.4 -107.3,329.9 -100.2,338.4 
				-97.5,338.4 -97.5,325.3 -100.6,325.3 			"/>
			<path class="st1" d="M-90.3,330.7l-1-0.4c-0.9-0.3-1.3-0.5-1.7-0.7c-0.2-0.2-0.3-0.4-0.3-0.7c0-0.3,0.1-0.6,0.3-0.8
				c0.4-0.4,0.9-0.5,1.3-0.5c0.4,0,1.2,0.1,2.2,0.9l1.4-2.2c-1.5-1.1-3-1.3-3.9-1.3c-1.2,0-2.3,0.3-3.2,1.2
				c-0.8,0.8-1.1,1.8-1.1,2.9c0,0.6,0.1,1.6,0.8,2.3c0.5,0.6,1.2,0.8,1.8,1l1.1,0.4c0.4,0.1,1.2,0.4,1.5,0.7
				c0.3,0.2,0.5,0.5,0.5,0.9c0,0.5-0.2,0.8-0.5,1.1c-0.4,0.4-1,0.5-1.4,0.5c-0.6,0-1.1-0.2-1.7-0.5c-0.4-0.2-0.9-0.7-1.2-1l-1.6,2.2
				c0.5,0.5,1.3,1.1,1.9,1.4c0.8,0.4,1.7,0.6,2.6,0.6c0.9,0,2.6-0.1,3.7-1.3c0.7-0.7,1.2-1.9,1.2-3.2c0-0.8-0.2-1.7-1-2.4
				C-89,331.2-89.7,330.9-90.3,330.7z"/>
			<polygon class="st1" points="-78.6,330.3 -83.8,330.3 -83.8,325.3 -86.8,325.3 -86.8,338.4 -83.8,338.4 -83.8,332.9 -78.6,332.9 
				-78.6,338.4 -75.5,338.4 -75.5,325.3 -78.6,325.3 			"/>
			<rect x="-74.1" y="325.3" class="st1" width="3" height="13.1"/>
			<path class="st1" d="M-61.5,326.4c-1-0.9-2.3-1.1-3.4-1.1h-4.6v13.1h3v-4.6h1.8c0.9,0,2.3-0.1,3.3-1.2c0.5-0.5,1.1-1.4,1.1-3.1
				C-60.3,328.7-60.4,327.4-61.5,326.4z M-63.8,330.8c-0.5,0.5-1.2,0.5-1.6,0.5h-1.1v-3.6h1c0.6,0,1.2,0.1,1.7,0.5
				c0.3,0.3,0.5,0.7,0.5,1.3C-63.4,330.1-63.6,330.6-63.8,330.8z"/>
		</g>
	</g>
</g>
</svg>
