<?xml version="1.0" encoding="utf-8"?>
<!-- Generator: Adobe Illustrator 19.1.0, SVG Export Plug-In . SVG Version: 6.00 Build 0)  -->
<svg version="1.1" id="Layer_1" xmlns="http://www.w3.org/2000/svg" xmlns:xlink="http://www.w3.org/1999/xlink" x="0px" y="0px"
	 viewBox="-282 251.1 225.5 111.9" style="enable-background:new -282 251.1 225.5 111.9;" xml:space="preserve">
<style type="text/css">
	.st0{fill:#FBB040;}
	.st1{fill:#FFFFFF;}
	.st2{fill:#58595B;}
	.st3{fill:none;}
	.st4{fill:#231F20;}
</style>
<g>
	<g>
		<g>
			<polygon class="st0" points="-235.3,273.7 -256.1,273.7 -258.3,277.3 -273.1,252.3 -276.8,252.3 -238.7,316.3 -228.1,298.4 
				-228,298.5 -224.3,292.2 			"/>
			<polygon class="st0" points="-224.3,340.5 -224.3,340.5 -195.6,340.5 -210,316.4 			"/>
			<polygon class="st0" points="-158.3,296.9 -158.3,296.9 -158.3,296.9 -153.6,296.9 -149.1,290 -149.1,290 -149.1,290 -162.6,290 
				-162.6,290 -162.6,293.5 -156.1,293.5 			"/>
			<path class="st0" d="M-130.8,296c0-0.5-0.1-1-0.2-1.6c0.3,0.6,0.5,1.1,0.8,1.6c0.2,0.5,0.4,0.8,0.5,0.9l0,0h4l-5.1-7h-3.7v7h3.8
				C-130.7,296.6-130.7,296.3-130.8,296z"/>
			<rect x="-124.2" y="289.9" class="st0" width="3.8" height="7"/>
			<rect x="-134.5" y="297.4" class="st0" width="3.8" height="6.9"/>
			<path class="st0" d="M-124.2,304.3h3.8v-6.9h-3.7c0,0.3,0,0.6,0,0.9c0,0.5,0.1,1,0.2,1.6c-0.3-0.6-0.6-1.2-0.8-1.6
				s-0.4-0.7-0.5-0.8h-4L-124.2,304.3z"/>
			<polygon class="st0" points="-115.1,298.6 -110.4,298.6 -110.4,297.4 -118.9,297.4 -118.9,304.3 -110.2,304.3 -110.2,301.1 
				-115.1,301.1 			"/>
			<polygon class="st0" points="-118.9,296.9 -110.4,296.9 -110.4,295.6 -115.1,295.6 -115.1,293.1 -110.2,293.1 -110.2,289.9 
				-118.9,289.9 			"/>
			<path class="st0" d="M-137.5,302.5c0.7-0.7,1.3-1.5,1.7-2.4c0.3-0.8,0.5-1.7,0.6-2.7h-3.9c0,1.1-0.4,2-1.1,2.8
				c-0.7,0.7-1.5,1.1-2.5,1.2v3.3c0.9,0,1.8-0.2,2.7-0.6C-139,303.7-138.2,303.2-137.5,302.5z"/>
			<path class="st0" d="M-139.1,296.9h3.9c0-0.9-0.2-1.8-0.6-2.7c-0.4-0.9-0.9-1.7-1.7-2.4c-0.7-0.7-1.6-1.2-2.5-1.6
				s-1.8-0.5-2.7-0.6v3.3c1,0.1,1.8,0.5,2.4,1.2C-139.5,294.9-139.2,295.8-139.1,296.9z"/>
			<polygon class="st0" points="-150.1,302.5 -157.2,302.5 -153.9,297.4 -158.7,297.4 -158.7,297.4 -161.1,301.3 -163.1,304.3 
				-164.2,306 -150.1,306 			"/>
			<path class="st0" d="M-146.6,297.4h-3.9c0,0.9,0.2,1.8,0.6,2.6c0.4,0.9,0.9,1.7,1.7,2.4c0.7,0.7,1.5,1.2,2.5,1.6
				c0.9,0.4,1.8,0.5,2.7,0.6v-3.3c-1-0.1-1.8-0.4-2.5-1.2C-146.2,299.4-146.6,298.5-146.6,297.4z"/>
			<path class="st0" d="M-150.6,296.9h3.9c0-1.1,0.4-2,1.1-2.8c0.7-0.7,1.5-1.1,2.4-1.2v-3.3c-0.9,0-1.8,0.2-2.7,0.6
				s-1.8,0.9-2.5,1.6s-1.3,1.5-1.7,2.4C-150.3,295.1-150.5,296-150.6,296.9z"/>
			<polygon class="st0" points="-109,291.7 -108.5,291.7 -108.5,290.4 -108.1,290.4 -108.1,289.9 -109.4,289.9 -109.4,290.4 
				-109,290.4 			"/>
			<path class="st0" d="M-107.4,290.9c0-0.1,0-0.1,0-0.2s0-0.1,0-0.2c0,0.1,0,0.2,0.1,0.3C-107.3,290.8-107.3,290.8-107.4,290.9
				l0.3,0.8h0.3l0.3-0.8c0,0,0,0,0-0.1s0.1-0.2,0.1-0.3c0,0.1,0,0.2,0,0.2c0,0.1,0,0.1,0,0.2l0.1,0.8h0.5l-0.3-1.8h-0.4l-0.3,0.9
				c0,0.1,0,0.1,0,0.1v0.1c0-0.1,0-0.1,0-0.2l0,0l-0.3-0.9h-0.5l-0.3,1.8h0.5L-107.4,290.9z"/>
			<polygon class="st0" points="-179.8,343.4 -183.5,347.1 -182.2,348.5 -180.4,346.7 -180.4,353.1 -178.5,353.1 -178.5,346.7 
				-176.7,348.5 -175.4,347.1 -179.1,343.4 			"/>
			<polygon class="st0" points="-169.6,343.4 -173.3,347.1 -171.9,348.5 -170.1,346.7 -170.1,353.1 -168.3,353.1 -168.3,346.7 
				-166.4,348.5 -165.1,347.1 -168.8,343.4 			"/>
			<polygon class="st0" points="-158,349.9 -158,343.4 -159.9,343.4 -159.9,349.9 -161.7,348.1 -163,349.4 -159.3,353.1 
				-158.6,353.1 -154.9,349.4 -156.2,348.1 			"/>
			<polygon class="st0" points="-147.7,349.9 -147.7,343.4 -149.6,343.4 -149.6,349.9 -151.4,348.1 -152.8,349.4 -149.1,353.1 
				-148.3,353.1 -144.6,349.4 -145.9,348.1 			"/>
			<polygon class="st0" points="-138.2,345.5 -139.6,344.2 -143.2,347.9 -143.2,348.7 -139.6,352.4 -138.2,351 -140,349.2 
				-133.6,349.2 -133.6,347.3 -140,347.3 			"/>
			<polygon class="st0" points="-127.3,345.5 -125.5,347.3 -131.9,347.3 -131.9,349.2 -125.5,349.2 -127.3,351 -126,352.4 
				-122.3,348.7 -122.3,347.9 -126,344.2 			"/>
			<polygon class="st0" points="-115.5,345.5 -116.9,344.2 -120.5,347.9 -120.5,348.7 -116.9,352.4 -115.5,351 -117.3,349.2 
				-110.9,349.2 -110.9,347.3 -117.3,347.3 			"/>
			<polygon class="st0" points="-103.6,344.2 -105,345.5 -103.2,347.3 -109.6,347.3 -109.6,349.2 -103.2,349.2 -105,351 
				-103.6,352.4 -99.9,348.7 -99.9,347.9 			"/>
		</g>
		<g>
			<path class="st1" d="M-61.1,354h-10c-2.1,0-3.8-1.7-3.8-3.8v-2.9c0-2.1,1.7-3.8,3.8-3.8h10c2.1,0,3.8,1.7,3.8,3.8v2.9
				C-57.4,352.3-59.1,354-61.1,354z"/>
			<path class="st0" d="M-61.1,345.5c1,0,1.8,0.8,1.8,1.8v2.9c0,1-0.8,1.8-1.8,1.8h-10c-1,0-1.8-0.8-1.8-1.8v-2.9
				c0-1,0.8-1.8,1.8-1.8H-61.1 M-61.1,343.6h-10c-2.1,0-3.8,1.7-3.8,3.8v2.9c0,2.1,1.7,3.8,3.8,3.8h10c2.1,0,3.8-1.7,3.8-3.8v-2.9
				C-57.4,345.3-59.1,343.6-61.1,343.6L-61.1,343.6z"/>
		</g>
		<g>
			<circle class="st1" cx="-81.3" cy="348.8" r="4.2"/>
			<path class="st0" d="M-81.3,354.2c-3,0-5.4-2.4-5.4-5.4s2.4-5.4,5.4-5.4s5.4,2.4,5.4,5.4S-78.3,354.2-81.3,354.2z M-81.3,345.7
				c-1.7,0-3.1,1.4-3.1,3.1s1.4,3.1,3.1,3.1s3.1-1.4,3.1-3.1C-78.2,347.1-79.6,345.7-81.3,345.7z"/>
		</g>
		<g>
			<g>
				<circle class="st1" cx="-92.7" cy="348.8" r="4.2"/>
				<path class="st0" d="M-92.7,354.2c-3,0-5.4-2.4-5.4-5.4s2.4-5.4,5.4-5.4s5.4,2.4,5.4,5.4S-89.8,354.2-92.7,354.2z M-92.7,345.7
					c-1.7,0-3.1,1.4-3.1,3.1s1.4,3.1,3.1,3.1s3.1-1.4,3.1-3.1S-91,345.7-92.7,345.7z"/>
			</g>
			<g>
				<polygon class="st2" points="-213.3,273.7 -223.4,290.7 -219,298.2 -204.4,273.7 -196.3,260.1 -188.4,273.5 -186.4,276.8 
					-171.8,252.3 -188.4,252.3 -243.4,252.3 -244.8,254.7 -233.5,273.7 				"/>
				<polygon class="st2" points="-195.6,340.5 -224.3,340.5 -224.3,340.5 -224.3,340.5 -226.7,336.6 -228.1,338.9 -240.1,318.7 
					-238.7,316.4 -228,298.5 -228.1,298.4 -238.7,316.3 -240.1,318.6 -279.4,252.3 -281.1,252.3 -240.9,320.1 -253,340.5 
					-265.8,361.8 -228.1,361.8 -234.9,350.4 -229,340.5 -228.1,338.9 -227.1,340.5 -221.3,350.4 -228.1,361.8 -183,361.8 
					-184.1,360 				"/>
				<path class="st1" d="M-202.6,291.6c0.7,0,1.3,0.2,1.9,0.5c0.6,0.3,1.1,0.8,1.5,1.4l3.8-1.8c-0.8-1.2-1.8-2.1-3-2.8
					c-1.2-0.6-2.6-0.9-4.2-0.9c-1.2,0-2.3,0.2-3.4,0.6c-1.1,0.4-2,1-2.8,1.8s-1.4,1.7-1.8,2.7c-0.4,1-0.6,2.1-0.6,3.3
					c0,1.1,0.2,2.2,0.6,3.3c0.4,1,1,2,1.8,2.7c0.8,0.8,1.7,1.4,2.7,1.8s2.2,0.6,3.5,0.6c2.6,0,4.7-0.8,6.1-2.3
					c1.5-1.5,2.2-3.7,2.2-6.4c0-0.3,0-0.4,0-0.6c0-0.1,0-0.3,0-0.4h-8.6v3.4h4.4c-0.1,0.9-0.6,1.6-1.3,2.2c-0.7,0.5-1.7,0.8-2.8,0.8
					c-1.3,0-2.3-0.4-3.1-1.3s-1.1-2.1-1.1-3.6s0.4-2.7,1.1-3.6C-204.9,292-203.9,291.6-202.6,291.6z"/>
				<rect x="-193.4" y="289.9" class="st1" width="4" height="14.4"/>
				<path class="st1" d="M-173.5,296.3c0-0.1,0-0.2,0-0.3h-7.7v3h3.9c-0.1,0.8-0.5,1.5-1.2,1.9c-0.7,0.5-1.5,0.7-2.5,0.7
					c-1.2,0-2.1-0.4-2.8-1.2c-0.7-0.8-1-1.9-1-3.2c0-1.4,0.3-2.4,1-3.2c0.7-0.8,1.6-1.2,2.8-1.2c0.6,0,1.2,0.1,1.7,0.4
					s1,0.7,1.4,1.2l3.4-1.5c-0.7-1.1-1.6-1.9-2.7-2.5s-2.3-0.8-3.7-0.8c-1.1,0-2.1,0.2-3,0.5c-0.9,0.4-1.8,0.9-2.5,1.6
					s-1.3,1.5-1.6,2.4c-0.4,0.9-0.5,1.9-0.5,3c0,1,0.2,2,0.6,2.9s0.9,1.7,1.6,2.4c0.7,0.7,1.5,1.3,2.4,1.6s1.9,0.5,3.1,0.5
					c2.4,0,4.2-0.7,5.5-2s2-3.3,2-5.7C-173.5,296.6-173.5,296.4-173.5,296.3z"/>
				<path class="st2" d="M-69.4,349.4c0.2-0.2,0.4-0.4,0.5-0.6c0.2-0.2,0.2-0.4,0.2-0.7c0-0.3-0.1-0.6-0.3-0.8
					c-0.1-0.1-0.4-0.3-0.8-0.3c-0.5,0-0.7,0.2-0.9,0.3c-0.2,0.2-0.3,0.5-0.3,0.8h0.7c0-0.1,0-0.3,0.1-0.4s0.2-0.1,0.3-0.1
					s0.2,0,0.3,0.1c0.1,0.1,0.1,0.2,0.1,0.3c0,0.2-0.1,0.4-0.2,0.5c-0.1,0.2-0.4,0.5-0.5,0.7l-1,1h2.5v-0.6h-1.1L-69.4,349.4z"/>
				<path class="st2" d="M-67.2,347.1c-0.4,0-0.7,0.1-0.9,0.3c-0.3,0.3-0.5,0.8-0.5,1.3s0.1,1,0.5,1.3c0.2,0.2,0.5,0.3,0.9,0.3
					s0.7-0.1,0.9-0.3c0.3-0.3,0.5-0.8,0.5-1.3c0-0.6-0.1-1-0.5-1.3C-66.5,347.2-66.8,347.1-67.2,347.1z M-66.9,349.7
					c-0.1,0.1-0.2,0.1-0.3,0.1s-0.2,0-0.3-0.1c-0.2-0.2-0.3-0.7-0.3-0.9c0-0.2,0-0.7,0.3-0.9c0.1-0.1,0.2-0.1,0.3-0.1s0.2,0,0.3,0.1
					c0.2,0.2,0.3,0.7,0.3,0.9C-66.6,349-66.7,349.5-66.9,349.7z"/>
				<polygon class="st2" points="-65.8,347.8 -65.3,347.8 -65.3,350.4 -64.6,350.4 -64.6,347.2 -65.8,347.2 				"/>
				<path class="st2" d="M-61.8,348.5c-0.1-0.1-0.4-0.3-0.8-0.3c-0.1,0-0.2,0-0.3,0.1l0.8-1.1l-0.8-0.1l-0.7,1
					c-0.3,0.4-0.5,0.7-0.5,1.2c0,0.3,0.1,0.6,0.3,0.8c0.3,0.3,0.7,0.4,1,0.4s0.7,0,1-0.4c0.2-0.2,0.3-0.6,0.3-0.9
					C-61.6,348.8-61.7,348.6-61.8,348.5z M-62.5,349.7c-0.1,0.1-0.2,0.1-0.4,0.1s-0.3-0.1-0.4-0.1c-0.1-0.1-0.2-0.2-0.2-0.4
					c0-0.2,0.1-0.4,0.2-0.4c0.1-0.1,0.2-0.1,0.4-0.1c0.1,0,0.3,0,0.4,0.1c0.1,0.1,0.2,0.2,0.2,0.4S-62.4,349.6-62.5,349.7z"/>
				<path class="st2" d="M-81.6,347l-1.3,3.2h0.8l0.2-0.6h1.2l0.2,0.6h0.8l-1.3-3.2H-81.6z M-81.7,349l0.4-1.1l0.4,1.1H-81.7z"/>
				<path class="st2" d="M-92.1,348.5c0.1,0,0.2-0.1,0.3-0.2c0.1-0.1,0.1-0.3,0.1-0.4s0-0.4-0.2-0.6c-0.3-0.2-0.7-0.2-0.8-0.2h-1
					v3.2h1.2c0.2,0,0.6,0,0.9-0.3c0.1-0.1,0.3-0.3,0.3-0.7c0-0.3-0.1-0.5-0.2-0.6C-91.7,348.6-91.9,348.5-92.1,348.5z M-93,347.5
					L-93,347.5c0.2,0,0.4,0,0.5,0.1c0.1,0,0.1,0.1,0.1,0.3c0,0.1-0.1,0.2-0.1,0.3c-0.1,0.1-0.3,0.1-0.4,0.1H-93V347.5z M-92.3,349.5
					c-0.1,0.1-0.4,0.1-0.6,0.1h-0.2v-0.8h0.2c0.2,0,0.4,0,0.5,0.1c0,0,0.1,0.1,0.1,0.3C-92.2,349.3-92.2,349.4-92.3,349.5z"/>
			</g>
		</g>
	</g>
	<g>
		<g>
			<path class="st3" d="M-224.3,340.5L-224.3,340.5L-224.3,340.5z"/>
			<polygon class="st3" points="-213.3,273.7 -233.5,273.7 -223.4,290.7 			"/>
			<polygon class="st3" points="-240.2,319 -240.1,318.7 -240.1,318.7 			"/>
			<polygon class="st3" points="-210,316.4 -210,316.4 -195.6,340.5 -195.6,340.5 			"/>
			<polygon class="st3" points="-235.3,273.7 -235.3,273.7 -224.3,292.2 -224.3,292.2 			"/>
		</g>
		<g>
			<g>
				<path class="st1" d="M-161.1,301.3l-4-11.4h-4.9l-5,14.4h3.9l0.7-2.6h5.6l0.7,2.6h0.9h3L-161.1,301.3z M-169.4,298.9l1.4-4.7
					c0.1-0.3,0.2-0.6,0.2-0.9c0.1-0.3,0.2-0.7,0.2-1c0.1,0.5,0.2,0.9,0.3,1.2c0.1,0.3,0.1,0.6,0.2,0.7l1.6,4.7L-169.4,298.9
					L-169.4,298.9z"/>
				<path class="st3" d="M-167.2,293.5c-0.1-0.3-0.2-0.7-0.3-1.2c-0.1,0.4-0.2,0.7-0.2,1c-0.1,0.3-0.2,0.6-0.2,0.9l-1.4,4.7h3.9
					l-1.5-4.7C-167.1,294-167.1,293.8-167.2,293.5z"/>
				<polygon class="st2" points="-161.1,301.3 -163.1,304.3 -160.1,304.3 				"/>
			</g>
			<g>
				<polygon class="st1" points="-219.9,299.7 -219.9,299.7 -224.3,292.2 -224.3,292.2 -228,298.5 -238.7,316.4 -240.1,318.7 
					-228.1,338.9 -226.7,336.6 -224.3,340.5 -210,316.4 -210,316.4 -217.7,303.3 				"/>
				<path class="st4" d="M-195.6,340.5l11.5,19.5L-195.6,340.5z"/>
				<polygon class="st1" points="-235.3,273.7 -245.7,256.1 -256.1,273.7 				"/>
				<path class="st1" d="M-188.8,320.8c1.5-1.5,2-3.9,2-5.5v-0.1h-6.5v2.4h3.2c-0.3,1-0.8,1.5-0.9,1.6c-0.3,0.3-1,0.7-2.3,0.7
					c-1,0-1.9-0.2-2.7-1c-0.6-0.6-1.1-1.5-1.1-3c0-1.2,0.4-2.3,1.1-3.1c0.6-0.7,1.5-1.1,2.7-1.1c0.7,0,1.4,0.2,2,0.6
					c0.5,0.4,0.9,0.9,1.2,1.4l2.7-1.5c-0.5-0.8-1.2-1.7-2.1-2.3c-1.2-0.8-2.6-1-3.7-1c-1.6,0-3.5,0.2-5.1,1.9
					c-1.1,1.1-1.9,2.8-1.9,5c0,2.6,1.2,4.2,1.9,5c1.5,1.6,3.2,1.8,4.8,1.8C-191.9,322.6-190.3,322.3-188.8,320.8z"/>
				<path class="st1" d="M-184.7,322.3l1-2.5h5l1,2.5h2.5h0.6h2.4l1-7.8l3.3,7.8h1.1l3.3-7.8l1,7.8h3l-2-13.1h-2.5l-3.3,7.8
					l-3.3-7.8h-2.5l-1.9,12l-4.7-12h-2.8l-5.3,13.1H-184.7z M-181.1,313.1l1.6,4.4h-3.2L-181.1,313.1z"/>
				<rect x="-158.6" y="309.2" class="st1" width="3" height="13.1"/>
				<polygon class="st1" points="-151.1,313.8 -144,322.3 -141.3,322.3 -141.3,309.2 -144.3,309.2 -144.3,317.7 -151.5,309.2 
					-154.1,309.2 -154.1,322.3 -151.1,322.3 				"/>
				<path class="st1" d="M-133.8,322.6c1.6,0,3.2-0.3,4.7-1.8c1.5-1.5,2-3.9,2-5.5v-0.1h-6.5v2.4h3.2c-0.3,1-0.8,1.5-0.9,1.6
					c-0.3,0.3-1,0.7-2.3,0.7c-1,0-1.9-0.2-2.7-1c-0.6-0.6-1.1-1.5-1.1-3c0-1.2,0.4-2.3,1.1-3.1c0.6-0.7,1.5-1.1,2.7-1.1
					c0.7,0,1.4,0.2,2,0.6c0.5,0.4,0.9,0.9,1.2,1.4l2.7-1.5c-0.5-0.8-1.2-1.7-2.1-2.3c-1.2-0.8-2.6-1-3.7-1c-1.6,0-3.5,0.2-5.1,1.9
					c-1.1,1.1-1.9,2.8-1.9,5c0,2.6,1.2,4.2,1.9,5C-137.1,322.4-135.4,322.6-133.8,322.6z"/>
				<path class="st1" d="M-189,327.7c-1.2,1.1-2,2.9-2,4.9c0,2.1,0.9,3.8,2,5c1.1,1.1,2.7,1.9,5.1,1.9c0.8,0,1.7-0.1,2.9-0.7v-3.5
					c-1.2,1.1-2.2,1.4-3,1.4c-1.6,0-2.6-0.8-2.8-1.1c-0.6-0.6-1.1-1.5-1.1-2.9c0-1.3,0.5-2.3,1.2-3s1.6-1,2.7-1
					c1.4,0,2.4,0.7,3.1,1.4v-3.5c-1.3-0.6-2.3-0.7-3.1-0.7C-186.2,325.8-187.9,326.6-189,327.7z"/>
				<polygon class="st1" points="-171.8,331.1 -177,331.1 -177,326.1 -180,326.1 -180,339.2 -177,339.2 -177,333.7 -171.8,333.7 
					-171.8,339.2 -168.8,339.2 -168.8,326.1 -171.8,326.1 				"/>
				<path class="st1" d="M-145,326.1l-3.3,7.8l-3.3-7.8h-2.5l-1.9,12l-4.7-12h-2.8l-5.3,13.1h3.1l1-2.5h5l1,2.5h2.5h0.6h2.4l1-7.8
					l3.3,7.8h1.1l3.3-7.8l1,7.8h3l-2-13.1H-145z M-163.7,334.4l1.6-4.4l1.6,4.4H-163.7z"/>
				<path class="st1" d="M-135,326.1h-4.6v13.1h3v-4.6h1.8c0.9,0,2.3-0.1,3.3-1.2c0.5-0.5,1.1-1.4,1.1-3.1c0-0.9-0.2-2.2-1.3-3.2
					C-132.6,326.3-133.8,326.1-135,326.1z M-133.8,331.6c-0.5,0.5-1.2,0.5-1.6,0.5h-1.1v-3.6h1c0.6,0,1.2,0.1,1.7,0.5
					c0.3,0.3,0.5,0.7,0.5,1.3C-133.4,330.9-133.6,331.4-133.8,331.6z"/>
				<rect x="-129.8" y="326.1" class="st1" width="3" height="13.1"/>
				<path class="st1" d="M-118.7,325.8c-2.6,0-4.2,1-5.1,1.9c-1.2,1.2-2,3.1-2,5s0.8,3.7,2,4.9c1,0.9,2.7,1.9,5.1,1.9
					c2.2,0,3.9-0.7,5.1-1.9c1.4-1.4,2-3.2,2-4.9c0-2-0.8-3.8-2-5C-115,326.4-116.7,325.8-118.7,325.8z M-115.9,335.6
					c-0.6,0.6-1.6,1.1-2.9,1.1c-1,0-2-0.3-2.8-1.1c-0.8-0.8-1.2-1.7-1.2-2.9c0-1.5,0.6-2.4,1.2-3c0.7-0.7,1.7-1.1,2.9-1.1
					s2.2,0.5,2.9,1.1c0.6,0.6,1.1,1.6,1.1,2.9C-114.7,334.2-115.3,335.1-115.9,335.6z"/>
				<polygon class="st1" points="-101.1,334.6 -108.2,326.1 -110.8,326.1 -110.8,339.2 -107.8,339.2 -107.8,330.7 -100.7,339.2 
					-98,339.2 -98,326.1 -101.1,326.1 				"/>
				<path class="st1" d="M-90.8,331.5l-1-0.4c-0.9-0.3-1.3-0.5-1.7-0.7c-0.2-0.2-0.3-0.4-0.3-0.7c0-0.3,0.1-0.6,0.3-0.8
					c0.4-0.4,0.9-0.5,1.3-0.5s1.2,0.1,2.2,0.9l1.4-2.2c-1.5-1.1-3-1.3-3.9-1.3c-1.2,0-2.3,0.3-3.2,1.2c-0.8,0.8-1.1,1.8-1.1,2.9
					c0,0.6,0.1,1.6,0.8,2.3c0.5,0.6,1.2,0.8,1.8,1l1.1,0.4c0.4,0.1,1.2,0.4,1.5,0.7c0.3,0.2,0.5,0.5,0.5,0.9c0,0.5-0.2,0.8-0.5,1.1
					c-0.4,0.4-1,0.5-1.4,0.5c-0.6,0-1.1-0.2-1.7-0.5c-0.4-0.2-0.9-0.7-1.2-1l-1.6,2.2c0.5,0.5,1.3,1.1,1.9,1.4
					c0.8,0.4,1.7,0.6,2.6,0.6s2.6-0.1,3.7-1.3c0.7-0.7,1.2-1.9,1.2-3.2c0-0.8-0.2-1.7-1-2.4C-89.5,332-90.2,331.7-90.8,331.5z"/>
				<polygon class="st1" points="-79.1,331.1 -84.3,331.1 -84.3,326.1 -87.3,326.1 -87.3,339.2 -84.3,339.2 -84.3,333.7 
					-79.1,333.7 -79.1,339.2 -76,339.2 -76,326.1 -79.1,326.1 				"/>
				<rect x="-74.6" y="326.1" class="st1" width="3" height="13.1"/>
				<path class="st1" d="M-62,327.2c-1-0.9-2.3-1.1-3.4-1.1H-70v13.1h3v-4.6h1.8c0.9,0,2.3-0.1,3.3-1.2c0.5-0.5,1.1-1.4,1.1-3.1
					C-60.8,329.5-60.9,328.2-62,327.2z M-64.3,331.6c-0.5,0.5-1.2,0.5-1.6,0.5H-67v-3.6h1c0.6,0,1.2,0.1,1.7,0.5
					c0.3,0.3,0.5,0.7,0.5,1.3C-63.9,330.9-64.1,331.4-64.3,331.6z"/>
			</g>
		</g>
	</g>
</g>
</svg>
