<?xml version="1.0" encoding="utf-8"?>
<!-- Generator: Adobe Illustrator 19.1.0, SVG Export Plug-In . SVG Version: 6.00 Build 0)  -->
<svg version="1.1" id="Layer_1" xmlns="http://www.w3.org/2000/svg" xmlns:xlink="http://www.w3.org/1999/xlink" x="0px" y="0px"
	 viewBox="-248 284.1 294.3 45.9" style="enable-background:new -248 284.1 294.3 45.9;" xml:space="preserve">
<style type="text/css">
	.st0{fill:none;}
	.st1{fill:#FBB040;}
	.st2{fill:#231F20;}
	.st3{fill:#58595B;}
	.st4{fill:#020000;}
</style>
<g>
	<path class="st0" d="M-224.2,321.1L-224.2,321.1L-224.2,321.1z"/>
	<polygon class="st0" points="-219.6,293.1 -228,293.1 -223.8,300.2 	"/>
	<polygon class="st0" points="-230.8,312 -230.8,311.9 -230.8,311.9 	"/>
	<polygon class="st0" points="-218.1,311 -218.1,311 -212.1,321.1 -212.1,321.1 	"/>
	<polygon class="st0" points="-228.8,293.1 -228.8,293.1 -224.2,300.8 -224.2,300.8 	"/>
	<polygon class="st1" points="-225.7,303.4 -224.2,300.8 -228.8,293.1 -237.5,293.1 -238.4,294.6 -244.6,284.1 -246.2,284.1 
		-230.2,311 	"/>
	<polygon class="st1" points="-224.2,321.1 -224.2,321.1 -212.1,321.1 -218.1,311 	"/>
	<polygon class="st2" points="-218.1,311 -221.4,305.5 -222.3,304 -222.3,303.9 -224.2,300.8 -224.2,300.8 	"/>
	<path class="st2" d="M-212.1,321.1l4.8,8.2L-212.1,321.1z"/>
	<polygon class="st3" points="-209.1,284.1 -232.2,284.1 -232.8,285.1 -228,293.1 -219.6,293.1 -223.8,300.2 -221.9,303.3 
		-215.8,293.1 -212.4,287.4 -209.1,293 -208.3,294.4 -202.1,284.1 	"/>
	<polygon class="st2" points="-233.1,285.7 -237.5,293.1 -228.8,293.1 -228.8,293.1 	"/>
	<polygon class="st3" points="-207.3,329.3 -212.1,321.1 -224.2,321.1 -224.2,321.1 -224.2,321.1 -225.1,319.4 -225.7,320.4 
		-230.8,311.9 -230.8,312 -231.1,312.5 -236.2,321.1 -241.5,330 -225.7,330 -228.6,325.2 -226.1,321.1 -225.7,320.4 -225.3,321.1 
		-222.9,325.2 -225.7,330 -206.8,330 	"/>
	<polygon class="st3" points="-230.8,311.9 -230.8,311.9 -230.2,311 -230.2,311 -230.8,311.9 	"/>
	<polygon class="st3" points="-225.7,303.4 -225.7,303.4 -230.2,311 -230.2,311 	"/>
	<polygon class="st2" points="-224.2,300.8 -225.7,303.4 -230.2,311 -230.8,311.9 -225.7,320.4 -225.1,319.4 -224.2,321.1 
		-218.1,311 	"/>
	<polygon class="st3" points="-230.8,311.9 -230.8,311.9 -230.8,311.9 -247.3,284.1 -248,284.1 -231.1,312.5 -230.8,312 	"/>
	<polygon class="st3" points="-230.8,312 -231.1,312.5 -231.1,312.5 	"/>
	<polygon class="st3" points="-230.8,311.9 -230.8,311.9 -230.8,311.9 	"/>
</g>
<g>
	<g>
		<polygon class="st1" points="-170.8,306.5 -166.9,306.5 -163.2,300.8 -174.3,300.8 -174.3,303.6 -169,303.6 		"/>
		<polygon class="st1" points="-167.1,306.9 -171.1,306.9 -173.1,310.1 -174.7,312.5 -175.7,314 -164,314 -164,311.1 -169.9,311.1 
					"/>
	</g>
	<path class="st3" d="M-207.5,307.7v-2.8h7.1c0,0.1,0,0.2,0,0.3s0,0.3,0,0.5c0,2.3-0.6,4-1.8,5.3c-1.2,1.3-2.9,1.9-5.1,1.9
		c-1.1,0-2-0.2-2.9-0.5c-0.8-0.3-1.6-0.8-2.2-1.5c-0.6-0.6-1.1-1.4-1.5-2.2c-0.3-0.9-0.5-1.8-0.5-2.7c0-1,0.2-1.9,0.5-2.7
		c0.3-0.8,0.8-1.6,1.5-2.2c0.7-0.6,1.4-1.1,2.3-1.5c0.9-0.3,1.8-0.5,2.8-0.5c1.3,0,2.4,0.3,3.4,0.8s1.8,1.3,2.5,2.3l-3.1,1.5
		c-0.4-0.5-0.8-0.9-1.3-1.1s-1-0.4-1.6-0.4c-1.1,0-1.9,0.4-2.5,1.1c-0.6,0.7-0.9,1.7-0.9,2.9c0,1.3,0.3,2.2,0.9,3
		c0.6,0.7,1.5,1.1,2.5,1.1c0.9,0,1.7-0.2,2.3-0.7c0.6-0.4,1-1,1.1-1.8h-3.5V307.7z"/>
	<path class="st3" d="M-199.7,312.5v-11.8h3.3v11.8C-196.4,312.5-199.7,312.5-199.7,312.5z"/>
	<path class="st3" d="M-189.7,308.2v-2.5h6.3c0,0.1,0,0.2,0,0.3s0,0.2,0,0.4c0,2-0.5,3.6-1.6,4.7s-2.6,1.7-4.5,1.7
		c-1,0-1.8-0.1-2.6-0.4c-0.7-0.3-1.4-0.7-2-1.3c-0.6-0.6-1-1.2-1.3-2c-0.3-0.8-0.5-1.6-0.5-2.4c0-0.9,0.2-1.7,0.5-2.4
		c0.3-0.7,0.8-1.4,1.3-2c0.6-0.6,1.3-1,2-1.3c0.8-0.3,1.6-0.4,2.5-0.4c1.2,0,2.2,0.2,3.1,0.7s1.6,1.1,2.2,2l-2.8,1.3
		c-0.3-0.5-0.7-0.8-1.1-1c-0.4-0.2-0.9-0.3-1.4-0.3c-1,0-1.7,0.3-2.3,1c-0.6,0.6-0.8,1.5-0.8,2.6c0,1.1,0.3,2,0.8,2.7
		c0.6,0.6,1.3,1,2.3,1c0.8,0,1.5-0.2,2-0.6c0.5-0.4,0.9-0.9,1-1.6h-3.1V308.2z"/>
	<path class="st0" d="M-178.1,303.7c-0.1-0.3-0.1-0.6-0.3-1c-0.1,0.3-0.1,0.6-0.2,0.8c-0.1,0.3-0.1,0.5-0.2,0.8l-1.2,3.8h3.2
		l-1.2-3.9C-178,304.1-178,303.9-178.1,303.7z"/>
	<path class="st3" d="M-176.4,300.7h-4l-4.1,11.8h3.2l0.6-2.1h4.6l0.6,2.1h0.7l1.6-2.5L-176.4,300.7z M-180,308.1l1.2-3.9
		c0.1-0.2,0.1-0.5,0.2-0.8c0.1-0.3,0.1-0.5,0.2-0.8c0.1,0.4,0.2,0.8,0.3,1c0.1,0.3,0.1,0.5,0.1,0.6l1.2,3.9H-180z"/>
	<polygon class="st4" points="-173.1,310.1 -174.7,312.5 -172.3,312.5 	"/>
	<g>
		<path class="st1" d="M-148.1,306.5c0-0.2,0-0.5,0-0.8c0-0.4-0.1-0.8-0.1-1.3c0.2,0.5,0.4,0.9,0.6,1.3c0.2,0.4,0.3,0.6,0.4,0.7l0,0
			h3.3l-4.2-5.7h-3.1v5.7L-148.1,306.5L-148.1,306.5z"/>
		<rect x="-142.7" y="300.7" class="st1" width="3.1" height="5.7"/>
		<rect x="-151.2" y="306.9" class="st1" width="3.1" height="5.7"/>
		<path class="st1" d="M-142.7,306.9c0,0.2,0,0.5,0,0.7c0,0.4,0.1,0.8,0.1,1.3c-0.2-0.5-0.5-1-0.7-1.3c-0.2-0.3-0.3-0.6-0.4-0.7
			h-3.3l4.2,5.7h3.1v-5.7H-142.7z"/>
	</g>
	<g>
		<polygon class="st1" points="-135.2,307.9 -131.4,307.9 -131.4,306.9 -138.4,306.9 -138.4,312.5 -131.1,312.5 -131.1,309.9 
			-135.2,309.9 		"/>
		<polygon class="st1" points="-138.4,300.7 -138.4,306.5 -131.4,306.5 -131.4,305.4 -135.2,305.4 -135.2,303.3 -131.1,303.3 
			-131.1,300.7 		"/>
	</g>
	<g>
		<path class="st1" d="M-155,306.9c0,0.9-0.3,1.7-0.9,2.3c-0.5,0.6-1.2,0.9-2,1v2.7c0.8,0,1.5-0.2,2.2-0.5c0.8-0.3,1.5-0.8,2.1-1.3
			c0.6-0.6,1.1-1.3,1.4-2c0.3-0.7,0.4-1.4,0.5-2.2H-155z"/>
		<path class="st1" d="M-155.9,304.2c0.6,0.6,0.8,1.4,0.9,2.3h3.2c0-0.8-0.2-1.5-0.5-2.2c-0.3-0.7-0.8-1.4-1.4-2
			c-0.6-0.6-1.3-1-2.1-1.3c-0.7-0.3-1.5-0.4-2.2-0.5v2.7C-157.1,303.2-156.4,303.6-155.9,304.2z"/>
	</g>
	<g>
		<polygon class="st1" points="-170.8,306.5 -166.9,306.5 -163.2,300.8 -174.3,300.8 -174.3,303.6 -169,303.6 		"/>
		<polygon class="st1" points="-167.1,306.9 -171.1,306.9 -173.1,310.1 -172.3,312.5 -174.7,312.5 -175.7,314 -164,314 -164,311.1 
			-169.9,311.1 		"/>
	</g>
	<g>
		<path class="st1" d="M-160.3,309.2c-0.5-0.6-0.8-1.4-0.9-2.3h-3.2c0,0.8,0.2,1.5,0.5,2.2c0.3,0.7,0.8,1.4,1.4,2s1.3,1,2,1.3
			c0.7,0.3,1.4,0.4,2.2,0.5v-2.8C-159.1,310.1-159.8,309.8-160.3,309.2z"/>
		<path class="st1" d="M-160.5,300.9c-0.8,0.3-1.5,0.8-2,1.3c-0.6,0.6-1.1,1.3-1.4,2c-0.3,0.7-0.4,1.4-0.5,2.2h3.2
			c0-0.9,0.3-1.7,0.9-2.3c0.5-0.6,1.2-0.9,2-1v-2.7C-159.1,300.5-159.8,300.6-160.5,300.9z"/>
	</g>
	<g>
		<path class="st1" d="M-130.1,302.2v-1.1h-0.3v-0.3h1.1v0.3h-0.3v1.1H-130.1z"/>
		<path class="st1" d="M-127.5,302.2h-0.4l-0.1-0.6v-0.1c0-0.1,0-0.1,0-0.2c0,0.1,0,0.1-0.1,0.2l0,0l-0.2,0.7h-0.3l-0.2-0.7l0,0
			c0-0.1,0-0.2-0.1-0.2c0,0.1,0,0.1,0,0.2s0,0.1,0,0.2l-0.1,0.6h-0.4l0.2-1.5h0.4l0.2,0.8l0,0c0,0.1,0,0.1,0,0.2v-0.1v-0.1l0.2-0.8
			h0.4L-127.5,302.2z"/>
	</g>
</g>
<g>
	<path class="st2" d="M-119.1,306h5.4v0.1c0,1.3-0.5,3.3-1.7,4.5s-2.6,1.5-3.9,1.5c-1.3,0-2.7-0.2-4-1.5c-0.6-0.6-1.6-2-1.6-4.1
		c0-1.8,0.6-3.2,1.6-4.1c1.3-1.4,3-1.6,4.2-1.6c0.9,0,2,0.1,3,0.8c0.7,0.5,1.4,1.2,1.7,1.9l-2.3,1.2c-0.2-0.4-0.5-0.9-1-1.2
		c-0.5-0.4-1-0.5-1.7-0.5c-1,0-1.7,0.3-2.2,0.9c-0.6,0.6-0.9,1.6-0.9,2.6c0,1.2,0.5,2,0.9,2.5c0.6,0.6,1.4,0.8,2.2,0.8
		c1.1,0,1.6-0.4,1.9-0.6c0.1-0.1,0.6-0.5,0.8-1.3h-2.6V306H-119.1z"/>
	<path class="st2" d="M-107.1,309.9h-4.1l-0.8,2h-2.6l4.4-10.8h2.3l4.3,10.8h-2.6L-107.1,309.9z M-107.8,308l-1.3-3.6l-1.3,3.6
		H-107.8z"/>
	<path class="st2" d="M-104.2,311.9l1.7-10.8h2.1l2.7,6.5l2.7-6.5h2.1l1.7,10.8h-2.5l-0.9-6.4l-2.7,6.4h-0.9l-2.7-6.4l-0.9,6.4
		H-104.2z"/>
	<path class="st2" d="M-88,301.1v10.8h-2.5v-10.8H-88z"/>
	<path class="st2" d="M-86.9,311.9v-10.8h2.2l5.9,7v-7h2.5v10.8h-2.2l-5.9-7v7H-86.9z"/>
	<path class="st2" d="M-70,306h5.4v0.1c0,1.3-0.5,3.3-1.7,4.5s-2.6,1.5-3.9,1.5c-1.3,0-2.7-0.2-4-1.5c-0.6-0.6-1.6-2-1.6-4.1
		c0-1.8,0.6-3.2,1.6-4.1c1.3-1.4,3-1.6,4.2-1.6c0.9,0,2,0.1,3,0.8c0.7,0.5,1.4,1.2,1.7,1.9l-2.3,1.2c-0.2-0.4-0.5-0.9-1-1.2
		c-0.5-0.4-1-0.5-1.7-0.5c-1,0-1.7,0.3-2.2,0.9c-0.6,0.6-0.9,1.6-0.9,2.6c0,1.2,0.5,2,0.9,2.5c0.6,0.6,1.4,0.8,2.2,0.8
		c1.1,0,1.6-0.4,1.9-0.6c0.1-0.1,0.6-0.5,0.8-1.3H-70V306z"/>
</g>
<g>
	<path class="st2" d="M-52.7,311.6c-1,0.5-1.7,0.6-2.4,0.6c-2,0-3.3-0.7-4.2-1.6c-1-0.9-1.7-2.4-1.7-4.1c0-1.7,0.7-3.1,1.7-4.1
		c1-0.9,2.3-1.6,4-1.6c0.7,0,1.5,0.1,2.6,0.6v2.9c-0.6-0.6-1.4-1.1-2.5-1.1c-0.9,0-1.6,0.3-2.2,0.8c-0.6,0.6-1,1.5-1,2.5
		c0,1.1,0.5,1.9,0.9,2.4c0.2,0.2,1,0.9,2.3,0.9c0.6,0,1.5-0.2,2.5-1.1L-52.7,311.6L-52.7,311.6z"/>
	<path class="st2" d="M-49.4,305.2h4.3v-4.1h2.5v10.8h-2.5v-4.6h-4.3v4.6h-2.5v-10.8h2.5V305.2z"/>
	<path class="st2" d="M-35.1,309.9h-4.1l-0.8,2h-2.6l4.4-10.8h2.3l4.3,10.8h-2.6L-35.1,309.9z M-35.8,308l-1.3-3.6l-1.3,3.6H-35.8z"
		/>
	<path class="st2" d="M-32.2,311.9l1.7-10.8h2.1l2.7,6.5l2.7-6.5h2.1l1.7,10.8h-2.5l-0.9-6.4l-2.7,6.4h-0.9l-2.7-6.4l-0.9,6.4H-32.2
		z"/>
	<path class="st2" d="M-14.8,301.1c0.9,0,2,0.1,2.8,0.9c0.9,0.8,1.1,1.9,1.1,2.6c0,1.4-0.5,2.1-0.9,2.5c-0.9,0.9-2,1-2.8,1h-1.5v3.8
		h-2.5v-10.8H-14.8z M-16.1,306.1h0.9c0.3,0,0.9,0,1.3-0.4c0.2-0.2,0.4-0.6,0.4-1.1s-0.2-0.8-0.4-1.1c-0.4-0.4-0.9-0.4-1.4-0.4h-0.8
		V306.1z"/>
	<path class="st2" d="M-8,301.1v10.8h-2.5v-10.8H-8z"/>
	<path class="st2" d="M2.7,302.4c1,1,1.7,2.4,1.7,4.1c0,1.4-0.5,2.9-1.7,4c-1,1-2.4,1.6-4.2,1.6c-2,0-3.4-0.8-4.2-1.6
		c-1-1-1.7-2.4-1.7-4s0.7-3.1,1.7-4.1c0.7-0.7,2.1-1.6,4.2-1.6C0.3,300.9,1.7,301.4,2.7,302.4z M-3.8,304.1c-0.5,0.5-1,1.2-1,2.4
		c0,1,0.3,1.8,1,2.4c0.7,0.7,1.5,0.9,2.3,0.9c1.1,0,1.9-0.4,2.4-0.9c0.4-0.4,0.9-1.2,0.9-2.4c0-1.1-0.5-1.9-0.9-2.4
		c-0.5-0.5-1.4-0.9-2.4-0.9C-2.4,303.2-3.2,303.5-3.8,304.1z"/>
	<path class="st2" d="M5.1,311.9v-10.8h2.2l5.9,7v-7h2.5v10.8h-2.2l-5.9-7v7H5.1z"/>
	<path class="st2" d="M22.3,303.8c-0.8-0.7-1.5-0.8-1.8-0.8s-0.8,0-1.1,0.4c-0.2,0.2-0.3,0.4-0.3,0.7s0.1,0.5,0.2,0.6
		c0.3,0.2,0.6,0.3,1.4,0.6l0.8,0.3c0.5,0.2,1.1,0.4,1.5,0.8c0.6,0.6,0.8,1.4,0.8,2c0,1.1-0.4,2.1-1,2.7c-1,1-2.3,1.1-3.1,1.1
		c-0.8,0-1.5-0.1-2.1-0.5c-0.6-0.3-1.2-0.8-1.6-1.2l1.3-1.8c0.3,0.3,0.7,0.6,1,0.8c0.4,0.3,0.9,0.4,1.4,0.4c0.3,0,0.8-0.1,1.1-0.4
		c0.2-0.2,0.4-0.5,0.4-0.9s-0.1-0.6-0.4-0.8c-0.3-0.2-1-0.5-1.3-0.6l-0.9-0.3c-0.5-0.2-1.1-0.4-1.5-0.9c-0.6-0.6-0.6-1.4-0.6-1.9
		c0-1,0.3-1.8,0.9-2.4c0.8-0.8,1.7-1,2.7-1c0.7,0,1.9,0.1,3.2,1.1L22.3,303.8z"/>
	<path class="st2" d="M26.9,305.2h4.3v-4.1h2.5v10.8h-2.5v-4.6h-4.3v4.6h-2.5v-10.8h2.5V305.2z"/>
	<path class="st2" d="M37.4,301.1v10.8h-2.5v-10.8H37.4z"/>
	<path class="st2" d="M42.4,301.1c0.9,0,2,0.1,2.8,0.9c0.9,0.8,1.1,1.9,1.1,2.6c0,1.4-0.5,2.1-0.9,2.5c-0.9,0.9-2,1-2.8,1h-1.5v3.8
		h-2.5v-10.8H42.4z M41.1,306.1H42c0.3,0,0.9,0,1.3-0.4c0.2-0.2,0.4-0.6,0.4-1.1s-0.2-0.8-0.4-1.1c-0.4-0.4-0.9-0.4-1.4-0.4h-0.8
		V306.1z"/>
</g>
</svg>
