<?xml version="1.0" encoding="utf-8"?>
<!-- Generator: Adobe Illustrator 19.1.0, SVG Export Plug-In . SVG Version: 6.00 Build 0)  -->
<svg version="1.1" id="Layer_1" xmlns="http://www.w3.org/2000/svg" xmlns:xlink="http://www.w3.org/1999/xlink" x="0px" y="0px"
	 viewBox="-291.4 289.5 329.3 74.3" style="enable-background:new -291.4 289.5 329.3 74.3;" xml:space="preserve">
<style type="text/css">
	.st0{fill:none;}
	.st1{fill:#FBB040;}
	.st2{fill:#231F20;}
	.st3{fill:#58595B;}
	.st4{fill:#FFFFFF;}
</style>
<rect x="-291.4" y="289.5" class="st0" width="329.3" height="74.3"/>
<g>
	<g>
		<g>
			<polygon class="st1" points="-178.4,322.1 -172.8,322.1 -167.5,314 -183.5,314 -183.5,318.1 -175.8,318.1 			"/>
			<polygon class="st1" points="-173.2,322.7 -178.8,322.7 -181.8,327.3 -184.1,330.9 -185.4,332.9 -168.6,332.9 -168.6,328.8 
				-177.1,328.8 			"/>
		</g>
		<path class="st2" d="M-231.2,323.9v-4h10.2c0,0.1,0,0.3,0,0.4c0,0.2,0,0.4,0,0.7c0,3.3-0.9,5.8-2.6,7.6c-1.7,1.8-4.2,2.7-7.3,2.7
			c-1.5,0-2.9-0.2-4.1-0.7c-1.2-0.5-2.3-1.2-3.2-2.1c-0.9-0.9-1.6-2-2.1-3.2c-0.5-1.2-0.7-2.5-0.7-3.9c0-1.4,0.2-2.7,0.7-3.9
			c0.5-1.2,1.2-2.3,2.2-3.2c1-0.9,2-1.6,3.3-2.1c1.2-0.5,2.6-0.7,4-0.7c1.9,0,3.5,0.4,4.9,1.1s2.6,1.8,3.6,3.3l-4.5,2.2
			c-0.5-0.7-1.1-1.3-1.8-1.6c-0.7-0.4-1.4-0.5-2.3-0.5c-1.5,0-2.8,0.5-3.7,1.6c-0.9,1-1.3,2.4-1.3,4.2c0,1.8,0.4,3.2,1.3,4.3
			c0.9,1,2.1,1.6,3.7,1.6c1.3,0,2.4-0.3,3.3-1c0.9-0.6,1.4-1.5,1.5-2.6H-231.2z"/>
		<path class="st2" d="M-220,330.9v-17h4.7v17H-220z"/>
		<path class="st2" d="M-205.5,324.6V321h9.1c0,0.1,0,0.2,0,0.4c0,0.1,0,0.3,0,0.6c0,2.9-0.8,5.2-2.3,6.8c-1.5,1.6-3.7,2.4-6.5,2.4
			c-1.4,0-2.6-0.2-3.7-0.6c-1.1-0.4-2-1-2.9-1.9c-0.8-0.8-1.4-1.8-1.9-2.9c-0.4-1.1-0.7-2.3-0.7-3.5c0-1.3,0.2-2.4,0.7-3.5
			c0.4-1.1,1.1-2,1.9-2.9c0.9-0.8,1.8-1.5,2.9-1.9c1.1-0.4,2.3-0.6,3.6-0.6c1.7,0,3.1,0.3,4.4,1c1.3,0.7,2.4,1.6,3.2,2.9l-4,1.9
			c-0.5-0.7-1-1.1-1.6-1.5c-0.6-0.3-1.3-0.5-2-0.5c-1.4,0-2.5,0.5-3.3,1.4c-0.8,0.9-1.2,2.2-1.2,3.8c0,1.6,0.4,2.9,1.2,3.8
			c0.8,0.9,1.9,1.4,3.3,1.4c1.2,0,2.2-0.3,2.9-0.9c0.8-0.6,1.2-1.3,1.4-2.3H-205.5z"/>
		<path class="st0" d="M-188.9,318.1c-0.1-0.4-0.2-0.9-0.4-1.5c-0.1,0.4-0.2,0.8-0.3,1.2c-0.1,0.4-0.2,0.7-0.3,1.1l-1.7,5.6h4.6
			l-1.7-5.6C-188.8,318.7-188.8,318.5-188.9,318.1z"/>
		<path class="st2" d="M-186.4,313.9h-5.8l-5.9,17h4.6l0.9-3h6.6l0.9,3h1.1l2.3-3.6L-186.4,313.9z M-191.6,324.5l1.7-5.6
			c0.1-0.3,0.2-0.7,0.3-1.1c0.1-0.4,0.2-0.8,0.3-1.2c0.1,0.6,0.3,1.1,0.4,1.5c0.1,0.4,0.2,0.7,0.2,0.8l1.7,5.6H-191.6z"/>
		<polygon class="st2" points="-181.8,327.3 -184.1,330.9 -180.5,330.9 		"/>
		<g>
			<path class="st1" d="M-145.7,322.1c0-0.3,0-0.7-0.1-1.1c0-0.5-0.1-1.2-0.2-1.9c0.3,0.7,0.6,1.4,0.9,1.9c0.3,0.5,0.5,0.9,0.6,1.1
				l0,0h4.8l-6.1-8.2h-4.5v8.2H-145.7z"/>
			<rect x="-138" y="313.9" class="st1" width="4.4" height="8.2"/>
			<rect x="-150.2" y="322.7" class="st1" width="4.5" height="8.2"/>
			<path class="st1" d="M-138,322.7c0,0.3,0,0.7,0.1,1c0,0.5,0.1,1.2,0.2,1.9c-0.3-0.7-0.7-1.4-0.9-1.9c-0.2-0.5-0.4-0.8-0.6-1h-4.8
				l6,8.2h4.4v-8.2H-138z"/>
		</g>
		<g>
			<polygon class="st1" points="-127.2,324.2 -121.7,324.2 -121.7,322.7 -131.8,322.7 -131.8,330.9 -121.3,330.9 -121.3,327.1 
				-127.2,327.1 			"/>
			<polygon class="st1" points="-131.8,313.9 -131.8,322.1 -121.7,322.1 -121.7,320.5 -127.2,320.5 -127.2,317.6 -121.3,317.6 
				-121.3,313.9 			"/>
		</g>
		<g>
			<path class="st1" d="M-155.7,322.7c-0.1,1.3-0.5,2.4-1.2,3.3c-0.8,0.9-1.7,1.3-2.9,1.4v3.9c1.1,0,2.2-0.3,3.2-0.7
				c1.1-0.5,2.1-1.1,3-1.9c0.9-0.8,1.5-1.8,2-2.9c0.4-1,0.6-2,0.7-3.2H-155.7z"/>
			<path class="st1" d="M-157,318.8c0.8,0.9,1.2,2,1.3,3.3h4.6c0-1.1-0.3-2.2-0.7-3.2c-0.5-1.1-1.1-2-2-2.9c-0.9-0.8-1.8-1.5-3-1.9
				c-1-0.4-2.1-0.6-3.2-0.7v3.9C-158.7,317.5-157.7,317.9-157,318.8z"/>
		</g>
		<g>
			<polygon class="st1" points="-178.4,322.1 -172.8,322.1 -167.5,314 -183.5,314 -183.5,318.1 -175.8,318.1 			"/>
			<polygon class="st1" points="-173.2,322.7 -178.8,322.7 -181.8,327.3 -180.5,330.9 -184.1,330.9 -185.4,332.9 -168.6,332.9 
				-168.6,328.8 -177.1,328.8 			"/>
		</g>
		<g>
			<path class="st1" d="M-163.3,326c-0.8-0.9-1.2-2-1.2-3.3h-4.7c0,1.1,0.3,2.1,0.7,3.1c0.5,1.1,1.1,2,2,2.9
				c0.8,0.8,1.8,1.5,2.9,1.9c1,0.4,2.1,0.6,3.2,0.7v-3.9C-161.6,327.3-162.6,326.9-163.3,326z"/>
			<path class="st1" d="M-163.6,314.2c-1.1,0.5-2.1,1.1-2.9,1.9c-0.9,0.8-1.5,1.8-2,2.9c-0.4,1-0.6,2-0.7,3.1h4.7
				c0.1-1.3,0.5-2.4,1.2-3.3c0.8-0.9,1.7-1.3,2.9-1.4v-3.9C-161.5,313.5-162.6,313.7-163.6,314.2z"/>
		</g>
		<g>
			<path class="st1" d="M-119.9,316v-1.6h-0.5v-0.5h1.5v0.5h-0.5v1.6H-119.9z"/>
			<path class="st1" d="M-116.1,316h-0.5l-0.1-0.9c0-0.1,0-0.1,0-0.2c0-0.1,0-0.2,0-0.3c0,0.1,0,0.2-0.1,0.3c0,0,0,0,0,0.1l-0.3,1
				h-0.4l-0.3-1c0,0,0,0,0-0.1c0-0.1-0.1-0.2-0.1-0.3c0,0.1,0,0.2,0,0.2c0,0.1,0,0.2,0,0.2l-0.1,0.9h-0.5l0.3-2.1h0.6l0.3,1.1
				c0,0,0,0,0,0c0,0.1,0,0.2,0.1,0.3c0,0,0-0.1,0-0.1c0,0,0-0.1,0-0.2l0.3-1.1h0.6L-116.1,316z"/>
		</g>
	</g>
	<g>
		<path class="st2" d="M-219.8,345.7h7.7v0.2c0,1.9-0.7,4.8-2.4,6.5c-1.7,1.8-3.7,2.1-5.5,2.1c-1.9,0-3.9-0.3-5.7-2.2
			c-0.9-0.9-2.3-2.8-2.3-5.9c0-2.5,0.9-4.6,2.2-5.9c1.9-2,4.3-2.3,6.1-2.3c1.3,0,2.9,0.2,4.4,1.2c1,0.7,2,1.8,2.5,2.8l-3.2,1.7
			c-0.3-0.6-0.8-1.2-1.4-1.7c-0.7-0.5-1.5-0.7-2.4-0.7c-1.4,0-2.5,0.5-3.2,1.3c-0.9,0.9-1.3,2.2-1.3,3.7c0,1.8,0.7,2.9,1.3,3.6
			c0.9,0.9,2,1.2,3.1,1.2c1.5,0,2.4-0.5,2.7-0.8c0.1-0.1,0.8-0.7,1.1-1.8h-3.8V345.7z"/>
		<path class="st2" d="M-202.5,351.2h-5.9l-1.2,2.9h-3.7l6.3-15.5h3.3l6.1,15.5h-3.7L-202.5,351.2z M-203.5,348.5l-1.9-5.2l-1.9,5.2
			H-203.5z"/>
		<path class="st2" d="M-198.4,354.2l2.5-15.5h3l3.9,9.3l3.9-9.3h3l2.5,15.5h-3.6l-1.2-9.3l-3.9,9.3h-1.3l-3.9-9.3l-1.2,9.3H-198.4z
			"/>
		<path class="st2" d="M-175.1,338.6v15.5h-3.6v-15.5H-175.1z"/>
		<path class="st2" d="M-173.4,354.2v-15.5h3.1l8.4,10v-10h3.6v15.5h-3.1l-8.4-10.1v10.1H-173.4z"/>
		<path class="st2" d="M-149.1,345.7h7.7v0.2c0,1.9-0.7,4.8-2.4,6.5c-1.7,1.8-3.7,2.1-5.5,2.1c-1.9,0-3.9-0.3-5.7-2.2
			c-0.9-0.9-2.3-2.8-2.3-5.9c0-2.5,0.9-4.6,2.2-5.9c1.9-2,4.3-2.3,6.1-2.3c1.3,0,2.9,0.2,4.4,1.2c1,0.7,2,1.8,2.5,2.8l-3.2,1.7
			c-0.3-0.6-0.8-1.2-1.4-1.7c-0.7-0.5-1.5-0.7-2.4-0.7c-1.4,0-2.5,0.5-3.2,1.3c-0.9,0.9-1.3,2.2-1.3,3.7c0,1.8,0.7,2.9,1.3,3.6
			c0.9,0.9,2,1.2,3.1,1.2c1.5,0,2.4-0.5,2.7-0.8c0.1-0.1,0.8-0.7,1.1-1.8h-3.7V345.7z"/>
	</g>
	<g>
		<path class="st2" d="M-122,353.7c-1.4,0.7-2.5,0.8-3.4,0.8c-2.9,0-4.8-1-6.1-2.3c-1.4-1.4-2.4-3.4-2.4-5.9c0-2.4,1-4.5,2.4-5.8
			c1.4-1.3,3.4-2.2,5.8-2.2c1,0,2.2,0.2,3.7,0.9v4.1c-0.8-0.8-2-1.7-3.6-1.7c-1.3,0-2.4,0.4-3.2,1.2c-0.9,0.8-1.5,2.1-1.5,3.6
			c0,1.6,0.7,2.7,1.4,3.4c0.3,0.3,1.4,1.3,3.4,1.3c0.9,0,2.2-0.3,3.6-1.6V353.7z"/>
		<path class="st2" d="M-117.3,344.6h6.2v-5.9h3.6v15.5h-3.6v-6.6h-6.2v6.6h-3.6v-15.5h3.6V344.6z"/>
		<path class="st2" d="M-96.8,351.2h-5.9l-1.2,2.9h-3.7l6.3-15.5h3.3l6.1,15.5h-3.7L-96.8,351.2z M-97.7,348.5l-1.9-5.2l-1.9,5.2
			H-97.7z"/>
		<path class="st2" d="M-92.6,354.2l2.5-15.5h3l3.9,9.3l3.9-9.3h3l2.5,15.5h-3.6l-1.2-9.3l-3.9,9.3h-1.3l-3.9-9.3l-1.2,9.3H-92.6z"
			/>
		<path class="st2" d="M-67.5,338.6c1.4,0,2.8,0.2,4.1,1.3c1.3,1.2,1.5,2.7,1.5,3.8c0,2-0.7,3.1-1.3,3.7c-1.2,1.3-2.9,1.4-4,1.4
			h-2.2v5.5H-73v-15.5H-67.5z M-69.4,345.8h1.3c0.5,0,1.4,0,1.9-0.6c0.3-0.3,0.6-0.9,0.6-1.5c0-0.7-0.2-1.2-0.6-1.5
			c-0.5-0.5-1.3-0.6-2-0.6h-1.2V345.8z"/>
		<path class="st2" d="M-57.7,338.6v15.5h-3.6v-15.5H-57.7z"/>
		<path class="st2" d="M-42.2,340.5c1.5,1.4,2.4,3.5,2.4,5.9c0,2.1-0.7,4.2-2.4,5.8c-1.4,1.4-3.4,2.3-6,2.3c-2.9,0-4.9-1.2-6.1-2.3
			c-1.5-1.4-2.4-3.5-2.4-5.8c0-2.2,1-4.5,2.4-5.9c1-1,3-2.3,6.1-2.3C-45.8,338.3-43.8,339-42.2,340.5z M-51.7,342.9
			c-0.7,0.7-1.4,1.8-1.4,3.5c0,1.4,0.5,2.6,1.4,3.5c1,1,2.1,1.3,3.3,1.3c1.6,0,2.7-0.6,3.4-1.3c0.6-0.6,1.4-1.7,1.4-3.5
			c0-1.6-0.7-2.8-1.4-3.5c-0.8-0.7-2-1.3-3.4-1.3C-49.6,341.6-50.8,342.1-51.7,342.9z"/>
		<path class="st2" d="M-38.9,354.2v-15.5h3.1l8.4,10v-10h3.6v15.5h-3.1l-8.4-10.1v10.1H-38.9z"/>
		<path class="st2" d="M-14.1,342.4c-1.2-1-2.2-1.1-2.6-1.1c-0.5,0-1.1,0.1-1.5,0.5c-0.2,0.2-0.4,0.6-0.4,1c0,0.4,0.1,0.7,0.3,0.9
			c0.4,0.3,0.9,0.5,2,0.9l1.2,0.4c0.7,0.3,1.5,0.6,2.1,1.2c0.9,0.9,1.1,2,1.1,2.9c0,1.6-0.6,3-1.4,3.8c-1.4,1.4-3.4,1.6-4.4,1.6
			c-1.1,0-2.1-0.2-3.1-0.7c-0.8-0.4-1.7-1.1-2.3-1.7l1.9-2.6c0.4,0.4,1,0.9,1.4,1.2c0.6,0.4,1.2,0.6,2,0.6c0.5,0,1.1-0.1,1.6-0.5
			c0.3-0.3,0.6-0.7,0.6-1.3c0-0.5-0.2-0.8-0.5-1.1c-0.4-0.3-1.4-0.7-1.8-0.9l-1.3-0.4c-0.7-0.3-1.6-0.6-2.2-1.2
			c-0.8-0.9-0.9-2-0.9-2.7c0-1.4,0.4-2.5,1.4-3.5c1.1-1.1,2.4-1.4,3.8-1.4c1.1,0,2.8,0.2,4.6,1.5L-14.1,342.4z"/>
		<path class="st2" d="M-7.4,344.6h6.2v-5.9h3.6v15.5h-3.6v-6.6h-6.2v6.6H-11v-15.5h3.6V344.6z"/>
		<path class="st2" d="M7.7,338.6v15.5H4.1v-15.5H7.7z"/>
		<path class="st2" d="M14.9,338.6c1.4,0,2.8,0.2,4.1,1.3c1.3,1.2,1.5,2.7,1.5,3.8c0,2-0.7,3.1-1.3,3.7c-1.2,1.3-2.9,1.4-4,1.4H13
			v5.5H9.4v-15.5H14.9z M13,345.8h1.3c0.5,0,1.4,0,1.9-0.6c0.3-0.3,0.6-0.9,0.6-1.5c0-0.7-0.2-1.2-0.6-1.5c-0.5-0.5-1.3-0.6-2-0.6
			H13V345.8z"/>
	</g>
	<g>
		<polygon class="st1" points="25.4,341.9 23,346.1 25.4,350.2 27.9,346.1 		"/>
		<g>
			<path class="st2" d="M37.7,351v5.2l-2.2-2c-0.4-0.4-1.1-0.9-1.4-1.1c-0.2-0.2-0.7-0.4-1.2-0.4c-0.3,0-0.5,0.1-0.7,0.3
				c-0.1,0.1-0.2,0.4-0.2,0.6c0,0.3,0.1,0.5,0.2,0.6c0.2,0.2,0.6,0.3,0.8,0.3v1.6c-0.6-0.1-1.3-0.3-1.7-0.7
				c-0.3-0.3-0.7-0.9-0.7-1.9c0-1,0.4-1.5,0.6-1.8c0.4-0.4,0.9-0.6,1.6-0.6c0.6,0,1,0.2,1.5,0.5c0.4,0.3,0.8,0.7,1.2,1.1l0.7,0.7
				V351H37.7z"/>
			<path class="st2" d="M37.2,346.2c0.4,0.4,0.7,1,0.7,1.8c0,0.8-0.3,1.4-0.7,1.8c-0.7,0.7-1.7,1-2.9,1c-1.2,0-2.2-0.3-2.9-1
				c-0.4-0.4-0.7-1-0.7-1.8c0-0.8,0.3-1.4,0.7-1.8c0.6-0.7,1.7-1,2.9-1C35.5,345.2,36.5,345.5,37.2,346.2z M32.4,348.6
				c0.5,0.5,1.5,0.6,2,0.6c0.5,0,1.5-0.1,2-0.6c0.2-0.2,0.3-0.4,0.3-0.6c0-0.3-0.1-0.4-0.3-0.6c-0.5-0.5-1.4-0.6-2-0.6
				c-0.5,0-1.5,0.1-2,0.6c-0.2,0.2-0.3,0.4-0.3,0.6C32.1,348.3,32.2,348.5,32.4,348.6z"/>
			<path class="st2" d="M32.2,344v1h-1.3v-2.5h6.8v1.6H32.2z"/>
			<path class="st2" d="M30.9,337.2l2.2,1.8c-0.1-0.2-0.1-0.4-0.1-0.7c0-0.9,0.3-1.4,0.7-1.7c0.3-0.2,0.7-0.6,1.6-0.6
				c0.7,0,1.4,0.2,1.8,0.6c0.7,0.6,0.8,1.5,0.8,2.1c0,0.6-0.1,1.5-0.8,2.2c-0.5,0.4-1.1,0.6-1.7,0.6c-1.1,0-1.9-0.5-2.6-1.1
				l-2.1-1.6L30.9,337.2z M36.3,338c-0.2-0.2-0.5-0.4-0.9-0.4c-0.4,0-0.7,0.2-0.8,0.4c-0.2,0.3-0.3,0.6-0.3,0.8
				c0,0.3,0.1,0.6,0.3,0.8c0.1,0.1,0.4,0.3,0.9,0.3c0.3,0,0.6-0.1,0.8-0.3c0.2-0.2,0.3-0.5,0.3-0.8C36.6,338.4,36.4,338.1,36.3,338z
				"/>
		</g>
	</g>
	<g>
		<polygon class="st0" points="-252.9,349.3 -252.9,349.3 -252.9,349.3 		"/>
		<polygon class="st0" points="-245.4,304 -259.1,304 -252.3,315.5 		"/>
		<polygon class="st0" points="-263.7,334.7 -263.6,334.5 -263.6,334.5 		"/>
		<polygon class="st0" points="-243.1,332.9 -243.1,332.9 -233.4,349.3 -233.4,349.3 		"/>
		<polygon class="st0" points="-260.3,304 -260.3,304 -252.9,316.5 -252.9,316.5 		"/>
		<polygon class="st1" points="-255.4,320.8 -252.9,316.5 -260.3,304 -274.4,304 -275.9,306.4 -286,289.5 -288.5,289.5 
			-262.6,332.9 -255.4,320.7 		"/>
		<polygon class="st1" points="-252.9,349.3 -252.9,349.3 -233.4,349.3 -243.1,332.9 		"/>
		<polygon class="st2" points="-233.4,349.3 -225.5,362.5 -233.4,349.3 		"/>
		<polygon class="st3" points="-228.5,289.5 -265.8,289.5 -266.8,291 -259.1,304 -245.4,304 -252.3,315.5 -249.2,320.6 -239.4,304 
			-233.9,294.7 -228.5,303.9 -227.1,306.1 -217.2,289.5 		"/>
		<polygon class="st3" points="-225.5,362.5 -233.4,349.3 -252.9,349.3 -252.9,349.3 -252.9,349.3 -254.4,346.6 -255.4,348.2 
			-263.6,334.5 -263.7,334.7 -264.1,335.5 -272.3,349.3 -280.9,363.8 -255.4,363.8 -260,356 -256,349.3 -255.4,348.2 -254.8,349.3 
			-250.8,356 -255.4,363.8 -224.8,363.8 		"/>
		<polygon class="st4" points="-255.4,320.8 -255.4,320.7 -262.6,332.9 -262.6,332.9 		"/>
		<g>
			<polygon class="st2" points="-252.9,316.5 -255.4,320.8 -262.6,332.9 -263.6,334.5 -255.4,348.2 -254.4,346.6 -252.9,349.3 
				-243.1,332.9 			"/>
			<polygon class="st2" points="-260.3,304 -267.4,292 -274.4,304 -260.3,304 			"/>
		</g>
		<polygon class="st3" points="-263.6,334.5 -263.6,334.5 -263.5,334.5 -290.3,289.5 -291.4,289.5 -264.1,335.5 -263.7,334.7 		"/>
		<polygon class="st3" points="-263.7,334.7 -264.1,335.5 -264.1,335.5 		"/>
		<polygon class="st3" points="-263.6,334.5 -263.5,334.5 -263.5,334.5 -263.6,334.5 		"/>
	</g>
</g>
</svg>
