<?xml version="1.0" encoding="utf-8"?>
<!-- Generator: Adobe Illustrator 19.1.0, SVG Export Plug-In . SVG Version: 6.00 Build 0)  -->
<svg version="1.1" id="Layer_1" xmlns="http://www.w3.org/2000/svg" xmlns:xlink="http://www.w3.org/1999/xlink" x="0px" y="0px"
	 viewBox="-279.6 255.5 221.4 103.1" style="enable-background:new -279.6 255.5 221.4 103.1;" xml:space="preserve">
<style type="text/css">
	.st0{fill:none;}
	.st1{fill:#FBB040;}
	.st2{fill:#231F20;}
	.st3{fill:#58595B;}
	.st4{fill:#FFFFFF;}
</style>
<rect x="-279.6" y="255.5" class="st0" width="221.4" height="103.1"/>
<g>
	<g>
		<g>
			<g>
				<polygon class="st0" points="-226.1,338.5 -226.1,338.5 -226.1,338.5 				"/>
				<polygon class="st0" points="-215.7,275.6 -234.7,275.6 -225.2,291.6 				"/>
				<polygon class="st0" points="-241.1,318.2 -240.9,318 -240.9,318 				"/>
				<polygon class="st0" points="-212.5,315.8 -212.5,315.8 -199.1,338.5 -199,338.5 				"/>
				<polygon class="st0" points="-236.4,275.6 -236.4,275.6 -226.1,293 -226.1,293 				"/>
				<polygon class="st1" points="-229.6,298.9 -226.1,293 -236.4,275.6 -256,275.6 -258,279 -272,255.5 -275.5,255.5 -239.6,315.8 
					-229.6,298.9 				"/>
				<polygon class="st1" points="-226.1,338.5 -226.1,338.5 -199.1,338.5 -212.5,315.8 				"/>
				<polygon class="st2" points="-199.1,338.5 -188.2,356.8 -199,338.5 				"/>
				<polygon class="st3" points="-192.2,255.5 -244.1,255.5 -245.4,257.7 -234.7,275.6 -215.7,275.6 -225.2,291.6 -221,298.7 
					-207.3,275.6 -199.7,262.8 -192.2,275.5 -190.4,278.6 -176.6,255.5 				"/>
				<polygon class="st3" points="-188.2,356.8 -199.1,338.5 -226.1,338.5 -226.1,338.5 -226.1,338.5 -228.3,334.8 -229.6,337 
					-240.9,318 -241.1,318.2 -241.7,319.3 -253.1,338.5 -265,358.6 -229.6,358.6 -236,347.8 -230.5,338.5 -229.6,337 -228.7,338.5 
					-223.2,347.8 -229.6,358.6 -187.1,358.6 				"/>
				<polygon class="st4" points="-229.6,298.9 -229.6,298.9 -239.6,315.8 -239.6,315.8 				"/>
				<g>
					<polygon class="st4" points="-226.1,293 -229.6,298.9 -239.6,315.8 -240.9,318 -229.6,337 -228.3,334.8 -226.1,338.5 
						-212.5,315.8 					"/>
					<polygon class="st4" points="-236.4,275.6 -246.2,259.1 -256,275.6 -236.4,275.6 					"/>
				</g>
				<polygon class="st3" points="-240.9,318 -240.9,318 -240.9,317.9 -278,255.5 -279.6,255.5 -241.7,319.3 -241.1,318.2 				"/>
				<polygon class="st3" points="-241.1,318.2 -241.7,319.3 -241.7,319.3 				"/>
				<polygon class="st3" points="-240.9,318 -240.9,317.9 -240.9,317.9 -240.9,318 				"/>
			</g>
			<g>
				<g>
					<g>
						<polygon class="st1" points="-163.9,297.4 -159.4,297.4 -155.3,291 -168,291 -168,294.2 -161.9,294.2 						"/>
						<polygon class="st1" points="-159.7,297.9 -164.2,297.9 -166.6,301.6 -168.4,304.4 -169.5,306.1 -156.1,306.1 -156.1,302.8 
							-162.9,302.8 						"/>
					</g>
					<path class="st4" d="M-205.9,298.8v-3.2h8.1c0,0.1,0,0.2,0,0.3c0,0.1,0,0.3,0,0.5c0,2.6-0.7,4.6-2.1,6
						c-1.4,1.4-3.3,2.1-5.8,2.1c-1.2,0-2.3-0.2-3.3-0.6c-1-0.4-1.8-0.9-2.6-1.7c-0.7-0.7-1.3-1.6-1.7-2.6c-0.4-1-0.6-2-0.6-3.1
						c0-1.1,0.2-2.2,0.6-3.1c0.4-0.9,1-1.8,1.7-2.6c0.8-0.7,1.6-1.3,2.6-1.7c1-0.4,2-0.6,3.2-0.6c1.5,0,2.8,0.3,3.9,0.9
						c1.1,0.6,2.1,1.5,2.9,2.6l-3.6,1.7c-0.4-0.6-0.9-1-1.4-1.3c-0.5-0.3-1.1-0.4-1.8-0.4c-1.2,0-2.2,0.4-2.9,1.2
						c-0.7,0.8-1.1,1.9-1.1,3.4c0,1.4,0.4,2.6,1.1,3.4c0.7,0.8,1.7,1.2,2.9,1.2c1,0,1.9-0.3,2.6-0.8c0.7-0.5,1.1-1.2,1.2-2H-205.9z"
						/>
					<path class="st4" d="M-197,304.4v-13.5h3.7v13.5H-197z"/>
					<path class="st4" d="M-185.5,299.4v-2.8h7.2c0,0.1,0,0.2,0,0.3c0,0.1,0,0.3,0,0.5c0,2.3-0.6,4.1-1.8,5.4
						c-1.2,1.3-3,1.9-5.2,1.9c-1.1,0-2.1-0.2-2.9-0.5c-0.9-0.3-1.6-0.8-2.3-1.5c-0.6-0.6-1.1-1.4-1.5-2.3c-0.4-0.9-0.5-1.8-0.5-2.8
						c0-1,0.2-1.9,0.5-2.8c0.3-0.8,0.9-1.6,1.5-2.3c0.7-0.7,1.5-1.2,2.3-1.5c0.9-0.3,1.8-0.5,2.8-0.5c1.3,0,2.5,0.3,3.5,0.8
						c1,0.5,1.9,1.3,2.6,2.3l-3.2,1.5c-0.4-0.5-0.8-0.9-1.3-1.2c-0.5-0.3-1-0.4-1.6-0.4c-1.1,0-2,0.4-2.6,1.1c-0.6,0.7-1,1.7-1,3
						c0,1.3,0.3,2.3,1,3c0.6,0.7,1.5,1.1,2.6,1.1c0.9,0,1.7-0.2,2.3-0.7c0.6-0.5,1-1.1,1.1-1.8H-185.5z"/>
					<path class="st0" d="M-172.3,294.2c-0.1-0.3-0.2-0.7-0.3-1.2c-0.1,0.3-0.2,0.6-0.2,1c-0.1,0.3-0.2,0.6-0.2,0.9l-1.4,4.5h3.7
						l-1.4-4.5C-172.1,294.8-172.2,294.5-172.3,294.2z"/>
					<path class="st4" d="M-170.3,290.9h-4.6l-4.7,13.5h3.7l0.7-2.4h5.2l0.7,2.4h0.8l1.8-2.8L-170.3,290.9z M-174.4,299.4l1.4-4.5
						c0.1-0.3,0.2-0.6,0.2-0.9c0.1-0.3,0.2-0.6,0.2-1c0.1,0.5,0.2,0.9,0.3,1.2c0.1,0.3,0.1,0.5,0.2,0.7l1.4,4.5H-174.4z"/>
					<polygon class="st3" points="-166.6,301.6 -168.4,304.4 -165.6,304.4 					"/>
					<g>
						<path class="st1" d="M-137.9,297.4c0-0.3,0-0.6,0-0.9c0-0.4-0.1-0.9-0.2-1.5c0.3,0.6,0.5,1.1,0.7,1.5c0.2,0.4,0.4,0.7,0.5,0.9
							l0,0h3.8l-4.8-6.6h-3.6v6.6H-137.9z"/>
						<rect x="-131.8" y="290.9" class="st1" width="3.5" height="6.6"/>
						<rect x="-141.5" y="297.9" class="st1" width="3.6" height="6.5"/>
						<path class="st1" d="M-131.8,297.9c0,0.3,0,0.5,0,0.8c0,0.4,0.1,0.9,0.2,1.5c-0.3-0.6-0.5-1.1-0.7-1.5
							c-0.2-0.4-0.3-0.6-0.4-0.8h-3.8l4.8,6.5h3.5v-6.5H-131.8z"/>
					</g>
					<g>
						<polygon class="st1" points="-123.2,299.1 -118.8,299.1 -118.8,297.9 -126.8,297.9 -126.8,304.4 -118.6,304.4 -118.6,301.4 
							-123.2,301.4 						"/>
						<polygon class="st1" points="-126.8,290.9 -126.8,297.4 -118.8,297.4 -118.8,296.2 -123.2,296.2 -123.2,293.9 -118.6,293.9 
							-118.6,290.9 						"/>
					</g>
					<g>
						<path class="st1" d="M-145.9,297.9c0,1-0.4,1.9-1,2.6c-0.6,0.7-1.4,1.1-2.3,1.1v3.1c0.9,0,1.7-0.2,2.5-0.5
							c0.9-0.4,1.7-0.9,2.4-1.5c0.7-0.7,1.2-1.4,1.6-2.3c0.3-0.8,0.5-1.6,0.5-2.5H-145.9z"/>
						<path class="st1" d="M-146.9,294.8c0.6,0.7,1,1.6,1,2.6h3.7c0-0.9-0.2-1.7-0.5-2.5c-0.4-0.9-0.9-1.6-1.6-2.3
							c-0.7-0.7-1.5-1.2-2.3-1.5c-0.8-0.3-1.7-0.5-2.6-0.5v3.1C-148.3,293.8-147.5,294.1-146.9,294.8z"/>
					</g>
					<g>
						<polygon class="st1" points="-163.9,297.4 -159.4,297.4 -155.3,291 -168,291 -168,294.2 -161.9,294.2 						"/>
						<polygon class="st1" points="-159.7,297.9 -164.2,297.9 -166.6,301.6 -165.6,304.4 -168.4,304.4 -169.5,306.1 -156.1,306.1 
							-156.1,302.8 -162.9,302.8 						"/>
					</g>
					<g>
						<path class="st1" d="M-151.9,300.5c-0.6-0.7-0.9-1.6-1-2.6h-3.7c0,0.9,0.2,1.7,0.5,2.5c0.4,0.9,0.9,1.6,1.6,2.3
							c0.7,0.7,1.4,1.2,2.3,1.5c0.8,0.3,1.7,0.5,2.5,0.5v-3.1C-150.6,301.6-151.3,301.2-151.9,300.5z"/>
						<path class="st1" d="M-152.2,291.1c-0.9,0.4-1.7,0.9-2.3,1.5c-0.7,0.7-1.2,1.4-1.6,2.3c-0.3,0.8-0.5,1.6-0.5,2.5h3.7
							c0-1,0.4-1.9,1-2.6c0.6-0.7,1.4-1.1,2.3-1.1v-3.1C-150.5,290.6-151.3,290.8-152.2,291.1z"/>
					</g>
					<g>
						<path class="st1" d="M-117.4,292.6v-1.3h-0.4v-0.4h1.2v0.4h-0.4v1.3H-117.4z"/>
						<path class="st1" d="M-114.4,292.6h-0.4l-0.1-0.7c0-0.1,0-0.1,0-0.2c0-0.1,0-0.1,0-0.2c0,0.1,0,0.2-0.1,0.3c0,0,0,0,0,0
							l-0.2,0.8h-0.3l-0.2-0.8c0,0,0,0,0,0c0-0.1-0.1-0.2-0.1-0.3c0,0.1,0,0.1,0,0.2c0,0.1,0,0.1,0,0.2l-0.1,0.7h-0.4l0.3-1.7h0.5
							l0.3,0.9c0,0,0,0,0,0c0,0.1,0,0.1,0,0.2c0,0,0-0.1,0-0.1c0,0,0-0.1,0-0.1l0.3-0.9h0.5L-114.4,292.6z"/>
					</g>
				</g>
				<g>
					<path class="st4" d="M-196.8,314.7h6.1v0.1c0,1.5-0.5,3.8-1.9,5.2c-1.4,1.4-2.9,1.7-4.4,1.7c-1.5,0-3.1-0.2-4.5-1.7
						c-0.7-0.7-1.8-2.2-1.8-4.7c0-2,0.7-3.6,1.8-4.7c1.5-1.6,3.4-1.8,4.8-1.8c1,0,2.3,0.2,3.5,0.9c0.8,0.6,1.6,1.4,2,2.2l-2.6,1.4
						c-0.2-0.5-0.6-1-1.1-1.3c-0.6-0.4-1.2-0.6-1.9-0.6c-1.1,0-2,0.4-2.6,1c-0.7,0.7-1.1,1.8-1.1,2.9c0,1.4,0.5,2.3,1,2.8
						c0.7,0.7,1.6,1,2.5,1c1.2,0,1.9-0.4,2.1-0.7c0.1-0.1,0.6-0.6,0.9-1.5h-3V314.7z"/>
					<path class="st4" d="M-183.1,319.1h-4.7l-0.9,2.3h-3l5-12.3h2.6l4.9,12.3h-3L-183.1,319.1z M-183.9,316.9l-1.5-4.1l-1.5,4.1
						H-183.9z"/>
					<path class="st4" d="M-179.8,321.4l2-12.3h2.4l3.1,7.4l3.1-7.4h2.4l2,12.3h-2.9l-1-7.4l-3.1,7.4h-1l-3.1-7.4l-1,7.4H-179.8z"/>
					<path class="st4" d="M-161.3,309v12.3h-2.8V309H-161.3z"/>
					<path class="st4" d="M-159.9,321.4V309h2.5l6.7,8v-8h2.9v12.3h-2.5l-6.7-8v8H-159.9z"/>
					<path class="st4" d="M-140.6,314.7h6.1v0.1c0,1.5-0.5,3.8-1.9,5.2c-1.4,1.4-2.9,1.7-4.4,1.7c-1.5,0-3.1-0.2-4.5-1.7
						c-0.7-0.7-1.8-2.2-1.8-4.7c0-2,0.7-3.6,1.8-4.7c1.5-1.6,3.4-1.8,4.8-1.8c1,0,2.3,0.2,3.5,0.9c0.8,0.6,1.6,1.4,2,2.2l-2.6,1.4
						c-0.2-0.5-0.6-1-1.1-1.3c-0.6-0.4-1.2-0.6-1.9-0.6c-1.1,0-2,0.4-2.6,1c-0.7,0.7-1.1,1.8-1.1,2.9c0,1.4,0.5,2.3,1,2.8
						c0.7,0.7,1.6,1,2.5,1c1.2,0,1.9-0.4,2.1-0.7c0.1-0.1,0.6-0.6,0.9-1.5h-3V314.7z"/>
				</g>
				<g>
					<path class="st4" d="M-185.3,336.9c-1.1,0.6-2,0.7-2.7,0.7c-2.3,0-3.8-0.8-4.8-1.8c-1.1-1.1-1.9-2.7-1.9-4.7
						c0-1.9,0.8-3.6,1.9-4.6c1.1-1.1,2.7-1.8,4.6-1.8c0.8,0,1.8,0.2,3,0.7v3.3c-0.6-0.7-1.6-1.3-2.9-1.3c-1,0-1.9,0.3-2.5,1
						c-0.7,0.7-1.2,1.7-1.2,2.8c0,1.3,0.5,2.2,1.1,2.7c0.3,0.3,1.1,1,2.7,1c0.7,0,1.7-0.2,2.8-1.3V336.9z"/>
					<path class="st4" d="M-181.5,329.7h4.9V325h2.9v12.3h-2.9v-5.2h-4.9v5.2h-2.9V325h2.9V329.7z"/>
					<path class="st4" d="M-165.2,335h-4.7l-0.9,2.3h-3l5-12.3h2.6l4.9,12.3h-3L-165.2,335z M-165.9,332.8l-1.5-4.1l-1.5,4.1H-165.9
						z"/>
					<path class="st4" d="M-161.9,337.3l2-12.3h2.4l3.1,7.4l3.1-7.4h2.4l2,12.3h-2.8l-1-7.4l-3.1,7.4h-1l-3.1-7.4l-1,7.4H-161.9z"/>
					<path class="st4" d="M-141.9,325c1.1,0,2.3,0.1,3.2,1c1.1,0.9,1.2,2.1,1.2,3c0,1.6-0.6,2.4-1.1,2.9c-1,1-2.3,1.1-3.1,1.1h-1.7
						v4.3h-2.9V325H-141.9z M-143.4,330.6h1c0.4,0,1.1,0,1.5-0.5c0.3-0.3,0.5-0.7,0.5-1.2c0-0.5-0.2-0.9-0.5-1.2
						c-0.4-0.4-1-0.5-1.6-0.5h-1V330.6z"/>
					<path class="st4" d="M-134.2,325v12.3h-2.8V325H-134.2z"/>
					<path class="st4" d="M-121.8,326.5c1.2,1.1,1.9,2.8,1.9,4.7c0,1.6-0.6,3.3-1.9,4.6c-1.1,1.1-2.7,1.8-4.8,1.8
						c-2.3,0-3.9-0.9-4.8-1.8c-1.2-1.1-1.9-2.8-1.9-4.6c0-1.8,0.8-3.6,1.9-4.7c0.8-0.8,2.4-1.8,4.8-1.8
						C-124.7,324.7-123.1,325.3-121.8,326.5z M-129.3,328.4c-0.5,0.5-1.1,1.4-1.1,2.8c0,1.1,0.4,2,1.1,2.8c0.8,0.8,1.7,1,2.6,1
						c1.3,0,2.1-0.5,2.7-1.1c0.5-0.5,1.1-1.3,1.1-2.8c0-1.3-0.5-2.2-1.1-2.8c-0.6-0.6-1.6-1.1-2.7-1.1
						C-127.7,327.3-128.7,327.7-129.3,328.4z"/>
					<path class="st4" d="M-119.2,337.3V325h2.5l6.7,8v-8h2.8v12.3h-2.5l-6.7-8v8H-119.2z"/>
					<path class="st4" d="M-99.5,328c-0.9-0.8-1.7-0.9-2.1-0.9c-0.4,0-0.9,0.1-1.2,0.4c-0.2,0.2-0.3,0.5-0.3,0.8
						c0,0.3,0.1,0.5,0.3,0.7c0.3,0.3,0.7,0.4,1.6,0.7l0.9,0.4c0.5,0.2,1.2,0.5,1.7,0.9c0.7,0.7,0.9,1.6,0.9,2.3
						c0,1.3-0.4,2.4-1.1,3.1c-1.1,1.1-2.7,1.3-3.5,1.3c-0.9,0-1.7-0.1-2.4-0.5c-0.6-0.3-1.4-0.9-1.8-1.4l1.5-2
						c0.3,0.3,0.8,0.7,1.1,0.9c0.5,0.3,1,0.4,1.6,0.4c0.4,0,0.9-0.1,1.3-0.4c0.2-0.2,0.4-0.5,0.4-1c0-0.4-0.2-0.7-0.4-0.9
						c-0.3-0.3-1.1-0.6-1.4-0.7l-1-0.4c-0.6-0.2-1.2-0.5-1.7-1c-0.6-0.7-0.7-1.6-0.7-2.1c0-1.1,0.3-2,1.1-2.8
						c0.9-0.9,1.9-1.1,3.1-1.1c0.9,0,2.2,0.1,3.7,1.2L-99.5,328z"/>
					<path class="st4" d="M-94.2,329.7h4.9V325h2.9v12.3h-2.9v-5.2h-4.9v5.2H-97V325h2.8V329.7z"/>
					<path class="st4" d="M-82.2,325v12.3H-85V325H-82.2z"/>
					<path class="st4" d="M-76.5,325c1.1,0,2.3,0.1,3.2,1c1.1,0.9,1.2,2.1,1.2,3c0,1.6-0.6,2.4-1.1,2.9c-1,1-2.3,1.1-3.1,1.1H-78
						v4.3h-2.8V325H-76.5z M-78,330.6h1c0.4,0,1.1,0,1.5-0.5c0.3-0.3,0.5-0.7,0.5-1.2c0-0.5-0.2-0.9-0.5-1.2c-0.4-0.4-1-0.5-1.6-0.5
						h-1V330.6z"/>
				</g>
			</g>
		</g>
	</g>
	<g>
		<polygon class="st1" points="-68.1,327.8 -70,331.1 -68.1,334.4 -66.1,331.1 		"/>
		<g>
			<path class="st4" d="M-58.3,335v4.1l-1.8-1.6c-0.3-0.3-0.8-0.7-1.1-0.9c-0.2-0.1-0.5-0.3-0.9-0.3c-0.2,0-0.4,0.1-0.5,0.2
				c-0.1,0.1-0.2,0.3-0.2,0.5c0,0.2,0.1,0.4,0.2,0.5c0.2,0.1,0.5,0.2,0.7,0.2v1.3c-0.5,0-1-0.2-1.4-0.6c-0.3-0.3-0.6-0.7-0.6-1.5
				c0-0.8,0.3-1.2,0.5-1.4c0.3-0.3,0.7-0.5,1.3-0.5c0.5,0,0.8,0.1,1.2,0.4c0.3,0.2,0.6,0.5,0.9,0.9l0.5,0.6V335H-58.3z"/>
			<path class="st4" d="M-58.8,331.2c0.3,0.3,0.6,0.8,0.6,1.5c0,0.7-0.2,1.1-0.6,1.4c-0.5,0.5-1.3,0.8-2.3,0.8
				c-0.9,0-1.8-0.3-2.3-0.8c-0.3-0.3-0.6-0.8-0.6-1.4c0-0.7,0.3-1.1,0.6-1.5c0.5-0.5,1.3-0.8,2.3-0.8
				C-60.1,330.4-59.3,330.7-58.8,331.2z M-62.6,333.2c0.4,0.4,1.2,0.5,1.6,0.5c0.4,0,1.2-0.1,1.6-0.5c0.1-0.1,0.2-0.3,0.2-0.5
				c0-0.2-0.1-0.4-0.2-0.5c-0.4-0.4-1.1-0.5-1.6-0.5c-0.4,0-1.2,0.1-1.6,0.5c-0.1,0.1-0.2,0.3-0.2,0.5
				C-62.8,332.9-62.7,333-62.6,333.2z"/>
			<path class="st4" d="M-62.7,329.5v0.8h-1.1v-2h5.4v1.3H-62.7z"/>
			<path class="st4" d="M-63.7,324.1l1.8,1.4c-0.1-0.2-0.1-0.3-0.1-0.6c0-0.7,0.3-1.1,0.5-1.3c0.2-0.2,0.6-0.5,1.3-0.5
				c0.5,0,1.1,0.2,1.5,0.5c0.5,0.5,0.6,1.2,0.6,1.7c0,0.5,0,1.2-0.6,1.8c-0.4,0.4-0.8,0.5-1.3,0.5c-0.9,0-1.5-0.4-2.1-0.9l-1.6-1.2
				L-63.7,324.1z M-59.5,324.7c-0.1-0.1-0.4-0.3-0.7-0.3c-0.3,0-0.5,0.1-0.7,0.3c-0.2,0.2-0.2,0.4-0.2,0.7c0,0.2,0.1,0.5,0.2,0.7
				c0.1,0.1,0.3,0.3,0.7,0.3c0.3,0,0.5-0.1,0.7-0.3c0.1-0.2,0.3-0.4,0.3-0.7C-59.2,325-59.4,324.8-59.5,324.7z"/>
		</g>
	</g>
</g>
</svg>
