<?xml version="1.0" encoding="utf-8"?>
<!-- Generator: Adobe Illustrator 19.1.0, SVG Export Plug-In . SVG Version: 6.00 Build 0)  -->
<svg version="1.1" id="Layer_1" xmlns="http://www.w3.org/2000/svg" xmlns:xlink="http://www.w3.org/1999/xlink" x="0px" y="0px"
	 viewBox="0 0 254.3 125.5" style="enable-background:new 0 0 254.3 125.5;" xml:space="preserve">
<style type="text/css">
	.st0{fill:#58595B;}
	.st1{fill:#FBB040;}
	.st2{fill:none;}
	.st3{fill:#231F20;}
	.st4{fill:#FFFFFF;}
</style>
<g>
	<g>
		<path class="st0" d="M120.7,26.7l-7.6-21.9h-9.5l-9.6,27.8h7.5l1.4-5h10.8l1.4,5h1.7h5.8L120.7,26.7z M104.7,22.1l2.8-9.2
			c0.2-0.6,0.3-1.2,0.5-1.8c0.2-0.6,0.3-1.3,0.5-2c0.2,1,0.4,1.8,0.6,2.4c0.2,0.6,0.3,1.1,0.4,1.3l2.8,9.2H104.7z"/>
		<g>
			<polygon class="st1" points="126.2,18.2 135.4,18.2 143.9,4.9 117.8,4.9 117.8,11.6 130.4,11.6 			"/>
			<polygon class="st1" points="134.8,19.1 125.5,19.1 120.7,26.7 116.9,32.5 114.7,35.9 142.2,35.9 142.2,29.2 128.3,29.2 			"/>
		</g>
		<path class="st0" d="M39.9,21.1v-6.5h16.6c0,0.2,0,0.4,0,0.7c0,0.3,0,0.6,0,1.1c0,5.3-1.4,9.5-4.2,12.4c-2.8,2.9-6.8,4.4-11.9,4.4
			c-2.5,0-4.8-0.4-6.7-1.1c-2-0.8-3.7-1.9-5.2-3.5c-1.5-1.5-2.6-3.2-3.4-5.3c-0.8-2-1.2-4.1-1.2-6.4c0-2.3,0.4-4.4,1.2-6.4
			c0.8-1.9,2-3.7,3.5-5.2c1.6-1.5,3.3-2.7,5.4-3.4c2-0.8,4.2-1.2,6.5-1.2c3,0,5.7,0.6,8.1,1.8c2.3,1.2,4.3,3,5.9,5.4l-7.3,3.5
			c-0.9-1.2-1.9-2.1-3-2.7c-1.1-0.6-2.3-0.9-3.7-0.9c-2.5,0-4.5,0.8-6,2.5c-1.5,1.7-2.2,4-2.2,6.9c0,3,0.7,5.3,2.2,7
			c1.5,1.7,3.4,2.5,6,2.5c2.1,0,3.9-0.5,5.4-1.6c1.4-1.1,2.3-2.5,2.5-4.2H39.9z"/>
		<path class="st0" d="M58.3,32.5V4.7h7.6v27.8H58.3z"/>
		<path class="st0" d="M81.9,22.3v-5.8h14.9c0,0.2,0,0.4,0,0.6c0,0.2,0,0.6,0,1c0,4.8-1.3,8.5-3.8,11.1s-6.1,4-10.7,4
			c-2.3,0-4.3-0.3-6-1c-1.8-0.7-3.3-1.7-4.7-3.1c-1.3-1.3-2.3-2.9-3.1-4.7c-0.7-1.8-1.1-3.7-1.1-5.7c0-2.1,0.4-4,1.1-5.7
			c0.7-1.7,1.8-3.3,3.2-4.7c1.4-1.4,3-2.4,4.8-3.1c1.8-0.7,3.7-1,5.8-1c2.7,0,5.1,0.5,7.2,1.6c2.1,1.1,3.9,2.7,5.3,4.8l-6.6,3.1
			c-0.8-1.1-1.7-1.9-2.6-2.4c-1-0.5-2.1-0.8-3.3-0.8c-2.3,0-4,0.8-5.4,2.3c-1.3,1.5-2,3.6-2,6.2c0,2.6,0.7,4.7,2,6.2
			c1.3,1.5,3.1,2.3,5.4,2.3c1.9,0,3.5-0.5,4.8-1.4c1.3-0.9,2-2.2,2.2-3.8H81.9z"/>
		<path class="st2" d="M109,11.6c-0.2-0.6-0.3-1.4-0.6-2.4c-0.2,0.7-0.3,1.3-0.5,2c-0.2,0.6-0.3,1.2-0.5,1.8l-2.8,9.2h7.5l-2.8-9.2
			C109.3,12.7,109.2,12.2,109,11.6z"/>
		<polygon class="st3" points="120.7,26.7 116.9,32.5 122.7,32.5 		"/>
		<g>
			<path class="st1" d="M179.6,18.2c0-0.5,0-1.1-0.1-1.8c-0.1-0.9-0.2-1.9-0.3-3.1c0.5,1.2,1,2.2,1.5,3.1c0.5,0.9,0.8,1.5,1,1.8l0,0
				h7.8l-9.9-13.5h-7.3v13.5H179.6z"/>
			<rect x="192.2" y="4.7" class="st1" width="7.3" height="13.5"/>
			<rect x="172.3" y="19.1" class="st1" width="7.3" height="13.4"/>
			<path class="st1" d="M192.2,19.1c0,0.5,0,1.1,0.1,1.7c0.1,0.9,0.2,1.9,0.3,3.1c-0.6-1.2-1.1-2.3-1.5-3.1
				c-0.4-0.8-0.7-1.3-0.9-1.6h-7.8l9.8,13.4h7.3V19.1H192.2z"/>
		</g>
		<g>
			<polygon class="st1" points="209.8,21.6 218.9,21.6 218.9,19.1 202.4,19.1 202.4,32.5 219.4,32.5 219.4,26.3 209.8,26.3 			"/>
			<polygon class="st1" points="202.4,4.7 202.4,18.2 218.9,18.2 218.9,15.6 209.8,15.6 209.8,10.8 219.4,10.8 219.4,4.7 			"/>
		</g>
		<g>
			<path class="st1" d="M163.3,19.1c-0.1,2.1-0.8,3.9-2,5.4c-1.3,1.4-2.9,2.2-4.8,2.3v6.4c1.8-0.1,3.5-0.4,5.2-1.1
				c1.8-0.7,3.4-1.8,4.9-3.2c1.4-1.4,2.5-2.9,3.2-4.7c0.7-1.6,1-3.3,1.1-5.1H163.3z"/>
			<path class="st1" d="M161.2,12.9c1.3,1.4,2,3.2,2.1,5.4h7.6c-0.1-1.8-0.4-3.5-1.1-5.1c-0.7-1.8-1.8-3.3-3.2-4.7
				c-1.4-1.4-3-2.4-4.8-3.2c-1.7-0.7-3.4-1-5.2-1.1v6.4C158.4,10.6,159.9,11.4,161.2,12.9z"/>
		</g>
		<g>
			<polygon class="st1" points="126.2,18.2 135.4,18.2 143.9,4.9 117.8,4.9 117.8,11.6 130.4,11.6 			"/>
			<polygon class="st1" points="134.8,19.1 125.5,19.1 120.7,26.7 122.7,32.5 116.9,32.5 114.7,35.9 142.2,35.9 142.2,29.2 
				128.3,29.2 			"/>
		</g>
		<g>
			<path class="st1" d="M150.8,24.5c-1.3-1.4-1.9-3.2-2-5.4h-7.6c0.1,1.8,0.4,3.5,1.1,5.1c0.7,1.8,1.8,3.3,3.3,4.7
				c1.4,1.4,3,2.4,4.8,3.2c1.7,0.7,3.4,1,5.2,1.1v-6.4C153.6,26.7,152.1,26,150.8,24.5z"/>
			<path class="st1" d="M150.4,5.2c-1.8,0.7-3.4,1.8-4.8,3.2c-1.4,1.4-2.5,2.9-3.3,4.7c-0.7,1.6-1,3.3-1.1,5.1h7.6
				c0.1-2.1,0.8-3.9,2-5.4c1.3-1.4,2.8-2.2,4.7-2.3V4.1C153.8,4.2,152,4.5,150.4,5.2z"/>
		</g>
		<g>
			<path class="st1" d="M221.7,8.2V5.5H221V4.7h2.5v0.8h-0.8v2.6H221.7z"/>
			<path class="st1" d="M227.9,8.2H227l-0.2-1.5c0-0.1,0-0.2,0-0.4c0-0.1,0-0.3,0-0.4c0,0.1-0.1,0.3-0.1,0.5c0,0,0,0.1,0,0.1
				l-0.5,1.6h-0.6L225,6.6c0,0,0-0.1,0-0.1c-0.1-0.2-0.1-0.4-0.1-0.5c0,0.1,0,0.3,0,0.4c0,0.1,0,0.3,0,0.4l-0.2,1.5h-0.9l0.5-3.5
				h0.9l0.5,1.8c0,0,0,0,0,0.1c0,0.2,0.1,0.3,0.1,0.4c0-0.1,0-0.1,0-0.2c0-0.1,0-0.2,0.1-0.3l0.5-1.8h0.9L227.9,8.2z"/>
		</g>
	</g>
	<g>
		<path class="st3" d="M69.3,52.3h12.6v0.3c0,3.1-1.1,7.8-3.9,10.7c-2.8,2.9-6.1,3.5-9.1,3.5c-3,0-6.3-0.5-9.3-3.5
			c-1.5-1.5-3.7-4.6-3.7-9.7c0-4.1,1.5-7.5,3.7-9.6c3.1-3.2,7-3.7,10-3.7c2.1,0,4.8,0.3,7.1,1.9c1.7,1.1,3.2,2.9,4.1,4.5l-5.3,2.9
			c-0.5-1-1.3-2-2.2-2.7c-1.1-0.8-2.4-1.2-3.9-1.2c-2.3,0-4,0.8-5.3,2.1c-1.4,1.5-2.2,3.7-2.2,6c0,2.9,1.1,4.8,2.1,5.8
			c1.5,1.5,3.2,2,5.1,2c2.5,0,3.8-0.9,4.4-1.4c0.2-0.2,1.3-1.1,1.8-3h-6.1V52.3z"/>
		<path class="st3" d="M97.5,61.3H88L86,66.1h-6.1l10.2-25.4h5.4l10,25.4h-6.1L97.5,61.3z M95.9,56.8l-3.1-8.5l-3.2,8.5H95.9z"/>
		<path class="st3" d="M104.4,66.1l4.1-25.4h4.9l6.3,15.2l6.3-15.2h4.9l4.1,25.4H129L127,51l-6.4,15.1h-2.1L112.2,51l-2,15.1H104.4z
			"/>
		<path class="st3" d="M142.4,40.7v25.4h-5.9V40.7H142.4z"/>
		<path class="st3" d="M145.2,66.1V40.7h5.1l13.8,16.4V40.7h5.9v25.4h-5.1L151,49.7v16.4H145.2z"/>
		<path class="st3" d="M184.8,52.3h12.6v0.3c0,3.1-1.1,7.8-3.9,10.7c-2.8,2.9-6.1,3.5-9.1,3.5c-3,0-6.3-0.5-9.3-3.5
			c-1.5-1.5-3.7-4.6-3.7-9.7c0-4.1,1.5-7.5,3.7-9.6c3.1-3.2,7-3.7,10-3.7c2.1,0,4.8,0.3,7.1,1.9c1.7,1.1,3.2,2.9,4.1,4.5l-5.3,2.9
			c-0.5-1-1.3-2-2.2-2.7c-1.1-0.8-2.4-1.2-3.9-1.2c-2.3,0-4,0.8-5.3,2.1c-1.4,1.5-2.2,3.7-2.2,6c0,2.9,1.1,4.8,2.1,5.8
			c1.5,1.5,3.2,2,5.1,2c2.5,0,3.8-0.9,4.4-1.4c0.2-0.2,1.3-1.1,1.8-3h-6.1V52.3z"/>
	</g>
	<g>
		<path class="st3" d="M20.7,96.7c-2.2,1.1-4.1,1.4-5.6,1.4c-4.7,0-7.8-1.6-10-3.7c-2.3-2.2-4-5.6-4-9.6c0-4,1.7-7.3,4-9.6
			c2.2-2.2,5.5-3.7,9.5-3.7c1.7,0,3.6,0.3,6.1,1.4v6.8c-1.3-1.4-3.2-2.7-5.9-2.7c-2.1,0-3.8,0.7-5.2,2c-1.4,1.4-2.4,3.4-2.4,5.9
			c0,2.6,1.1,4.5,2.2,5.6c0.5,0.5,2.4,2.1,5.5,2.1c1.5,0,3.6-0.4,5.8-2.6V96.7z"/>
		<path class="st3" d="M28.4,81.8h10.1v-9.7h5.9v25.4h-5.9V86.7H28.4v10.8h-5.9V72.1h5.9V81.8z"/>
		<path class="st3" d="M62,92.7h-9.6l-1.9,4.8h-6.1l10.2-25.4H60l10,25.4h-6.1L62,92.7z M60.4,88.2l-3.1-8.5l-3.2,8.5H60.4z"/>
		<path class="st3" d="M68.8,97.5l4.1-25.4h4.9l6.3,15.2l6.3-15.2h4.9l4.1,25.4h-5.9l-2-15.1l-6.4,15.1h-2.1l-6.4-15.1l-2,15.1H68.8
			z"/>
		<path class="st3" d="M109.8,72.1c2.2,0,4.6,0.3,6.7,2.1c2.2,1.9,2.5,4.4,2.5,6.2c0,3.2-1.2,5-2.2,6c-2,2.1-4.7,2.2-6.5,2.2h-3.6
			v8.9h-5.9V72.1H109.8z M106.7,83.8h2.1c0.8,0,2.2,0,3.2-1c0.5-0.5,1-1.4,1-2.5c0-1.1-0.4-1.9-1-2.5c-0.9-0.8-2.1-1-3.3-1h-2V83.8z
			"/>
		<path class="st3" d="M125.8,72.1v25.4h-5.9V72.1H125.8z"/>
		<path class="st3" d="M151.1,75.2c2.4,2.3,4,5.7,4,9.6c0,3.4-1.2,6.9-4,9.5c-2.4,2.3-5.6,3.7-9.8,3.7c-4.8,0-8-1.9-9.9-3.7
			c-2.4-2.3-4-5.7-4-9.4c0-3.7,1.6-7.3,3.9-9.6c1.7-1.7,4.9-3.7,9.9-3.7C145.2,71.6,148.5,72.8,151.1,75.2z M135.7,79.1
			c-1.1,1.1-2.2,2.9-2.2,5.7c0,2.3,0.8,4.2,2.3,5.7c1.6,1.6,3.5,2.1,5.4,2.1c2.6,0,4.4-1,5.6-2.2c1-1,2.2-2.7,2.2-5.7
			c0-2.6-1.1-4.6-2.2-5.7c-1.3-1.2-3.3-2.2-5.6-2.2C139,77,137,77.8,135.7,79.1z"/>
		<path class="st3" d="M156.6,97.5V72.1h5.1l13.8,16.4V72.1h5.9v25.4h-5.1l-13.8-16.4v16.4H156.6z"/>
		<path class="st3" d="M197.1,78.3c-1.9-1.7-3.5-1.8-4.3-1.8c-0.8,0-1.8,0.1-2.5,0.9c-0.4,0.4-0.6,1-0.6,1.6c0,0.6,0.2,1.1,0.6,1.4
			c0.6,0.6,1.5,0.8,3.2,1.4l1.9,0.7c1.1,0.4,2.5,1,3.5,1.9c1.5,1.4,1.9,3.2,1.9,4.7c0,2.6-0.9,4.9-2.2,6.3c-2.2,2.4-5.5,2.6-7.2,2.6
			c-1.8,0-3.4-0.3-5-1.1c-1.3-0.6-2.8-1.8-3.7-2.8l3-4.2c0.6,0.6,1.7,1.5,2.4,1.9c1,0.6,2,0.9,3.2,0.9c0.8,0,1.8-0.2,2.7-0.9
			c0.5-0.4,0.9-1.1,0.9-2.1c0-0.8-0.3-1.4-0.9-1.8c-0.7-0.6-2.2-1.1-3-1.4l-2.1-0.7c-1.2-0.4-2.5-1-3.5-2c-1.3-1.4-1.5-3.2-1.5-4.4
			c0-2.2,0.7-4.1,2.2-5.7c1.8-1.8,3.9-2.3,6.3-2.3c1.8,0,4.6,0.3,7.5,2.5L197.1,78.3z"/>
		<path class="st3" d="M207.9,81.8h10.1v-9.7h5.9v25.4h-5.9V86.7h-10.1v10.8h-5.9V72.1h5.9V81.8z"/>
		<path class="st3" d="M232.6,72.1v25.4h-5.9V72.1H232.6z"/>
		<path class="st3" d="M244.4,72.1c2.2,0,4.6,0.3,6.7,2.1c2.2,1.9,2.5,4.4,2.5,6.2c0,3.2-1.2,5-2.2,6c-2,2.1-4.7,2.2-6.5,2.2h-3.6
			v8.9h-5.9V72.1H244.4z M241.3,83.8h2.1c0.8,0,2.2,0,3.2-1c0.5-0.5,1-1.4,1-2.5c0-1.1-0.4-1.9-1-2.5c-0.9-0.8-2.1-1-3.3-1h-2V83.8z
			"/>
	</g>
	<g>
		<g>
			<path class="st4" d="M246.4,124.1h-25.6c-2.5,0-4.6-2.1-4.6-4.6V108c0-2.5,2.1-4.6,4.6-4.6h25.6c2.5,0,4.6,2.1,4.6,4.6v11.4
				C251,122,248.9,124.1,246.4,124.1z"/>
			<path class="st1" d="M246.4,107.3c0.4,0,0.7,0.3,0.7,0.7v11.4c0,0.4-0.3,0.7-0.7,0.7h-25.6c-0.4,0-0.7-0.3-0.7-0.7V108
				c0-0.4,0.3-0.7,0.7-0.7H246.4 M246.4,103.4h-25.6c-2.5,0-4.6,2.1-4.6,4.6v11.4c0,2.5,2.1,4.6,4.6,4.6h25.6c2.5,0,4.6-2.1,4.6-4.6
				V108C251,105.5,248.9,103.4,246.4,103.4L246.4,103.4z"/>
		</g>
		<g>
			<g>
				<path class="st0" d="M228.7,116.9h-4.9l1.9-2.1c0.3-0.4,0.8-1,1-1.3c0.1-0.2,0.4-0.6,0.4-1.1c0-0.2-0.1-0.5-0.2-0.6
					c-0.1-0.1-0.3-0.2-0.6-0.2c-0.3,0-0.5,0.1-0.6,0.2c-0.2,0.2-0.3,0.5-0.3,0.8H224c0-0.6,0.3-1.2,0.7-1.6c0.3-0.3,0.8-0.7,1.8-0.7
					c0.9,0,1.4,0.4,1.6,0.6c0.3,0.3,0.6,0.9,0.6,1.5c0,0.6-0.2,1-0.5,1.4c-0.3,0.4-0.6,0.7-1,1.1l-0.7,0.6h2.2V116.9z"/>
				<path class="st0" d="M233.2,116.4c-0.4,0.4-0.9,0.7-1.7,0.7c-0.8,0-1.3-0.3-1.7-0.7c-0.6-0.6-0.9-1.6-0.9-2.7
					c0-1.1,0.3-2.1,0.9-2.7c0.4-0.4,0.9-0.7,1.7-0.7c0.8,0,1.3,0.3,1.7,0.7c0.6,0.6,0.9,1.6,0.9,2.7
					C234.1,114.8,233.8,115.8,233.2,116.4z M230.9,111.9c-0.5,0.5-0.5,1.4-0.5,1.8c0,0.5,0.1,1.4,0.5,1.8c0.2,0.2,0.3,0.2,0.6,0.2
					s0.4-0.1,0.6-0.2c0.4-0.4,0.5-1.3,0.5-1.8c0-0.4-0.1-1.4-0.5-1.8c-0.2-0.2-0.3-0.2-0.6-0.2S231.1,111.7,230.9,111.9z"/>
				<path class="st0" d="M235.2,111.8h-0.9v-1.2h2.4v6.4h-1.5V111.8z"/>
				<path class="st0" d="M241.5,110.6l-1.7,2.1c0.2-0.1,0.4-0.1,0.7-0.1c0.8,0,1.3,0.3,1.6,0.6c0.2,0.2,0.6,0.7,0.6,1.5
					c0,0.6-0.2,1.3-0.6,1.7c-0.6,0.6-1.4,0.7-2,0.7c-0.6,0-1.4-0.1-2.1-0.7c-0.4-0.4-0.6-1-0.6-1.5c0-1,0.5-1.7,1-2.4l1.5-1.9
					L241.5,110.6z M240.8,115.6c0.2-0.2,0.3-0.4,0.3-0.8c0-0.4-0.2-0.6-0.3-0.8c-0.2-0.2-0.5-0.3-0.8-0.3c-0.3,0-0.6,0.1-0.8,0.3
					c-0.1,0.1-0.3,0.4-0.3,0.8c0,0.3,0.1,0.6,0.3,0.8c0.2,0.2,0.4,0.3,0.8,0.3C240.4,115.8,240.7,115.7,240.8,115.6z"/>
			</g>
		</g>
		<g>
			<polygon class="st1" points="8.1,103.2 0.7,110.5 3.4,113.1 7,109.6 7,122.3 10.7,122.3 10.7,109.6 14.3,113.1 17,110.5 
				9.6,103.2 			"/>
			<polygon class="st1" points="28.4,103.2 21.1,110.5 23.7,113.1 27.3,109.6 27.3,122.3 31.1,122.3 31.1,109.6 34.7,113.1 
				37.3,110.5 30,103.2 			"/>
			<polygon class="st1" points="51.4,115.9 51.4,103.2 47.7,103.2 47.7,115.9 44.1,112.3 41.4,115 48.8,122.3 50.3,122.3 57.6,115 
				55,112.3 			"/>
			<polygon class="st1" points="71.8,115.9 71.8,103.2 68,103.2 68,115.9 64.4,112.3 61.8,115 69.1,122.3 70.7,122.3 78,115 
				75.3,112.3 			"/>
			<polygon class="st1" points="90.6,107.3 88,104.6 80.7,111.9 80.7,113.5 88,120.8 90.6,118.2 87.1,114.6 99.8,114.6 99.8,110.9 
				87.1,110.9 			"/>
			<polygon class="st1" points="112.3,107.3 115.9,110.9 103.2,110.9 103.2,114.6 115.9,114.6 112.3,118.2 115,120.8 122.3,113.5 
				122.3,111.9 115,104.6 			"/>
			<polygon class="st1" points="135.7,107.3 133,104.6 125.7,111.9 125.7,113.5 133,120.8 135.7,118.2 132.1,114.6 144.8,114.6 
				144.8,110.9 132.1,110.9 			"/>
			<polygon class="st1" points="159.2,104.6 156.6,107.3 160.2,110.9 147.5,110.9 147.5,114.6 160.2,114.6 156.6,118.2 159.2,120.8 
				166.6,113.5 166.6,111.9 			"/>
		</g>
		<g>
			<g>
				<circle class="st4" cx="203.5" cy="113.8" r="8.4"/>
				<path class="st1" d="M203.5,124.4c-5.9,0-10.6-4.8-10.6-10.6c0-5.9,4.8-10.6,10.6-10.6s10.6,4.8,10.6,10.6
					C214.2,119.6,209.4,124.4,203.5,124.4z M203.5,107.6c-3.4,0-6.2,2.8-6.2,6.2s2.8,6.2,6.2,6.2c3.4,0,6.2-2.8,6.2-6.2
					S206.9,107.6,203.5,107.6z"/>
			</g>
			<g>
				<path class="st0" d="M204.8,115.3h-2.4l-0.5,1.2h-1.5l2.6-6.4h1.4l2.5,6.4h-1.5L204.8,115.3z M204.4,114.2l-0.8-2.2l-0.8,2.2
					H204.4z"/>
			</g>
		</g>
		<g>
			<g>
				<circle class="st4" cx="180.8" cy="113.8" r="8.4"/>
				<path class="st1" d="M180.8,124.4c-5.9,0-10.6-4.8-10.6-10.6c0-5.9,4.8-10.6,10.6-10.6s10.6,4.8,10.6,10.6
					C191.5,119.6,186.7,124.4,180.8,124.4z M180.8,107.6c-3.4,0-6.2,2.8-6.2,6.2s2.8,6.2,6.2,6.2c3.4,0,6.2-2.8,6.2-6.2
					S184.2,107.6,180.8,107.6z"/>
			</g>
			<g>
				<path class="st0" d="M180.8,110.1c0.3,0,1.1,0,1.6,0.5c0.4,0.4,0.5,0.9,0.5,1.2c0,0.2,0,0.5-0.2,0.8c-0.2,0.3-0.4,0.4-0.5,0.5
					c0.3,0,0.7,0.2,0.9,0.4c0.2,0.2,0.4,0.6,0.4,1.1c0,0.6-0.2,1-0.5,1.3c-0.5,0.5-1.3,0.5-1.7,0.5h-2.4v-6.4H180.8z M180.3,112.7
					h0.2c0.2,0,0.5,0,0.8-0.2c0.1-0.1,0.3-0.3,0.3-0.6s-0.1-0.5-0.2-0.5c-0.2-0.2-0.5-0.2-0.8-0.2h-0.2V112.7z M180.3,115.4h0.4
					c0.4,0,0.8,0,1.1-0.3c0.1-0.1,0.2-0.3,0.2-0.5c0-0.3-0.1-0.4-0.2-0.5c-0.3-0.2-0.8-0.2-1.1-0.2h-0.4V115.4z"/>
			</g>
		</g>
	</g>
</g>
</svg>
