<?xml version="1.0" encoding="utf-8"?>
<!-- Generator: Adobe Illustrator 19.1.0, SVG Export Plug-In . SVG Version: 6.00 Build 0)  -->
<svg version="1.1" id="Layer_1" xmlns="http://www.w3.org/2000/svg" xmlns:xlink="http://www.w3.org/1999/xlink" x="0px" y="0px"
	 viewBox="-268 244.5 254.3 125.5" style="enable-background:new -268 244.5 254.3 125.5;" xml:space="preserve">
<style type="text/css">
	.st0{fill:#FFFFFF;}
	.st1{fill:#FBB040;}
	.st2{fill:none;}
	.st3{fill:#58595B;}
</style>
<g>
	<g>
		<path class="st0" d="M-147.3,271.2l-7.6-21.9h-9.5l-9.6,27.8h7.5l1.4-5h10.8l1.4,5h1.7h5.8L-147.3,271.2z M-163.3,266.6l2.8-9.2
			c0.2-0.6,0.3-1.2,0.5-1.8s0.3-1.3,0.5-2c0.2,1,0.4,1.8,0.6,2.4c0.2,0.6,0.3,1.1,0.4,1.3l2.8,9.2h-7.6V266.6z"/>
		<g>
			<polygon class="st1" points="-141.8,262.7 -132.6,262.7 -124.1,249.4 -150.2,249.4 -150.2,256.1 -137.6,256.1 			"/>
			<polygon class="st1" points="-133.2,263.6 -142.5,263.6 -147.3,271.2 -151.1,277 -153.3,280.4 -125.8,280.4 -125.8,273.7 
				-139.7,273.7 			"/>
		</g>
		<path class="st0" d="M-228.1,265.6v-6.5h16.6c0,0.2,0,0.4,0,0.7c0,0.3,0,0.6,0,1.1c0,5.3-1.4,9.5-4.2,12.4
			c-2.8,2.9-6.8,4.4-11.9,4.4c-2.5,0-4.8-0.4-6.7-1.1c-2-0.8-3.7-1.9-5.2-3.5c-1.5-1.5-2.6-3.2-3.4-5.3c-0.8-2-1.2-4.1-1.2-6.4
			c0-2.3,0.4-4.4,1.2-6.4c0.8-1.9,2-3.7,3.5-5.2c1.6-1.5,3.3-2.7,5.4-3.4c2-0.8,4.2-1.2,6.5-1.2c3,0,5.7,0.6,8.1,1.8
			c2.3,1.2,4.3,3,5.9,5.4l-7.3,3.5c-0.9-1.2-1.9-2.1-3-2.7c-1.1-0.6-2.3-0.9-3.7-0.9c-2.5,0-4.5,0.8-6,2.5s-2.2,4-2.2,6.9
			c0,3,0.7,5.3,2.2,7c1.5,1.7,3.4,2.5,6,2.5c2.1,0,3.9-0.5,5.4-1.6c1.4-1.1,2.3-2.5,2.5-4.2h-8.5V265.6z"/>
		<path class="st0" d="M-209.7,277v-27.8h7.6V277H-209.7z"/>
		<path class="st0" d="M-186.1,266.8V261h14.9c0,0.2,0,0.4,0,0.6c0,0.2,0,0.6,0,1c0,4.8-1.3,8.5-3.8,11.1c-2.5,2.6-6.1,4-10.7,4
			c-2.3,0-4.3-0.3-6-1c-1.8-0.7-3.3-1.7-4.7-3.1c-1.3-1.3-2.3-2.9-3.1-4.7c-0.7-1.8-1.1-3.7-1.1-5.7c0-2.1,0.4-4,1.1-5.7
			c0.7-1.7,1.8-3.3,3.2-4.7c1.4-1.4,3-2.4,4.8-3.1c1.8-0.7,3.7-1,5.8-1c2.7,0,5.1,0.5,7.2,1.6c2.1,1.1,3.9,2.7,5.3,4.8l-6.6,3.1
			c-0.8-1.1-1.7-1.9-2.6-2.4c-1-0.5-2.1-0.8-3.3-0.8c-2.3,0-4,0.8-5.4,2.3c-1.3,1.5-2,3.6-2,6.2s0.7,4.7,2,6.2s3.1,2.3,5.4,2.3
			c1.9,0,3.5-0.5,4.8-1.4c1.3-0.9,2-2.2,2.2-3.8C-178.7,266.8-186.1,266.8-186.1,266.8z"/>
		<path class="st2" d="M-159,256.1c-0.2-0.6-0.3-1.4-0.6-2.4c-0.2,0.7-0.3,1.3-0.5,2c-0.2,0.6-0.3,1.2-0.5,1.8l-2.8,9.2h7.5
			l-2.8-9.2C-158.7,257.2-158.8,256.7-159,256.1z"/>
		<polygon class="st3" points="-147.3,271.2 -151.1,277 -145.3,277 		"/>
		<g>
			<path class="st1" d="M-88.4,262.7c0-0.5,0-1.1-0.1-1.8c-0.1-0.9-0.2-1.9-0.3-3.1c0.5,1.2,1,2.2,1.5,3.1s0.8,1.5,1,1.8l0,0h7.8
				l-9.9-13.5h-7.3v13.5H-88.4z"/>
			<rect x="-75.8" y="249.2" class="st1" width="7.3" height="13.5"/>
			<rect x="-95.7" y="263.6" class="st1" width="7.3" height="13.4"/>
			<path class="st1" d="M-75.8,263.6c0,0.5,0,1.1,0.1,1.7c0.1,0.9,0.2,1.9,0.3,3.1c-0.6-1.2-1.1-2.3-1.5-3.1
				c-0.4-0.8-0.7-1.3-0.9-1.6h-7.8l9.8,13.4h7.3v-13.5H-75.8z"/>
		</g>
		<g>
			<polygon class="st1" points="-58.2,266.1 -49.1,266.1 -49.1,263.6 -65.6,263.6 -65.6,277 -48.6,277 -48.6,270.8 -58.2,270.8 			
				"/>
			<polygon class="st1" points="-65.6,249.2 -65.6,262.7 -49.1,262.7 -49.1,260.1 -58.2,260.1 -58.2,255.3 -48.6,255.3 -48.6,249.2 
							"/>
		</g>
		<g>
			<path class="st1" d="M-104.7,263.6c-0.1,2.1-0.8,3.9-2,5.4c-1.3,1.4-2.9,2.2-4.8,2.3v6.4c1.8-0.1,3.5-0.4,5.2-1.1
				c1.8-0.7,3.4-1.8,4.9-3.2c1.4-1.4,2.5-2.9,3.2-4.7c0.7-1.6,1-3.3,1.1-5.1H-104.7z"/>
			<path class="st1" d="M-106.8,257.4c1.3,1.4,2,3.2,2.1,5.4h7.6c-0.1-1.8-0.4-3.5-1.1-5.1c-0.7-1.8-1.8-3.3-3.2-4.7s-3-2.4-4.8-3.2
				c-1.7-0.7-3.4-1-5.2-1.1v6.4C-109.6,255.1-108.1,255.9-106.8,257.4z"/>
		</g>
		<g>
			<polygon class="st1" points="-141.8,262.7 -132.6,262.7 -124.1,249.4 -150.2,249.4 -150.2,256.1 -137.6,256.1 			"/>
			<polygon class="st1" points="-133.2,263.6 -142.5,263.6 -147.3,271.2 -145.3,277 -151.1,277 -153.3,280.4 -125.8,280.4 
				-125.8,273.7 -139.7,273.7 			"/>
		</g>
		<g>
			<path class="st1" d="M-117.2,269c-1.3-1.4-1.9-3.2-2-5.4h-7.6c0.1,1.8,0.4,3.5,1.1,5.1c0.7,1.8,1.8,3.3,3.3,4.7
				c1.4,1.4,3,2.4,4.8,3.2c1.7,0.7,3.4,1,5.2,1.1v-6.4C-114.4,271.2-115.9,270.5-117.2,269z"/>
			<path class="st1" d="M-117.6,249.7c-1.8,0.7-3.4,1.8-4.8,3.2c-1.4,1.4-2.5,2.9-3.3,4.7c-0.7,1.6-1,3.3-1.1,5.1h7.6
				c0.1-2.1,0.8-3.9,2-5.4c1.3-1.4,2.8-2.2,4.7-2.3v-6.4C-114.2,248.7-116,249-117.6,249.7z"/>
		</g>
		<g>
			<path class="st1" d="M-46.3,252.7V250H-47v-0.8h2.5v0.8h-0.8v2.6L-46.3,252.7L-46.3,252.7z"/>
			<path class="st1" d="M-40.1,252.7H-41l-0.2-1.5c0-0.1,0-0.2,0-0.4c0-0.1,0-0.3,0-0.4c0,0.1-0.1,0.3-0.1,0.5v0.1l-0.5,1.6h-0.6
				l-0.6-1.5V251c-0.1-0.2-0.1-0.4-0.1-0.5c0,0.1,0,0.3,0,0.4c0,0.1,0,0.3,0,0.4l-0.2,1.5h-0.9l0.5-3.5h0.9l0.5,1.8c0,0,0,0,0,0.1
				c0,0.2,0.1,0.3,0.1,0.4c0-0.1,0-0.1,0-0.2c0-0.1,0-0.2,0.1-0.3l0.5-1.8h0.9L-40.1,252.7z"/>
		</g>
	</g>
	<g>
		<path class="st0" d="M-198.7,296.8h12.6v0.3c0,3.1-1.1,7.8-3.9,10.7c-2.8,2.9-6.1,3.5-9.1,3.5s-6.3-0.5-9.3-3.5
			c-1.5-1.5-3.7-4.6-3.7-9.7c0-4.1,1.5-7.5,3.7-9.6c3.1-3.2,7-3.7,10-3.7c2.1,0,4.8,0.3,7.1,1.9c1.7,1.1,3.2,2.9,4.1,4.5l-5.3,2.9
			c-0.5-1-1.3-2-2.2-2.7c-1.1-0.8-2.4-1.2-3.9-1.2c-2.3,0-4,0.8-5.3,2.1c-1.4,1.5-2.2,3.7-2.2,6c0,2.9,1.1,4.8,2.1,5.8
			c1.5,1.5,3.2,2,5.1,2c2.5,0,3.8-0.9,4.4-1.4c0.2-0.2,1.3-1.1,1.8-3h-6.1L-198.7,296.8L-198.7,296.8z"/>
		<path class="st0" d="M-170.5,305.8h-9.5l-2,4.8h-6.1l10.2-25.4h5.4l10,25.4h-6.1L-170.5,305.8z M-172.1,301.3l-3.1-8.5l-3.2,8.5
			H-172.1z"/>
		<path class="st0" d="M-163.6,310.6l4.1-25.4h4.9l6.3,15.2l6.3-15.2h4.9l4.1,25.4h-6l-2-15.1l-6.4,15.1h-2.1l-6.3-15.1l-2,15.1
			H-163.6z"/>
		<path class="st0" d="M-125.6,285.2v25.4h-5.9v-25.4H-125.6z"/>
		<path class="st0" d="M-122.8,310.6v-25.4h5.1l13.8,16.4v-16.4h5.9v25.4h-5.1l-13.9-16.4v16.4H-122.8z"/>
		<path class="st0" d="M-83.2,296.8h12.6v0.3c0,3.1-1.1,7.8-3.9,10.7c-2.8,2.9-6.1,3.5-9.1,3.5s-6.3-0.5-9.3-3.5
			c-1.5-1.5-3.7-4.6-3.7-9.7c0-4.1,1.5-7.5,3.7-9.6c3.1-3.2,7-3.7,10-3.7c2.1,0,4.8,0.3,7.1,1.9c1.7,1.1,3.2,2.9,4.1,4.5l-5.3,2.9
			c-0.5-1-1.3-2-2.2-2.7c-1.1-0.8-2.4-1.2-3.9-1.2c-2.3,0-4,0.8-5.3,2.1c-1.4,1.5-2.2,3.7-2.2,6c0,2.9,1.1,4.8,2.1,5.8
			c1.5,1.5,3.2,2,5.1,2c2.5,0,3.8-0.9,4.4-1.4c0.2-0.2,1.3-1.1,1.8-3h-6.1L-83.2,296.8L-83.2,296.8z"/>
	</g>
	<g>
		<path class="st0" d="M-247.3,341.2c-2.2,1.1-4.1,1.4-5.6,1.4c-4.7,0-7.8-1.6-10-3.7c-2.3-2.2-4-5.6-4-9.6s1.7-7.3,4-9.6
			c2.2-2.2,5.5-3.7,9.5-3.7c1.7,0,3.6,0.3,6.1,1.4v6.8c-1.3-1.4-3.2-2.7-5.9-2.7c-2.1,0-3.8,0.7-5.2,2c-1.4,1.4-2.4,3.4-2.4,5.9
			c0,2.6,1.1,4.5,2.2,5.6c0.5,0.5,2.4,2.1,5.5,2.1c1.5,0,3.6-0.4,5.8-2.6V341.2z"/>
		<path class="st0" d="M-239.6,326.3h10.1v-9.7h5.9V342h-5.9v-10.8h-10.1V342h-5.9v-25.4h5.9V326.3z"/>
		<path class="st0" d="M-206,337.2h-9.6l-1.9,4.8h-6.1l10.2-25.4h5.4l10,25.4h-6.1L-206,337.2z M-207.6,332.7l-3.1-8.5l-3.2,8.5
			H-207.6z"/>
		<path class="st0" d="M-199.2,342l4.1-25.4h4.9l6.3,15.2l6.3-15.2h4.9l4.1,25.4h-5.9l-2-15.1l-6.4,15.1h-2.1l-6.4-15.1l-2,15.1
			H-199.2z"/>
		<path class="st0" d="M-158.2,316.6c2.2,0,4.6,0.3,6.7,2.1c2.2,1.9,2.5,4.4,2.5,6.2c0,3.2-1.2,5-2.2,6c-2,2.1-4.7,2.2-6.5,2.2h-3.6
			v8.9h-5.9v-25.4H-158.2z M-161.3,328.3h2.1c0.8,0,2.2,0,3.2-1c0.5-0.5,1-1.4,1-2.5c0-1.1-0.4-1.9-1-2.5c-0.9-0.8-2.1-1-3.3-1h-2
			C-161.3,321.3-161.3,328.3-161.3,328.3z"/>
		<path class="st0" d="M-142.2,316.6V342h-5.9v-25.4H-142.2z"/>
		<path class="st0" d="M-116.9,319.7c2.4,2.3,4,5.7,4,9.6c0,3.4-1.2,6.9-4,9.5c-2.4,2.3-5.6,3.7-9.8,3.7c-4.8,0-8-1.9-9.9-3.7
			c-2.4-2.3-4-5.7-4-9.4c0-3.7,1.6-7.3,3.9-9.6c1.7-1.7,4.9-3.7,9.9-3.7C-122.8,316.1-119.5,317.3-116.9,319.7z M-132.3,323.6
			c-1.1,1.1-2.2,2.9-2.2,5.7c0,2.3,0.8,4.2,2.3,5.7c1.6,1.6,3.5,2.1,5.4,2.1c2.6,0,4.4-1,5.6-2.2c1-1,2.2-2.7,2.2-5.7
			c0-2.6-1.1-4.6-2.2-5.7c-1.3-1.2-3.3-2.2-5.6-2.2C-129,321.5-131,322.3-132.3,323.6z"/>
		<path class="st0" d="M-111.4,342v-25.4h5.1l13.8,16.4v-16.4h5.9V342h-5.1l-13.8-16.4V342H-111.4z"/>
		<path class="st0" d="M-70.9,322.8c-1.9-1.7-3.5-1.8-4.3-1.8s-1.8,0.1-2.5,0.9c-0.4,0.4-0.6,1-0.6,1.6s0.2,1.1,0.6,1.4
			c0.6,0.6,1.5,0.8,3.2,1.4l1.9,0.7c1.1,0.4,2.5,1,3.5,1.9c1.5,1.4,1.9,3.2,1.9,4.7c0,2.6-0.9,4.9-2.2,6.3c-2.2,2.4-5.5,2.6-7.2,2.6
			c-1.8,0-3.4-0.3-5-1.1c-1.3-0.6-2.8-1.8-3.7-2.8l3-4.2c0.6,0.6,1.7,1.5,2.4,1.9c1,0.6,2,0.9,3.2,0.9c0.8,0,1.8-0.2,2.7-0.9
			c0.5-0.4,0.9-1.1,0.9-2.1c0-0.8-0.3-1.4-0.9-1.8c-0.7-0.6-2.2-1.1-3-1.4l-2.1-0.7c-1.2-0.4-2.5-1-3.5-2c-1.3-1.4-1.5-3.2-1.5-4.4
			c0-2.2,0.7-4.1,2.2-5.7c1.8-1.8,3.9-2.3,6.3-2.3c1.8,0,4.6,0.3,7.5,2.5L-70.9,322.8z"/>
		<path class="st0" d="M-60.1,326.3H-50v-9.7h5.9V342H-50v-10.8h-10.1V342H-66v-25.4h5.9V326.3z"/>
		<path class="st0" d="M-35.4,316.6V342h-5.9v-25.4H-35.4z"/>
		<path class="st0" d="M-23.6,316.6c2.2,0,4.6,0.3,6.7,2.1c2.2,1.9,2.5,4.4,2.5,6.2c0,3.2-1.2,5-2.2,6c-2,2.1-4.7,2.2-6.5,2.2h-3.6
			v8.9h-5.9v-25.4H-23.6z M-26.7,328.3h2.1c0.8,0,2.2,0,3.2-1c0.5-0.5,1-1.4,1-2.5c0-1.1-0.4-1.9-1-2.5c-0.9-0.8-2.1-1-3.3-1h-2
			V328.3z"/>
	</g>
	<g>
		<g>
			<path class="st0" d="M-21.6,368.6h-25.6c-2.5,0-4.6-2.1-4.6-4.6v-11.5c0-2.5,2.1-4.6,4.6-4.6h25.6c2.5,0,4.6,2.1,4.6,4.6v11.4
				C-17,366.5-19.1,368.6-21.6,368.6z"/>
			<path class="st1" d="M-21.6,351.8c0.4,0,0.7,0.3,0.7,0.7v11.4c0,0.4-0.3,0.7-0.7,0.7h-25.6c-0.4,0-0.7-0.3-0.7-0.7v-11.4
				c0-0.4,0.3-0.7,0.7-0.7H-21.6 M-21.6,347.9h-25.6c-2.5,0-4.6,2.1-4.6,4.6v11.4c0,2.5,2.1,4.6,4.6,4.6h25.6c2.5,0,4.6-2.1,4.6-4.6
				v-11.4C-17,350-19.1,347.9-21.6,347.9L-21.6,347.9z"/>
		</g>
		<g>
			<g>
				<path class="st3" d="M-39.3,361.4h-4.9l1.9-2.1c0.3-0.4,0.8-1,1-1.3c0.1-0.2,0.4-0.6,0.4-1.1c0-0.2-0.1-0.5-0.2-0.6
					c-0.1-0.1-0.3-0.2-0.6-0.2s-0.5,0.1-0.6,0.2c-0.2,0.2-0.3,0.5-0.3,0.8H-44c0-0.6,0.3-1.2,0.7-1.6c0.3-0.3,0.8-0.7,1.8-0.7
					c0.9,0,1.4,0.4,1.6,0.6c0.3,0.3,0.6,0.9,0.6,1.5c0,0.6-0.2,1-0.5,1.4s-0.6,0.7-1,1.1l-0.7,0.6h2.2L-39.3,361.4L-39.3,361.4z"/>
				<path class="st3" d="M-34.8,360.9c-0.4,0.4-0.9,0.7-1.7,0.7s-1.3-0.3-1.7-0.7c-0.6-0.6-0.9-1.6-0.9-2.7c0-1.1,0.3-2.1,0.9-2.7
					c0.4-0.4,0.9-0.7,1.7-0.7s1.3,0.3,1.7,0.7c0.6,0.6,0.9,1.6,0.9,2.7C-33.9,359.3-34.2,360.3-34.8,360.9z M-37.1,356.4
					c-0.5,0.5-0.5,1.4-0.5,1.8c0,0.5,0.1,1.4,0.5,1.8c0.2,0.2,0.3,0.2,0.6,0.2s0.4-0.1,0.6-0.2c0.4-0.4,0.5-1.3,0.5-1.8
					c0-0.4-0.1-1.4-0.5-1.8c-0.2-0.2-0.3-0.2-0.6-0.2S-36.9,356.2-37.1,356.4z"/>
				<path class="st3" d="M-32.8,356.3h-0.9v-1.2h2.4v6.4h-1.5V356.3z"/>
				<path class="st3" d="M-26.5,355.1l-1.7,2.1c0.2-0.1,0.4-0.1,0.7-0.1c0.8,0,1.3,0.3,1.6,0.6c0.2,0.2,0.6,0.7,0.6,1.5
					c0,0.6-0.2,1.3-0.6,1.7c-0.6,0.6-1.4,0.7-2,0.7s-1.4-0.1-2.1-0.7c-0.4-0.4-0.6-1-0.6-1.5c0-1,0.5-1.7,1-2.4l1.5-1.9L-26.5,355.1
					z M-27.2,360.1c0.2-0.2,0.3-0.4,0.3-0.8c0-0.4-0.2-0.6-0.3-0.8c-0.2-0.2-0.5-0.3-0.8-0.3s-0.6,0.1-0.8,0.3
					c-0.1,0.1-0.3,0.4-0.3,0.8c0,0.3,0.1,0.6,0.3,0.8c0.2,0.2,0.4,0.3,0.8,0.3C-27.6,360.3-27.3,360.2-27.2,360.1z"/>
			</g>
		</g>
		<g>
			<polygon class="st1" points="-259.9,347.7 -267.3,355 -264.6,357.6 -261,354.1 -261,366.8 -257.3,366.8 -257.3,354.1 
				-253.7,357.6 -251,355 -258.4,347.7 			"/>
			<polygon class="st1" points="-239.6,347.7 -246.9,355 -244.3,357.6 -240.7,354.1 -240.7,366.8 -236.9,366.8 -236.9,354.1 
				-233.3,357.6 -230.7,355 -238,347.7 			"/>
			<polygon class="st1" points="-216.6,360.4 -216.6,347.7 -220.3,347.7 -220.3,360.4 -223.9,356.8 -226.6,359.5 -219.2,366.8 
				-217.7,366.8 -210.4,359.5 -213,356.8 			"/>
			<polygon class="st1" points="-196.2,360.4 -196.2,347.7 -200,347.7 -200,360.4 -203.6,356.8 -206.2,359.5 -198.9,366.8 
				-197.3,366.8 -190,359.5 -192.7,356.8 			"/>
			<polygon class="st1" points="-177.4,351.8 -180,349.1 -187.3,356.4 -187.3,358 -180,365.3 -177.4,362.7 -180.9,359.1 
				-168.2,359.1 -168.2,355.4 -180.9,355.4 			"/>
			<polygon class="st1" points="-155.7,351.8 -152.1,355.4 -164.8,355.4 -164.8,359.1 -152.1,359.1 -155.7,362.7 -153,365.3 
				-145.7,358 -145.7,356.4 -153,349.1 			"/>
			<polygon class="st1" points="-132.3,351.8 -135,349.1 -142.3,356.4 -142.3,358 -135,365.3 -132.3,362.7 -135.9,359.1 
				-123.2,359.1 -123.2,355.4 -135.9,355.4 			"/>
			<polygon class="st1" points="-108.8,349.1 -111.4,351.8 -107.8,355.4 -120.5,355.4 -120.5,359.1 -107.8,359.1 -111.4,362.7 
				-108.8,365.3 -101.4,358 -101.4,356.4 			"/>
		</g>
		<g>
			<g>
				<circle class="st0" cx="-64.5" cy="358.3" r="8.4"/>
				<path class="st1" d="M-64.5,368.9c-5.9,0-10.6-4.8-10.6-10.6c0-5.9,4.8-10.6,10.6-10.6s10.6,4.8,10.6,10.6
					C-53.8,364.1-58.6,368.9-64.5,368.9z M-64.5,352.1c-3.4,0-6.2,2.8-6.2,6.2s2.8,6.2,6.2,6.2s6.2-2.8,6.2-6.2
					S-61.1,352.1-64.5,352.1z"/>
			</g>
			<g>
				<path class="st3" d="M-63.2,359.8h-2.4l-0.5,1.2h-1.5l2.6-6.4h1.4l2.5,6.4h-1.5L-63.2,359.8z M-63.6,358.7l-0.8-2.2l-0.8,2.2
					H-63.6z"/>
			</g>
		</g>
		<g>
			<g>
				<circle class="st0" cx="-87.2" cy="358.3" r="8.4"/>
				<path class="st1" d="M-87.2,368.9c-5.9,0-10.6-4.8-10.6-10.6c0-5.9,4.8-10.6,10.6-10.6s10.6,4.8,10.6,10.6
					C-76.5,364.1-81.3,368.9-87.2,368.9z M-87.2,352.1c-3.4,0-6.2,2.8-6.2,6.2s2.8,6.2,6.2,6.2s6.2-2.8,6.2-6.2
					S-83.8,352.1-87.2,352.1z"/>
			</g>
			<g>
				<path class="st3" d="M-87.2,354.6c0.3,0,1.1,0,1.6,0.5c0.4,0.4,0.5,0.9,0.5,1.2c0,0.2,0,0.5-0.2,0.8c-0.2,0.3-0.4,0.4-0.5,0.5
					c0.3,0,0.7,0.2,0.9,0.4s0.4,0.6,0.4,1.1c0,0.6-0.2,1-0.5,1.3c-0.5,0.5-1.3,0.5-1.7,0.5h-2.4v-6.4h1.9V354.6z M-87.7,357.2h0.2
					c0.2,0,0.5,0,0.8-0.2c0.1-0.1,0.3-0.3,0.3-0.6c0-0.3-0.1-0.5-0.2-0.5c-0.2-0.2-0.5-0.2-0.8-0.2h-0.2v1.5H-87.7z M-87.7,359.9
					h0.4c0.4,0,0.8,0,1.1-0.3c0.1-0.1,0.2-0.3,0.2-0.5c0-0.3-0.1-0.4-0.2-0.5c-0.3-0.2-0.8-0.2-1.1-0.2h-0.4V359.9z"/>
			</g>
		</g>
	</g>
</g>
</svg>
