<?xml version="1.0" encoding="utf-8"?>
<!-- Generator: Adobe Illustrator 19.1.0, SVG Export Plug-In . SVG Version: 6.00 Build 0)  -->
<svg version="1.1" id="Layer_1" xmlns="http://www.w3.org/2000/svg" xmlns:xlink="http://www.w3.org/1999/xlink" x="0px" y="0px"
	 viewBox="0 0 225.5 111.9" style="enable-background:new 0 0 225.5 111.9;" xml:space="preserve">
<style type="text/css">
	.st0{fill:#FBB040;}
	.st1{fill:#FFFFFF;}
	.st2{fill:#58595B;}
	.st3{fill:none;}
	.st4{fill:#231F20;}
</style>
<g>
	<g>
		<polygon class="st0" points="47.2,21.8 26.4,21.8 24.2,25.4 9.4,0.4 5.7,0.4 43.8,64.4 54.4,46.5 54.5,46.6 58.2,40.3 		"/>
		<polygon class="st0" points="58.2,88.6 58.2,88.6 86.9,88.6 72.5,64.5 		"/>
		<polygon class="st0" points="124.2,45 124.2,45 124.2,45 128.9,45 133.4,38.1 133.4,38.1 133.4,38.1 119.9,38.1 119.9,38.1 
			119.9,41.6 126.4,41.6 		"/>
		<path class="st0" d="M151.7,44.1c0-0.5-0.1-1-0.2-1.6c0.3,0.6,0.5,1.1,0.8,1.6c0.2,0.5,0.4,0.8,0.5,0.9l0,0h4l-5.1-7H148v7h3.8
			C151.8,44.7,151.8,44.4,151.7,44.1z"/>
		<rect x="158.3" y="38" class="st0" width="3.8" height="7"/>
		<rect x="148" y="45.5" class="st0" width="3.8" height="6.9"/>
		<path class="st0" d="M158.3,52.4h3.8v-6.9h-3.7c0,0.3,0,0.6,0,0.9c0,0.5,0.1,1,0.2,1.6c-0.3-0.6-0.6-1.2-0.8-1.6
			c-0.2-0.4-0.4-0.7-0.5-0.8h-4L158.3,52.4z"/>
		<polygon class="st0" points="167.4,46.7 172.1,46.7 172.1,45.5 163.6,45.5 163.6,52.4 172.3,52.4 172.3,49.2 167.4,49.2 		"/>
		<polygon class="st0" points="163.6,45 172.1,45 172.1,43.7 167.4,43.7 167.4,41.2 172.3,41.2 172.3,38 163.6,38 		"/>
		<path class="st0" d="M145,50.6c0.7-0.7,1.3-1.5,1.7-2.4c0.3-0.8,0.5-1.7,0.6-2.7h-3.9c0,1.1-0.4,2-1.1,2.8
			c-0.7,0.7-1.5,1.1-2.5,1.2v3.3c0.9,0,1.8-0.2,2.7-0.6C143.5,51.8,144.3,51.3,145,50.6z"/>
		<path class="st0" d="M143.4,45h3.9c0-0.9-0.2-1.8-0.6-2.7c-0.4-0.9-0.9-1.7-1.7-2.4c-0.7-0.7-1.6-1.2-2.5-1.6
			c-0.9-0.4-1.8-0.5-2.7-0.6V41c1,0.1,1.8,0.5,2.4,1.2C143,43,143.3,43.9,143.4,45z"/>
		<polygon class="st0" points="132.4,50.6 125.3,50.6 128.6,45.5 123.8,45.5 123.8,45.5 121.4,49.4 119.4,52.4 118.3,54.1 
			132.4,54.1 		"/>
		<path class="st0" d="M135.9,45.5h-3.9c0,0.9,0.2,1.8,0.6,2.6c0.4,0.9,0.9,1.7,1.7,2.4c0.7,0.7,1.5,1.2,2.5,1.6
			c0.9,0.4,1.8,0.5,2.7,0.6v-3.3c-1-0.1-1.8-0.4-2.5-1.2C136.3,47.5,135.9,46.6,135.9,45.5z"/>
		<path class="st0" d="M131.9,45h3.9c0-1.1,0.4-2,1.1-2.8c0.7-0.7,1.5-1.1,2.4-1.2v-3.3c-0.9,0-1.8,0.2-2.7,0.6
			c-0.9,0.4-1.8,0.9-2.5,1.6c-0.7,0.7-1.3,1.5-1.7,2.4C132.2,43.2,132,44.1,131.9,45z"/>
		<polygon class="st0" points="173.5,39.8 174,39.8 174,38.5 174.4,38.5 174.4,38 173.1,38 173.1,38.5 173.5,38.5 		"/>
		<path class="st0" d="M175.1,39c0-0.1,0-0.1,0-0.2c0-0.1,0-0.1,0-0.2c0,0.1,0,0.2,0.1,0.3c0,0,0,0,0,0.1l0.2,0.8h0.3L176,39
			c0,0,0,0,0-0.1c0-0.1,0.1-0.2,0.1-0.3c0,0.1,0,0.2,0,0.2c0,0.1,0,0.1,0,0.2l0.1,0.8h0.5l-0.3-1.8H176l-0.3,0.9c0,0.1,0,0.1,0,0.1
			c0,0,0,0.1,0,0.1c0-0.1,0-0.1,0-0.2c0,0,0,0,0,0l-0.3-0.9h-0.5l-0.3,1.8h0.5L175.1,39z"/>
		<polygon class="st0" points="102.7,91.5 99,95.2 100.3,96.6 102.1,94.8 102.1,101.2 104,101.2 104,94.8 105.8,96.6 107.1,95.2 
			103.4,91.5 		"/>
		<polygon class="st0" points="112.9,91.5 109.2,95.2 110.6,96.6 112.4,94.8 112.4,101.2 114.2,101.2 114.2,94.8 116.1,96.6 
			117.4,95.2 113.7,91.5 		"/>
		<polygon class="st0" points="124.5,98 124.5,91.5 122.6,91.5 122.6,98 120.8,96.2 119.5,97.5 123.2,101.2 123.9,101.2 127.6,97.5 
			126.3,96.2 		"/>
		<polygon class="st0" points="134.8,98 134.8,91.5 132.9,91.5 132.9,98 131.1,96.2 129.7,97.5 133.4,101.2 134.2,101.2 137.9,97.5 
			136.6,96.2 		"/>
		<polygon class="st0" points="144.3,93.6 142.9,92.3 139.3,96 139.3,96.8 142.9,100.5 144.3,99.1 142.5,97.3 148.9,97.3 
			148.9,95.4 142.5,95.4 		"/>
		<polygon class="st0" points="155.2,93.6 157,95.4 150.6,95.4 150.6,97.3 157,97.3 155.2,99.1 156.5,100.5 160.2,96.8 160.2,96 
			156.5,92.3 		"/>
		<polygon class="st0" points="167,93.6 165.6,92.3 162,96 162,96.8 165.6,100.5 167,99.1 165.2,97.3 171.6,97.3 171.6,95.4 
			165.2,95.4 		"/>
		<polygon class="st0" points="178.9,92.3 177.5,93.6 179.3,95.4 172.9,95.4 172.9,97.3 179.3,97.3 177.5,99.1 178.9,100.5 
			182.6,96.8 182.6,96 		"/>
	</g>
	<g>
		<path class="st1" d="M221.4,102.1h-10c-2.1,0-3.8-1.7-3.8-3.8v-2.9c0-2.1,1.7-3.8,3.8-3.8h10c2.1,0,3.8,1.7,3.8,3.8v2.9
			C225.1,100.4,223.4,102.1,221.4,102.1z"/>
		<path class="st0" d="M221.4,93.6c1,0,1.8,0.8,1.8,1.8v2.9c0,1-0.8,1.8-1.8,1.8h-10c-1,0-1.8-0.8-1.8-1.8v-2.9c0-1,0.8-1.8,1.8-1.8
			H221.4 M221.4,91.7h-10c-2.1,0-3.8,1.7-3.8,3.8v2.9c0,2.1,1.7,3.8,3.8,3.8h10c2.1,0,3.8-1.7,3.8-3.8v-2.9
			C225.1,93.4,223.4,91.7,221.4,91.7L221.4,91.7z"/>
	</g>
	<g>
		<circle class="st1" cx="201.2" cy="96.9" r="4.2"/>
		<path class="st0" d="M201.2,102.3c-3,0-5.4-2.4-5.4-5.4s2.4-5.4,5.4-5.4s5.4,2.4,5.4,5.4S204.2,102.3,201.2,102.3z M201.2,93.8
			c-1.7,0-3.1,1.4-3.1,3.1s1.4,3.1,3.1,3.1s3.1-1.4,3.1-3.1S202.9,93.8,201.2,93.8z"/>
	</g>
	<g>
		<g>
			<circle class="st1" cx="189.8" cy="96.9" r="4.2"/>
			<path class="st0" d="M189.8,102.3c-3,0-5.4-2.4-5.4-5.4s2.4-5.4,5.4-5.4c3,0,5.4,2.4,5.4,5.4S192.7,102.3,189.8,102.3z
				 M189.8,93.8c-1.7,0-3.1,1.4-3.1,3.1s1.4,3.1,3.1,3.1c1.7,0,3.1-1.4,3.1-3.1S191.5,93.8,189.8,93.8z"/>
		</g>
		<g>
			<polygon class="st2" points="69.2,21.8 59.1,38.8 63.5,46.3 78.1,21.8 86.2,8.2 94.1,21.6 96.1,24.9 110.7,0.4 94.1,0.4 
				39.1,0.4 37.7,2.8 49,21.8 			"/>
			<polygon class="st2" points="86.9,88.6 58.2,88.6 58.2,88.6 58.2,88.6 55.8,84.7 54.4,87 42.4,66.8 43.8,64.5 54.5,46.6 
				54.4,46.5 43.8,64.4 42.4,66.7 3.1,0.4 1.4,0.4 41.6,68.2 29.5,88.6 16.8,109.9 54.4,109.9 47.6,98.5 53.5,88.6 54.4,87 
				55.4,88.6 61.2,98.5 54.4,109.9 99.5,109.9 98.4,108.1 			"/>
			<path class="st2" d="M79.9,39.7c0.7,0,1.3,0.2,1.9,0.5c0.6,0.3,1.1,0.8,1.5,1.4l3.8-1.8c-0.8-1.2-1.8-2.1-3-2.8
				c-1.2-0.6-2.6-0.9-4.2-0.9c-1.2,0-2.3,0.2-3.4,0.6s-2,1-2.8,1.8c-0.8,0.8-1.4,1.7-1.8,2.7c-0.4,1-0.6,2.1-0.6,3.3
				c0,1.1,0.2,2.2,0.6,3.3c0.4,1,1,2,1.8,2.7c0.8,0.8,1.7,1.4,2.7,1.8c1,0.4,2.2,0.6,3.5,0.6c2.6,0,4.7-0.8,6.1-2.3
				c1.5-1.5,2.2-3.7,2.2-6.4c0-0.3,0-0.4,0-0.6c0-0.1,0-0.3,0-0.4h-8.6v3.4H84c-0.1,0.9-0.6,1.6-1.3,2.2c-0.7,0.5-1.7,0.8-2.8,0.8
				c-1.3,0-2.3-0.4-3.1-1.3c-0.8-0.9-1.1-2.1-1.1-3.6c0-1.5,0.4-2.7,1.1-3.6C77.6,40.1,78.6,39.7,79.9,39.7z"/>
			<rect x="89.1" y="38" class="st2" width="4" height="14.4"/>
			<path class="st2" d="M109,44.4c0-0.1,0-0.2,0-0.3h-7.7v3h3.9c-0.1,0.8-0.5,1.5-1.2,1.9c-0.7,0.5-1.5,0.7-2.5,0.7
				c-1.2,0-2.1-0.4-2.8-1.2c-0.7-0.8-1-1.9-1-3.2c0-1.4,0.3-2.4,1-3.2c0.7-0.8,1.6-1.2,2.8-1.2c0.6,0,1.2,0.1,1.7,0.4
				c0.5,0.3,1,0.7,1.4,1.2L108,41c-0.7-1.1-1.6-1.9-2.7-2.5c-1.1-0.6-2.3-0.8-3.7-0.8c-1.1,0-2.1,0.2-3,0.5
				c-0.9,0.4-1.8,0.9-2.5,1.6c-0.7,0.7-1.3,1.5-1.6,2.4c-0.4,0.9-0.5,1.9-0.5,3c0,1,0.2,2,0.6,2.9c0.4,0.9,0.9,1.7,1.6,2.4
				c0.7,0.7,1.5,1.3,2.4,1.6c0.9,0.3,1.9,0.5,3.1,0.5c2.4,0,4.2-0.7,5.5-2s2-3.3,2-5.7C109,44.7,109,44.5,109,44.4z"/>
			<path class="st2" d="M213.1,97.5c0.2-0.2,0.4-0.4,0.5-0.6c0.2-0.2,0.2-0.4,0.2-0.7c0-0.3-0.1-0.6-0.3-0.8
				c-0.1-0.1-0.4-0.3-0.8-0.3c-0.5,0-0.7,0.2-0.9,0.3c-0.2,0.2-0.3,0.5-0.3,0.8h0.7c0-0.1,0-0.3,0.1-0.4c0.1-0.1,0.2-0.1,0.3-0.1
				c0.1,0,0.2,0,0.3,0.1c0.1,0.1,0.1,0.2,0.1,0.3c0,0.2-0.1,0.4-0.2,0.5c-0.1,0.2-0.4,0.5-0.5,0.7l-1,1h2.5v-0.6h-1.1L213.1,97.5z"
				/>
			<path class="st2" d="M215.3,95.2c-0.4,0-0.7,0.1-0.9,0.3c-0.3,0.3-0.5,0.8-0.5,1.3c0,0.5,0.1,1,0.5,1.3c0.2,0.2,0.5,0.3,0.9,0.3
				c0.4,0,0.7-0.1,0.9-0.3c0.3-0.3,0.5-0.8,0.5-1.3c0-0.6-0.1-1-0.5-1.3C216,95.3,215.7,95.2,215.3,95.2z M215.6,97.8
				c-0.1,0.1-0.2,0.1-0.3,0.1s-0.2,0-0.3-0.1c-0.2-0.2-0.3-0.7-0.3-0.9c0-0.2,0-0.7,0.3-0.9c0.1-0.1,0.2-0.1,0.3-0.1s0.2,0,0.3,0.1
				c0.2,0.2,0.3,0.7,0.3,0.9C215.9,97.1,215.8,97.6,215.6,97.8z"/>
			<polygon class="st2" points="216.7,95.9 217.2,95.9 217.2,98.5 217.9,98.5 217.9,95.3 216.7,95.3 			"/>
			<path class="st2" d="M220.7,96.6c-0.1-0.1-0.4-0.3-0.8-0.3c-0.1,0-0.2,0-0.3,0.1l0.8-1.1l-0.8-0.1l-0.7,1
				c-0.3,0.4-0.5,0.7-0.5,1.2c0,0.3,0.1,0.6,0.3,0.8c0.3,0.3,0.7,0.4,1,0.4c0.3,0,0.7,0,1-0.4c0.2-0.2,0.3-0.6,0.3-0.9
				C220.9,96.9,220.8,96.7,220.7,96.6z M220,97.8c-0.1,0.1-0.2,0.1-0.4,0.1c-0.2,0-0.3-0.1-0.4-0.1c-0.1-0.1-0.2-0.2-0.2-0.4
				c0-0.2,0.1-0.4,0.2-0.4c0.1-0.1,0.2-0.1,0.4-0.1c0.1,0,0.3,0,0.4,0.1c0.1,0.1,0.2,0.2,0.2,0.4C220.2,97.6,220.1,97.7,220,97.8z"
				/>
			<path class="st2" d="M200.9,95.1l-1.3,3.2h0.8l0.2-0.6h1.2l0.2,0.6h0.8l-1.3-3.2H200.9z M200.8,97.1l0.4-1.1l0.4,1.1H200.8z"/>
			<path class="st2" d="M190.4,96.6c0.1,0,0.2-0.1,0.3-0.2c0.1-0.1,0.1-0.3,0.1-0.4c0-0.1,0-0.4-0.2-0.6c-0.3-0.2-0.7-0.2-0.8-0.2
				h-1v3.2h1.2c0.2,0,0.6,0,0.9-0.3c0.1-0.1,0.3-0.3,0.3-0.7c0-0.3-0.1-0.5-0.2-0.6C190.8,96.7,190.6,96.6,190.4,96.6z M189.5,95.6
				h0.1c0.1,0,0.3,0,0.4,0.1c0.1,0,0.1,0.1,0.1,0.3c0,0.1-0.1,0.2-0.1,0.3c-0.1,0.1-0.3,0.1-0.4,0.1h-0.1V95.6z M190.2,97.6
				c-0.1,0.1-0.4,0.1-0.6,0.1h-0.2v-0.8h0.2c0.2,0,0.4,0,0.5,0.1c0,0,0.1,0.1,0.1,0.3C190.3,97.4,190.3,97.5,190.2,97.6z"/>
		</g>
	</g>
</g>
<g>
	<g>
		<polygon class="st3" points="58.2,88.6 58.2,88.6 58.2,88.6 		"/>
		<polygon class="st3" points="69.2,21.8 49,21.8 59.1,38.8 		"/>
		<polygon class="st3" points="42.3,67.1 42.4,66.8 42.4,66.8 		"/>
		<polygon class="st3" points="72.5,64.5 72.5,64.5 86.9,88.6 86.9,88.6 		"/>
		<polygon class="st3" points="47.2,21.8 47.2,21.8 58.2,40.3 58.2,40.3 		"/>
	</g>
	<g>
		<g>
			<path class="st2" d="M121.4,49.4L117.4,38h-4.9l-5,14.4h3.9l0.7-2.6h5.6l0.7,2.6h0.9h3L121.4,49.4z M113.1,47l1.4-4.7
				c0.1-0.3,0.2-0.6,0.2-0.9c0.1-0.3,0.2-0.7,0.2-1c0.1,0.5,0.2,0.9,0.3,1.2c0.1,0.3,0.1,0.6,0.2,0.7L117,47H113.1z"/>
			<path class="st3" d="M115.3,41.6c-0.1-0.3-0.2-0.7-0.3-1.2c-0.1,0.4-0.2,0.7-0.2,1c-0.1,0.3-0.2,0.6-0.2,0.9l-1.4,4.7h3.9
				l-1.5-4.7C115.4,42.1,115.4,41.9,115.3,41.6z"/>
			<polygon class="st4" points="121.4,49.4 119.4,52.4 122.4,52.4 			"/>
		</g>
		<g>
			<polygon class="st4" points="62.6,47.8 62.6,47.8 58.2,40.3 58.2,40.3 54.5,46.6 43.8,64.5 42.4,66.8 54.4,87 55.8,84.7 
				58.2,88.6 72.5,64.5 72.5,64.5 64.8,51.4 			"/>
			<polygon class="st4" points="86.9,88.6 98.4,108.1 86.9,88.6 			"/>
			<polygon class="st4" points="47.2,21.8 36.8,4.2 26.4,21.8 47.2,21.8 			"/>
			<path class="st4" d="M93.7,68.9c1.5-1.5,2-3.9,2-5.5v-0.1h-6.5v2.4h3.2c-0.3,1-0.8,1.5-0.9,1.6c-0.3,0.3-1,0.7-2.3,0.7
				c-1,0-1.9-0.2-2.7-1c-0.6-0.6-1.1-1.5-1.1-3c0-1.2,0.4-2.3,1.1-3.1c0.6-0.7,1.5-1.1,2.7-1.1c0.7,0,1.4,0.2,2,0.6
				c0.5,0.4,0.9,0.9,1.2,1.4l2.7-1.5c-0.5-0.8-1.2-1.7-2.1-2.3c-1.2-0.8-2.6-1-3.7-1c-1.6,0-3.5,0.2-5.1,1.9c-1.1,1.1-1.9,2.8-1.9,5
				c0,2.6,1.2,4.2,1.9,5c1.5,1.6,3.2,1.8,4.8,1.8C90.6,70.7,92.2,70.4,93.7,68.9z"/>
			<path class="st4" d="M97.8,70.4l1-2.5h5l1,2.5h2.5h0.6h2.4l1-7.8l3.3,7.8h1.1l3.3-7.8l1,7.8h3L121,57.3h-2.5l-3.3,7.8l-3.3-7.8
				h-2.5l-1.9,12l-4.7-12H100l-5.3,13.1H97.8z M101.4,61.2l1.6,4.4h-3.2L101.4,61.2z"/>
			<rect x="123.9" y="57.3" class="st4" width="3" height="13.1"/>
			<polygon class="st4" points="131.4,61.9 138.5,70.4 141.2,70.4 141.2,57.3 138.2,57.3 138.2,65.8 131,57.3 128.4,57.3 
				128.4,70.4 131.4,70.4 			"/>
			<path class="st4" d="M148.7,70.7c1.6,0,3.2-0.3,4.7-1.8c1.5-1.5,2-3.9,2-5.5v-0.1h-6.5v2.4h3.2c-0.3,1-0.8,1.5-0.9,1.6
				c-0.3,0.3-1,0.7-2.3,0.7c-1,0-1.9-0.2-2.7-1c-0.6-0.6-1.1-1.5-1.1-3c0-1.2,0.4-2.3,1.1-3.1c0.6-0.7,1.5-1.1,2.7-1.1
				c0.7,0,1.4,0.2,2,0.6c0.5,0.4,0.9,0.9,1.2,1.4l2.7-1.5c-0.5-0.8-1.2-1.7-2.1-2.3c-1.2-0.8-2.6-1-3.7-1c-1.6,0-3.5,0.2-5.1,1.9
				c-1.1,1.1-1.9,2.8-1.9,5c0,2.6,1.2,4.2,1.9,5C145.4,70.5,147.1,70.7,148.7,70.7z"/>
			<path class="st4" d="M93.5,75.8c-1.2,1.1-2,2.9-2,4.9c0,2.1,0.9,3.8,2,5c1.1,1.1,2.7,1.9,5.1,1.9c0.8,0,1.7-0.1,2.9-0.7v-3.5
				c-1.2,1.1-2.2,1.4-3,1.4c-1.6,0-2.6-0.8-2.8-1.1c-0.6-0.6-1.1-1.5-1.1-2.9c0-1.3,0.5-2.3,1.2-3c0.7-0.7,1.6-1,2.7-1
				c1.4,0,2.4,0.7,3.1,1.4v-3.5c-1.3-0.6-2.3-0.7-3.1-0.7C96.3,73.9,94.6,74.7,93.5,75.8z"/>
			<polygon class="st4" points="110.7,79.2 105.5,79.2 105.5,74.2 102.5,74.2 102.5,87.3 105.5,87.3 105.5,81.8 110.7,81.8 
				110.7,87.3 113.7,87.3 113.7,74.2 110.7,74.2 			"/>
			<path class="st4" d="M137.5,74.2l-3.3,7.8l-3.3-7.8h-2.5l-1.9,12l-4.7-12H119l-5.3,13.1h3.1l1-2.5h5l1,2.5h2.5h0.6h2.4l1-7.8
				l3.3,7.8h1.1l3.3-7.8l1,7.8h3L140,74.2H137.5z M118.8,82.5l1.6-4.4l1.6,4.4H118.8z"/>
			<path class="st4" d="M147.5,74.2h-4.6v13.1h3v-4.6h1.8c0.9,0,2.3-0.1,3.3-1.2c0.5-0.5,1.1-1.4,1.1-3.1c0-0.9-0.2-2.2-1.3-3.2
				C149.9,74.4,148.7,74.2,147.5,74.2z M148.7,79.7c-0.5,0.5-1.2,0.5-1.6,0.5h-1.1v-3.6h1c0.6,0,1.2,0.1,1.7,0.5
				c0.3,0.3,0.5,0.7,0.5,1.3C149.1,79,148.9,79.5,148.7,79.7z"/>
			<rect x="152.7" y="74.2" class="st4" width="3" height="13.1"/>
			<path class="st4" d="M163.8,73.9c-2.6,0-4.2,1-5.1,1.9c-1.2,1.2-2,3.1-2,5c0,1.9,0.8,3.7,2,4.9c1,0.9,2.7,1.9,5.1,1.9
				c2.2,0,3.9-0.7,5.1-1.9c1.4-1.4,2-3.2,2-4.9c0-2-0.8-3.8-2-5C167.5,74.5,165.8,73.9,163.8,73.9z M166.6,83.7
				c-0.6,0.6-1.6,1.1-2.9,1.1c-1,0-2-0.3-2.8-1.1c-0.8-0.8-1.2-1.7-1.2-2.9c0-1.5,0.6-2.4,1.2-3c0.7-0.7,1.7-1.1,2.9-1.1
				c1.2,0,2.2,0.5,2.9,1.1c0.6,0.6,1.1,1.6,1.1,2.9C167.8,82.3,167.2,83.2,166.6,83.7z"/>
			<polygon class="st4" points="181.4,82.7 174.3,74.2 171.7,74.2 171.7,87.3 174.7,87.3 174.7,78.8 181.8,87.3 184.5,87.3 
				184.5,74.2 181.4,74.2 			"/>
			<path class="st4" d="M191.7,79.6l-1-0.4c-0.9-0.3-1.3-0.5-1.7-0.7c-0.2-0.2-0.3-0.4-0.3-0.7c0-0.3,0.1-0.6,0.3-0.8
				c0.4-0.4,0.9-0.5,1.3-0.5c0.4,0,1.2,0.1,2.2,0.9l1.4-2.2c-1.5-1.1-3-1.3-3.9-1.3c-1.2,0-2.3,0.3-3.2,1.2
				c-0.8,0.8-1.1,1.8-1.1,2.9c0,0.6,0.1,1.6,0.8,2.3c0.5,0.6,1.2,0.8,1.8,1l1.1,0.4c0.4,0.1,1.2,0.4,1.5,0.7
				c0.3,0.2,0.5,0.5,0.5,0.9c0,0.5-0.2,0.8-0.5,1.1c-0.4,0.4-1,0.5-1.4,0.5c-0.6,0-1.1-0.2-1.7-0.5c-0.4-0.2-0.9-0.7-1.2-1l-1.6,2.2
				c0.5,0.5,1.3,1.1,1.9,1.4c0.8,0.4,1.7,0.6,2.6,0.6c0.9,0,2.6-0.1,3.7-1.3c0.7-0.7,1.2-1.9,1.2-3.2c0-0.8-0.2-1.7-1-2.4
				C193,80.1,192.3,79.8,191.7,79.6z"/>
			<polygon class="st4" points="203.4,79.2 198.2,79.2 198.2,74.2 195.2,74.2 195.2,87.3 198.2,87.3 198.2,81.8 203.4,81.8 
				203.4,87.3 206.5,87.3 206.5,74.2 203.4,74.2 			"/>
			<rect x="207.9" y="74.2" class="st4" width="3" height="13.1"/>
			<path class="st4" d="M220.5,75.3c-1-0.9-2.3-1.1-3.4-1.1h-4.6v13.1h3v-4.6h1.8c0.9,0,2.3-0.1,3.3-1.2c0.5-0.5,1.1-1.4,1.1-3.1
				C221.7,77.6,221.6,76.3,220.5,75.3z M218.2,79.7c-0.5,0.5-1.2,0.5-1.6,0.5h-1.1v-3.6h1c0.6,0,1.2,0.1,1.7,0.5
				c0.3,0.3,0.5,0.7,0.5,1.3C218.6,79,218.4,79.5,218.2,79.7z"/>
		</g>
	</g>
</g>
</svg>
