<?xml version="1.0" encoding="utf-8"?>
<!-- Generator: Adobe Illustrator 19.1.0, SVG Export Plug-In . SVG Version: 6.00 Build 0)  -->
<svg version="1.1" id="Layer_1" xmlns="http://www.w3.org/2000/svg" xmlns:xlink="http://www.w3.org/1999/xlink" x="0px" y="0px"
	 viewBox="0 0 130.8 130.8" style="enable-background:new 0 0 130.8 130.8;" xml:space="preserve">
<style type="text/css">
	.st0{fill:#FFFFFF;}
	.st1{fill:#FBB040;}
	.st2{fill:#020000;}
	.st3{fill:#58595B;}
</style>
<g>
	<circle class="st0" cx="65.3" cy="65.4" r="27.6"/>
	<g>
		<path class="st1" d="M66.3,106.9c10.3-0.2,19.6-4.2,26.7-10.6l-2.8-2.8c-6.4,5.7-14.7,9.2-23.9,9.4V106.9z"/>
		<path class="st1" d="M101.9,74.2c-1.1,4.6-3,8.8-5.7,12.6c-1.3,1.9-2.9,3.7-4.5,5.4l2.8,2.8c1.8-1.8,3.5-3.8,5-5.9
			c2.9-4.2,5-8.9,6.3-13.9c0.5-2.2,0.9-4.5,1.1-6.9h-4C102.7,70.3,102.3,72.3,101.9,74.2z"/>
		<path class="st1" d="M64.3,27.9v-4c-11.2,0.3-21.3,4.9-28.6,12.4l2.8,2.8C45.2,32.4,54.2,28.1,64.3,27.9z"/>
		<path class="st1" d="M40.4,93.6l-2.8,2.8c7.1,6.4,16.4,10.3,26.7,10.6v-4C55.2,102.7,46.8,99.2,40.4,93.6z"/>
		<path class="st1" d="M32.1,82.9c-2.3-4.4-3.8-9.4-4.2-14.7h-4c0.4,5.9,2,11.5,4.7,16.5c2,3.8,4.6,7.2,7.6,10.2l2.8-2.8
			C36.2,89.5,33.9,86.4,32.1,82.9z"/>
		<path class="st1" d="M92.1,39.1l2.8-2.8c-7.3-7.4-17.4-12.1-28.6-12.4v4C76.4,28.1,85.5,32.4,92.1,39.1z"/>
		<path class="st1" d="M97.5,45.9c1.1,1.8,2.1,3.7,2.8,5.7c1.7,4.3,2.6,8.9,2.6,13.8c0,0.3,0,0.6,0,0.8h4c0-0.3,0-0.6,0-0.8
			c0-5.4-1-10.5-2.9-15.2c-0.9-2.2-1.9-4.3-3.1-6.3c-1.3-2.2-2.9-4.2-4.6-6.1l-2.8,2.8C95,42.2,96.3,44,97.5,45.9z"/>
		<path class="st1" d="M30.5,51.3c1.6-4,3.9-7.6,6.7-10.7l-2.8-2.8c-3.2,3.5-5.7,7.6-7.5,12c-2,4.8-3.1,10.1-3.1,15.7
			c0,0.3,0,0.6,0,0.8h4c0-0.3,0-0.6,0-0.8C27.7,60.4,28.7,55.6,30.5,51.3z"/>
		<path class="st2" d="M36,80.9c-2-3.8-3.3-8.1-3.7-12.6h-4.4c0.4,5.3,1.9,10.2,4.2,14.7c1.8,3.4,4.2,6.6,6.9,9.3l3.1-3.1
			C39.6,86.7,37.6,83.9,36,80.9z"/>
		<path class="st2" d="M66.3,98.6v4.4c9.2-0.2,17.5-3.7,23.9-9.4l-3.1-3.1C81.5,95.3,74.3,98.4,66.3,98.6z"/>
		<path class="st2" d="M64.3,98.6c-7.9-0.2-15.2-3.3-20.8-8.1l-3.1,3.1c6.4,5.7,14.7,9.2,23.9,9.4V98.6z"/>
		<path class="st2" d="M89,42.2l3.1-3.1c-6.6-6.7-15.7-10.9-25.8-11.2v4.4C75.2,32.5,83.2,36.3,89,42.2z"/>
		<path class="st2" d="M100.3,51.7c-0.8-2-1.7-3.9-2.8-5.7c-1.2-1.9-2.5-3.7-4-5.4l-3.1,3.1c1.2,1.4,2.4,2.9,3.4,4.6
			c1,1.6,1.8,3.3,2.5,5.1c1.5,3.8,2.3,7.9,2.3,12.2c0,0.3,0,0.6,0,0.8h4.4c0-0.3,0-0.6,0-0.8C102.9,60.6,102,55.9,100.3,51.7z"/>
		<path class="st2" d="M97.6,73.2c-1,4.1-2.7,7.8-5,11.1c-1.2,1.7-2.5,3.3-4,4.8l3.1,3.1c1.7-1.6,3.2-3.4,4.5-5.4
			c2.6-3.8,4.6-8,5.7-12.6c0.5-1.9,0.8-3.9,0.9-6h-4.4C98.3,69.9,98,71.6,97.6,73.2z"/>
		<path class="st2" d="M64.3,32.3v-4.4c-10.1,0.3-19.2,4.5-25.8,11.2l3.1,3.1C47.5,36.3,55.5,32.5,64.3,32.3z"/>
		<path class="st2" d="M32.1,65.4c0-4.4,0.9-8.7,2.5-12.5c1.4-3.4,3.3-6.5,5.7-9.3l-3.1-3.1c-2.8,3.2-5.1,6.8-6.7,10.7
			c-1.8,4.4-2.8,9.2-2.8,14.2c0,0.3,0,0.6,0,0.8h4.4C32.2,66,32.1,65.7,32.1,65.4z"/>
	</g>
	<g>
		<g>
			<path class="st3" d="M76.4,60.1H66v-8.9h22.9c-4.8-7.9-13.6-13.3-23.6-13.3C53.8,37.9,43.9,45,39.8,55c0.1-0.1,0.1-0.1,0.2-0.2
				c1.5-1.5,3.2-2.6,5.2-3.3c2-0.8,4.1-1.1,6.3-1.1c3.1,0,5.8,0.7,8.2,2c2.4,1.3,4.3,3.3,5.9,5.9l-9.6,3.6c-0.5-0.8-1.1-1.5-1.8-1.9
				c-0.7-0.4-1.5-0.6-2.4-0.6c-1.6,0-2.9,0.6-3.8,1.8c-1,1.2-1.4,2.8-1.4,4.9c0,2.1,0.5,3.8,1.4,4.9c1,1.2,2.3,1.8,4.1,1.8
				c1,0,1.9-0.2,2.5-0.7c0.6-0.4,1-1,1.2-1.8h-4.7v-7.1h16.6c0,0.6,0,1.1,0.1,1.4c0,0.3,0,0.6,0,0.8c0,1.7-0.2,3.3-0.5,4.7
				c-0.3,1.4-0.8,2.7-1.4,3.8c-1.5,2.6-3.5,4.5-5.9,5.9c-2.4,1.4-5.2,2-8.2,2c-2.3,0-4.4-0.4-6.3-1.1c-1.5-0.6-2.9-1.4-4.2-2.5
				C45.6,87,54.8,93,65.3,93C74.7,93,83,88.3,88,81.1H63L76.4,60.1z"/>
			<g>
				<path class="st3" d="M42.9,14.2C38,18.4,33.7,24,30.3,30.6c-0.1,0-0.1,0.1-0.2,0.1l0.1,0.1l5.5,5.5c7.3-7.4,17.4-12.1,28.6-12.4
					v-1.4v-17c-5.2,0.2-10.3,1.6-14.9,4.2C47.2,10.9,45,12.5,42.9,14.2z"/>
				<path class="st3" d="M118.4,45.3c-3.9-5.3-9.4-10-16-13.7l-1.1,1.1l-5,5c1.7,1.9,3.2,4,4.6,6.1c1.2,2,2.3,4.1,3.1,6.3
					c1.9,4.7,2.9,9.8,2.9,15.2c0,0.3,0,0.6,0,0.8h1.5h17c0-0.3,0-0.6,0-1C125.3,58.1,122.8,51.3,118.4,45.3z"/>
				<path class="st3" d="M23.8,66.3c0-0.3,0-0.6,0-0.8c0-5.5,1.1-10.8,3.1-15.7c1.8-4.5,4.4-8.5,7.5-12l-5.1-5.1l-1-1
					c-4.7,2.7-8.9,5.8-12.3,9.4c-4.2,4.3-7.2,9.2-9,14.4c-1.1,3.2-1.7,6.6-1.6,10.1c0,0.2,0,0.5,0,0.7h17H23.8z"/>
				<path class="st3" d="M93,96.4c-7.1,6.4-16.4,10.3-26.7,10.6v1.5v17c6.9-0.2,13.4-2.7,19.1-6.9c5.3-3.9,10-9.4,13.7-16l-1.1-1.1
					L93,96.4z"/>
				<path class="st3" d="M100.4,30.8l0.2-0.2c-0.1-0.1-0.3-0.1-0.4-0.2c-2.9-5.6-6.4-10.4-10.5-14.3c-4.3-4.2-9.2-7.2-14.4-9
					c-2.9-1-5.9-1.5-8.9-1.6v16.9v1.5c11.2,0.3,21.3,4.9,28.6,12.4L100.4,30.8z"/>
				<path class="st3" d="M32.5,101.5l-1,1c4.6,8.2,10.7,14.6,17.7,18.6c4.7,2.6,9.8,4.2,15.1,4.4v-17v-1.5
					c-10.3-0.2-19.6-4.2-26.7-10.6L32.5,101.5z"/>
				<path class="st3" d="M28.6,84.8c-2.6-5-4.3-10.6-4.7-16.5h-1.5H5.5c0.4,4.6,1.8,9,4.1,13.1c1.3,2.3,2.8,4.5,4.5,6.6
					c4.2,4.9,9.8,9.2,16.3,12.6c0,0.1,0.1,0.1,0.1,0.2l0.1-0.1l5.5-5.5C33.2,92,30.6,88.6,28.6,84.8z"/>
				<path class="st3" d="M106.8,68.3c-0.2,2.4-0.5,4.7-1.1,6.9c-1.2,5.1-3.4,9.8-6.3,13.9c-1.5,2.1-3.1,4.1-5,5.9l5.5,5.5l0.2,0.2
					c0.1-0.1,0.1-0.2,0.2-0.4c9.1-4.7,16.3-11.2,20.6-18.8c2.3-4.1,3.8-8.6,4.2-13.3h-16.9H106.8z"/>
				<path class="st3" d="M92.1,71.9c0.5-2.1,0.8-4.2,0.8-6.5c0-3.6-0.7-7-1.9-10.1L80.6,71.9H92.1z"/>
			</g>
			<path class="st1" d="M91,55.3c-0.6-1.5-1.3-2.9-2.1-4.2H66v8.9h10.5L63,81.1h25c1.9-2.8,3.3-5.9,4.1-9.2H80.6L91,55.3z"/>
		</g>
		<g>
			<path class="st1" d="M90.8,81.1v-1.3h-0.4v-0.4h1.2v0.4h-0.4v1.3H90.8z"/>
			<path class="st1" d="M93.9,81.1h-0.4l-0.1-0.7c0-0.1,0-0.1,0-0.2c0-0.1,0-0.1,0-0.2c0,0.1,0,0.2-0.1,0.3c0,0,0,0,0,0.1L93,81.1
				h-0.3l-0.2-0.8c0,0,0,0,0-0.1c0-0.1-0.1-0.2-0.1-0.3c0,0.1,0,0.1,0,0.2c0,0.1,0,0.1,0,0.2l-0.1,0.7h-0.4l0.3-1.7h0.5l0.3,0.9
				c0,0,0,0,0,0c0,0.1,0,0.1,0,0.2c0,0,0-0.1,0-0.1c0,0,0-0.1,0-0.1l0.3-0.9h0.5L93.9,81.1z"/>
		</g>
	</g>
	<g>
		<g>
			<path class="st1" d="M65.5,130.2l0-0.5l0-0.5c1,0,2,0,3-0.1l0.1,1C67.5,130.2,66.5,130.2,65.5,130.2z M64.4,130.2
				c-1,0-2.1-0.1-3.1-0.2l0.1-1c1,0.1,2,0.2,3,0.2L64.4,130.2z M69.6,130l-0.1-1c1-0.1,2-0.3,3-0.5l0.2,1
				C71.6,129.7,70.6,129.9,69.6,130z M60.3,129.9c-1-0.2-2-0.4-3-0.6l0.2-1c1,0.2,2,0.4,2.9,0.6L60.3,129.9z M73.6,129.2l-0.2-1
				c1-0.2,1.9-0.5,2.9-0.8l0.3,1C75.6,128.7,74.6,129,73.6,129.2z M56.3,129c-1-0.3-2-0.6-2.9-1l0.4-0.9c0.9,0.4,1.9,0.7,2.9,0.9
				L56.3,129z M77.5,128l-0.4-0.9c0.9-0.3,1.9-0.7,2.8-1.2l0.4,0.9C79.4,127.3,78.5,127.7,77.5,128z M52.4,127.7
				c-0.9-0.4-1.9-0.8-2.8-1.3l0.5-0.9c0.9,0.5,1.8,0.9,2.7,1.2L52.4,127.7z M81.3,126.4l-0.5-0.9c0.9-0.4,1.8-0.9,2.6-1.5l0.5,0.9
				C83.1,125.4,82.2,125.9,81.3,126.4z M48.7,125.9c-0.3-0.1-0.6-0.3-0.8-0.5c-0.6-0.3-1.2-0.7-1.8-1.1l0.5-0.9
				c0.6,0.4,1.2,0.7,1.8,1.1c0.3,0.2,0.5,0.3,0.8,0.4L48.7,125.9z M84.9,124.3l-0.5-0.9c0.8-0.5,1.5-1,2.3-1.6l0.2-0.1l0.6,0.8
				l-0.2,0.1C86.5,123.3,85.7,123.8,84.9,124.3z M45.1,123.8c-0.8-0.6-1.7-1.2-2.5-1.8l0.6-0.8c0.8,0.6,1.6,1.2,2.4,1.8L45.1,123.8z
				 M88.2,121.9l-0.6-0.8c0.8-0.6,1.6-1.3,2.3-1.9l0.7,0.8C89.8,120.7,89,121.3,88.2,121.9z M41.9,121.4c-0.8-0.6-1.6-1.3-2.3-2
				l0.7-0.7c0.7,0.7,1.5,1.4,2.3,2L41.9,121.4z M91.3,119.3l-0.7-0.7c0.7-0.7,1.4-1.4,2.1-2.1l0.7,0.7
				C92.8,117.9,92.1,118.6,91.3,119.3z M38.8,118.6c-0.7-0.7-1.4-1.4-2.1-2.2l0.7-0.7c0.7,0.7,1.4,1.5,2.1,2.2L38.8,118.6z
				 M94.2,116.4l-0.7-0.7c0.7-0.7,1.3-1.5,2-2.3l0.8,0.6C95.6,114.8,94.9,115.6,94.2,116.4z M36,115.7c-0.7-0.8-1.3-1.5-2-2.4
				l0.8-0.6c0.6,0.8,1.3,1.6,1.9,2.3L36,115.7z M96.9,113.2l-0.8-0.6c0.6-0.8,1.2-1.6,1.8-2.4l0.8,0.6
				C98.1,111.6,97.5,112.4,96.9,113.2z M33.4,112.5c-0.6-0.8-1.2-1.6-1.8-2.5l0.8-0.6c0.6,0.8,1.2,1.7,1.8,2.4L33.4,112.5z
				 M99.3,109.9l-0.8-0.6c0.6-0.8,1.1-1.7,1.6-2.5l0.9,0.5C100.4,108.2,99.8,109.1,99.3,109.9z M31,109.2c-0.6-0.8-1.1-1.7-1.6-2.6
				l0.9-0.5c0.5,0.9,1.1,1.7,1.6,2.6L31,109.2z M101.5,106.5l-0.9-0.5c0.5-0.9,1-1.7,1.5-2.6l0.9,0.5
				C102.5,104.7,102,105.6,101.5,106.5z M28.8,105.7c-0.5-0.9-1-1.8-1.5-2.7l0.9-0.5c0.5,0.9,0.9,1.8,1.4,2.7L28.8,105.7z
				 M103.4,102.9l-0.9-0.5c0.5-0.9,0.9-1.8,1.3-2.7l0.9,0.4C104.3,101.1,103.9,102,103.4,102.9z M26.9,102.1
				c-0.4-0.9-0.9-1.8-1.3-2.8l0.9-0.4c0.4,0.9,0.8,1.8,1.3,2.7L26.9,102.1z M105.2,99.2l-0.9-0.4c0.4-0.9,0.8-1.8,1.2-2.8l0.9,0.4
				C106,97.3,105.6,98.3,105.2,99.2z M25.2,98.4c-0.4-0.9-0.8-1.9-1.1-2.8l0.9-0.4c0.4,0.9,0.7,1.9,1.1,2.8L25.2,98.4z M106.7,95.4
				l-0.9-0.4c0.4-0.9,0.7-1.9,1-2.9l1,0.3C107.4,93.5,107.1,94.5,106.7,95.4z M23.7,94.6c-0.3-1-0.7-1.9-1-2.9l1-0.3
				c0.3,1,0.6,1.9,1,2.9L23.7,94.6z M108,91.5l-1-0.3c0.3-1,0.6-1.9,0.9-2.9l1,0.3C108.6,89.6,108.3,90.6,108,91.5z M22.4,90.7
				c-0.3-1-0.6-2-0.8-2.9l1-0.3c0.3,1,0.5,2,0.8,2.9L22.4,90.7z M109.2,87.6l-1-0.3c0.3-1,0.5-2,0.7-2.9l1,0.2
				C109.7,85.6,109.4,86.6,109.2,87.6z M21.3,86.7c-0.2-1-0.5-2-0.7-3l1-0.2c0.2,1,0.4,2,0.7,2.9L21.3,86.7z M110.1,83.6l-1-0.2
				c0.2-1,0.4-2,0.6-3l1,0.2C110.5,81.6,110.3,82.6,110.1,83.6z M20.4,82.8c-0.2-1-0.4-2-0.5-3l1-0.2c0.2,1,0.3,2,0.5,3L20.4,82.8z
				 M110.8,79.6l-1-0.2c0.2-1,0.3-2,0.4-3l1,0.1C111.1,77.6,111,78.6,110.8,79.6z M19.7,78.7c-0.2-1-0.3-2-0.4-3l1-0.1
				c0.1,1,0.2,2,0.4,3L19.7,78.7z M111.4,75.6l-1-0.1c0.1-1,0.2-2,0.3-3l1,0.1C111.6,73.5,111.5,74.6,111.4,75.6z M19.2,74.7
				c-0.1-1-0.2-2-0.3-3.1l1-0.1c0.1,1,0.2,2,0.3,3L19.2,74.7z M111.8,71.5l-1-0.1c0.1-1,0.1-2,0.1-3l1,0
				C111.9,69.5,111.8,70.5,111.8,71.5z M18.9,70.6c-0.1-1-0.1-2-0.1-3.1l1,0c0,1,0.1,2,0.1,3L18.9,70.6z M111.9,67.4l-1,0
				c0-0.6,0-1.2,0-1.9l0-1.2l1,0l0,1.2C112,66.2,111.9,66.8,111.9,67.4z M18.7,66.5l0-1.2c0-0.6,0-1.2,0-1.9l1,0c0,0.6,0,1.2,0,1.8
				l0,1.2L18.7,66.5z M110.9,63.4c0-1-0.1-2-0.1-3l1-0.1c0.1,1,0.1,2,0.1,3.1L110.9,63.4z M19.8,62.5l-1,0c0-1,0.1-2,0.1-3.1l1,0.1
				C19.9,60.5,19.8,61.5,19.8,62.5z M110.7,59.3c-0.1-1-0.2-2-0.3-3l1-0.1c0.1,1,0.2,2,0.3,3.1L110.7,59.3z M20,58.5l-1-0.1
				c0.1-1,0.2-2,0.3-3l1,0.1C20.2,56.4,20.1,57.4,20,58.5z M110.4,55.3c-0.1-1-0.2-2-0.4-3l1-0.2c0.2,1,0.3,2,0.4,3L110.4,55.3z
				 M20.4,54.4l-1-0.1c0.1-1,0.3-2,0.4-3l1,0.2C20.7,52.4,20.5,53.4,20.4,54.4z M109.8,51.3c-0.2-1-0.3-2-0.5-3l1-0.2
				c0.2,1,0.4,2,0.5,3L109.8,51.3z M21,50.5l-1-0.2c0.2-1,0.4-2,0.6-3l1,0.2C21.3,48.5,21.2,49.5,21,50.5z M109.1,47.4
				c-0.2-1-0.4-2-0.7-2.9l1-0.2c0.2,1,0.5,2,0.7,3L109.1,47.4z M21.8,46.5l-1-0.2c0.2-1,0.5-2,0.7-3l1,0.3
				C22.2,44.5,22,45.5,21.8,46.5z M108.1,43.4c-0.3-1-0.5-2-0.8-2.9l1-0.3c0.3,1,0.6,2,0.8,2.9L108.1,43.4z M22.7,42.6l-1-0.3
				c0.3-1,0.6-2,0.9-2.9l1,0.3C23.3,40.6,23,41.6,22.7,42.6z M107,39.6c-0.3-1-0.6-1.9-1-2.9l1-0.3c0.3,1,0.7,1.9,1,2.9L107,39.6z
				 M23.9,38.7l-1-0.3c0.3-1,0.7-1.9,1-2.9l0.9,0.4C24.5,36.8,24.2,37.7,23.9,38.7z M105.7,35.7c-0.4-0.9-0.7-1.9-1.1-2.8l0.9-0.4
				c0.4,0.9,0.8,1.9,1.1,2.8L105.7,35.7z M25.3,34.9l-0.9-0.4c0.4-1,0.8-1.9,1.2-2.8l0.9,0.4C26,33,25.6,34,25.3,34.9z M104.1,32
				c-0.4-0.9-0.8-1.8-1.3-2.7l0.9-0.4c0.4,0.9,0.9,1.8,1.3,2.8L104.1,32z M26.8,31.2l-0.9-0.4c0.4-0.9,0.9-1.9,1.3-2.8l0.9,0.5
				C27.7,29.4,27.2,30.3,26.8,31.2z M102.4,28.4c-0.5-0.9-0.9-1.8-1.4-2.7l0.9-0.5c0.5,0.9,1,1.8,1.5,2.7L102.4,28.4z M28.6,27.6
				l-0.9-0.5c0.5-0.9,1-1.8,1.5-2.7l0.9,0.5C29.6,25.8,29.1,26.7,28.6,27.6z M100.5,24.9c-0.5-0.9-1.1-1.7-1.6-2.6l0.8-0.6
				c0.6,0.8,1.1,1.7,1.6,2.6L100.5,24.9z M30.6,24.1l-0.9-0.5c0.5-0.9,1.1-1.7,1.7-2.6l0.8,0.6C31.7,22.4,31.1,23.2,30.6,24.1z
				 M98.3,21.5c-0.6-0.8-1.2-1.7-1.8-2.4l0.8-0.6c0.6,0.8,1.2,1.6,1.8,2.5L98.3,21.5z M32.8,20.7L32,20.1c0.6-0.8,1.2-1.7,1.8-2.5
				l0.8,0.6C34,19.1,33.4,19.9,32.8,20.7z M95.9,18.2c-0.6-0.8-1.3-1.6-1.9-2.3l0.8-0.7c0.7,0.8,1.3,1.6,2,2.4L95.9,18.2z
				 M35.2,17.5l-0.8-0.6c0.7-0.8,1.3-1.6,2-2.3l0.7,0.7C36.5,15.9,35.8,16.7,35.2,17.5z M93.3,15.1c-0.7-0.7-1.4-1.5-2.1-2.2
				l0.7-0.7c0.7,0.7,1.5,1.5,2.1,2.2L93.3,15.1z M37.9,14.5l-0.7-0.7c0.7-0.7,1.4-1.5,2.2-2.2l0.7,0.7C39.3,13,38.5,13.7,37.9,14.5z
				 M90.5,12.3c-0.7-0.7-1.5-1.4-2.3-2l0.6-0.8c0.8,0.6,1.6,1.3,2.3,2L90.5,12.3z M40.7,11.7l-0.7-0.8c0.3-0.3,0.6-0.5,0.9-0.8
				c0.5-0.4,1-0.8,1.5-1.2L43,9.7c-0.5,0.4-1,0.8-1.4,1.2C41.3,11.2,41,11.4,40.7,11.7z M87.4,9.7c-0.8-0.6-1.6-1.2-2.4-1.8l0.6-0.8
				c0.8,0.6,1.7,1.2,2.5,1.8L87.4,9.7z M43.8,9.1l-0.6-0.8c0.8-0.6,1.7-1.2,2.5-1.7l0.5,0.9C45.5,8,44.6,8.5,43.8,9.1z M84.2,7.4
				c-0.9-0.5-1.7-1.1-2.6-1.5L82,5c0.9,0.5,1.8,1,2.7,1.6L84.2,7.4z M47.2,6.9L46.6,6c0.5-0.3,0.9-0.6,1.4-0.8
				c0.4-0.2,0.8-0.5,1.3-0.7l0.5,0.9c-0.4,0.2-0.8,0.4-1.2,0.7C48.1,6.3,47.6,6.6,47.2,6.9z M80.7,5.4c-0.9-0.5-1.8-0.9-2.7-1.2
				l0.4-0.9c0.9,0.4,1.9,0.8,2.8,1.3L80.7,5.4z M50.7,5l-0.4-0.9c0.9-0.4,1.9-0.8,2.8-1.2l0.4,0.9C52.5,4.2,51.6,4.6,50.7,5z
				 M77,3.8c-0.4-0.1-0.8-0.3-1.2-0.4c-0.6-0.2-1.1-0.4-1.7-0.5l0.3-1c0.6,0.2,1.2,0.3,1.7,0.5c0.4,0.1,0.8,0.3,1.2,0.4L77,3.8z
				 M54.4,3.5l-0.3-1c1-0.3,2-0.6,3-0.9l0.2,1C56.3,2.9,55.3,3.2,54.4,3.5z M73.2,2.6c-1-0.2-2-0.4-2.9-0.6l0.2-1c1,0.2,2,0.4,3,0.6
				L73.2,2.6z M58.2,2.4l-0.2-1c1-0.2,2-0.4,3-0.5l0.1,1C60.2,2,59.2,2.2,58.2,2.4z M69.2,1.9c-1-0.1-2-0.2-3-0.2l0-1
				c1,0,2.1,0.1,3.1,0.2L69.2,1.9z M62.2,1.8l-0.1-1c1-0.1,2.1-0.1,3.1-0.1l0.1,0.5v0.5h-0.1C64.2,1.6,63.2,1.7,62.2,1.8z"/>
		</g>
		<g>
			<path class="st1" d="M65.2,112c-0.6,0-1.2,0-1.9,0l0-1c0.6,0,1.2,0,1.8,0l0.2,0c0.3,0,0.7,0,1,0l0,1c-0.3,0-0.7,0-1,0L65.2,112z
				 M67.5,112l0-1c1,0,2-0.1,3-0.1l0.1,1C69.5,112,68.5,112,67.5,112z M62.4,112c-1,0-2-0.1-3.1-0.1l0.1-1c1,0.1,2,0.1,3,0.1
				L62.4,112z M71.5,111.8l-0.1-1c1-0.1,2-0.2,3-0.3l0.1,1C73.6,111.7,72.6,111.8,71.5,111.8z M58.3,111.8c-1-0.1-2-0.2-3-0.3l0.1-1
				c1,0.1,2,0.2,3,0.3L58.3,111.8z M75.6,111.5l-0.1-1c1-0.1,2-0.2,3-0.4l0.2,1C77.6,111.2,76.6,111.3,75.6,111.5z M54.2,111.4
				c-1-0.1-2-0.3-3-0.4l0.2-1c1,0.2,2,0.3,3,0.4L54.2,111.4z M79.7,110.9l-0.2-1c1-0.2,2-0.3,3-0.5l0.2,1
				C81.7,110.5,80.7,110.7,79.7,110.9z M50.2,110.8c-1-0.2-2-0.4-3-0.6l0.2-1c1,0.2,2,0.4,3,0.6L50.2,110.8z M83.7,110.1l-0.2-1
				c1-0.2,2-0.4,2.9-0.7l0.2,1C85.7,109.7,84.7,109.9,83.7,110.1z M46.2,110c-1-0.2-2-0.5-3-0.7l0.3-1c1,0.3,2,0.5,2.9,0.7L46.2,110
				z M87.6,109.2l-0.3-1c1-0.3,2-0.5,2.9-0.8l0.3,1C89.6,108.6,88.6,108.9,87.6,109.2z M42.2,109c-1-0.3-2-0.6-2.9-0.9l0.3-1
				c1,0.3,1.9,0.6,2.9,0.9L42.2,109z M91.6,108l-0.3-1c1-0.3,1.9-0.6,2.9-1l0.3,1C93.5,107.4,92.5,107.7,91.6,108z M38.3,107.8
				c-1-0.3-1.9-0.7-2.9-1l0.4-0.9c0.9,0.4,1.9,0.7,2.9,1L38.3,107.8z M95.4,106.7l-0.4-0.9c1-0.4,1.9-0.7,2.8-1.1l0.4,0.9
				C97.3,106,96.4,106.3,95.4,106.7z M34.5,106.5c-1-0.4-1.9-0.8-2.8-1.2l0.4-0.9c0.9,0.4,1.8,0.8,2.8,1.2L34.5,106.5z M99.2,105.1
				l-0.4-0.9c0.9-0.4,1.8-0.8,2.7-1.3l0.4,0.9C101.1,104.3,100.1,104.7,99.2,105.1z M30.7,104.9c-0.9-0.4-1.9-0.9-2.8-1.3l0.5-0.9
				c0.9,0.5,1.8,0.9,2.7,1.3L30.7,104.9z M102.9,103.4l-0.5-0.9c0.9-0.5,1.8-0.9,2.7-1.4l0.5,0.9
				C104.7,102.4,103.8,102.9,102.9,103.4z M27,103.1c-0.9-0.5-1.8-1-2.7-1.5l0.5-0.9c0.9,0.5,1.7,1,2.6,1.5L27,103.1z M106.5,101.4
				l-0.5-0.9c0.9-0.5,1.7-1,2.6-1.6l0.6,0.8C108.2,100.3,107.3,100.9,106.5,101.4z M23.5,101.1c-0.9-0.5-1.8-1.1-2.6-1.7l0.6-0.8
				c0.8,0.6,1.7,1.1,2.5,1.6L23.5,101.1z M109.9,99.2l-0.6-0.8c0.8-0.6,1.7-1.2,2.4-1.8l0.6,0.8C111.6,98,110.8,98.6,109.9,99.2z
				 M20,98.8c-0.8-0.6-1.7-1.2-2.5-1.8l0.6-0.8c0.8,0.6,1.6,1.2,2.4,1.8L20,98.8z M113.2,96.8l-0.6-0.8c0.8-0.6,1.6-1.3,2.3-1.9
				l0.7,0.8C114.8,95.5,114,96.2,113.2,96.8z M16.8,96.3c-0.8-0.6-1.6-1.3-2.3-2l0.7-0.7c0.7,0.7,1.5,1.3,2.3,2L16.8,96.3z
				 M116.3,94.1l-0.7-0.7c0.7-0.7,1.5-1.4,2.2-2.1l0.7,0.7C117.8,92.7,117.1,93.4,116.3,94.1z M13.7,93.6c-0.7-0.7-1.5-1.4-2.2-2.2
				l0.7-0.7c0.7,0.7,1.4,1.4,2.1,2.1L13.7,93.6z M119.2,91.2l-0.7-0.7c0.7-0.7,1.3-1.5,2-2.3l0.8,0.6
				C120.6,89.7,119.9,90.5,119.2,91.2z M10.8,90.7c-0.3-0.3-0.5-0.6-0.8-0.9c-0.4-0.5-0.8-1-1.2-1.5l0.8-0.6c0.4,0.5,0.8,1,1.2,1.4
				c0.2,0.3,0.5,0.6,0.8,0.9L10.8,90.7z M121.9,88.1l-0.8-0.6c0.6-0.8,1.2-1.6,1.8-2.4l0.8,0.6C123.1,86.5,122.5,87.3,121.9,88.1z
				 M8.2,87.5C7.6,86.7,7,85.9,6.5,85l0.9-0.5c0.5,0.8,1.1,1.7,1.7,2.5L8.2,87.5z M124.3,84.8l-0.9-0.5c0.4-0.6,0.7-1.2,1.1-1.8
				c0.2-0.3,0.3-0.5,0.4-0.8l0.9,0.5c-0.1,0.3-0.3,0.6-0.5,0.8C125,83.6,124.7,84.2,124.3,84.8z M5.9,84.1c-0.3-0.5-0.6-0.9-0.8-1.4
				c-0.2-0.4-0.5-0.8-0.7-1.3L5.3,81c0.2,0.4,0.4,0.8,0.7,1.2c0.3,0.5,0.5,0.9,0.8,1.4L5.9,84.1z M126.3,81.2l-0.9-0.5
				c0.5-0.9,0.9-1.8,1.2-2.7l0.9,0.4C127.2,79.3,126.8,80.3,126.3,81.2z M4,80.5c-0.4-0.9-0.8-1.9-1.2-2.8l0.9-0.4
				c0.3,0.9,0.7,1.9,1.2,2.8L4,80.5z M127.9,77.4l-0.9-0.4c0.3-0.9,0.7-1.9,0.9-2.9l1,0.3C128.6,75.5,128.3,76.5,127.9,77.4z
				 M2.4,76.7c-0.3-1-0.6-2-0.9-3l1-0.2c0.2,1,0.5,1.9,0.9,2.9L2.4,76.7z M129.2,73.5l-1-0.2c0.2-1,0.4-2,0.6-2.9l1,0.2
				C129.6,71.5,129.4,72.5,129.2,73.5z M1.3,72.7c-0.2-1-0.4-2-0.5-3l1-0.1c0.1,1,0.3,2,0.5,3L1.3,72.7z M129.9,69.4l-1-0.1
				c0.1-1,0.2-2,0.2-3l1,0C130.1,67.4,130,68.4,129.9,69.4z M0.7,68.7c-0.1-1-0.1-2.1-0.1-3.1L1,65.5h0.5v0.1c0,1,0,2,0.1,3
				L0.7,68.7z M129.6,65.3l-0.5,0c0-1,0-2-0.1-3l1-0.1c0.1,1,0.1,2,0.1,3L129.6,65.3z M1.6,64.5l-1,0c0-1,0.1-2.1,0.2-3.1l1,0.1
				C1.7,62.5,1.6,63.5,1.6,64.5z M128.9,61.3c-0.1-1-0.3-2-0.5-3l1-0.2c0.2,1,0.4,2,0.5,3L128.9,61.3z M1.9,60.5l-1-0.2
				c0.2-1,0.4-2,0.6-3l1,0.2C2.3,58.6,2.1,59.6,1.9,60.5z M128.2,57.4c-0.2-1-0.5-1.9-0.8-2.9l1-0.3c0.3,1,0.6,2,0.9,3L128.2,57.4z
				 M2.8,56.6l-1-0.3c0.2-0.6,0.3-1.2,0.5-1.7c0.1-0.4,0.3-0.8,0.4-1.2l0.9,0.4c-0.1,0.4-0.3,0.8-0.4,1.2
				C3.1,55.5,2.9,56.1,2.8,56.6z M127,53.6c-0.3-0.9-0.7-1.9-1.2-2.8l0.9-0.4c0.4,0.9,0.8,1.9,1.2,2.8L127,53.6z M4.1,52.8l-0.9-0.4
				c0.4-0.9,0.8-1.9,1.3-2.8l0.9,0.5C4.8,51,4.4,51.9,4.1,52.8z M125.4,49.9c-0.4-0.9-0.9-1.8-1.5-2.6l0.9-0.5
				c0.5,0.9,1,1.8,1.5,2.7L125.4,49.9z M5.8,49.2l-0.9-0.5c0.5-0.9,1-1.8,1.6-2.7l0.9,0.5C6.7,47.5,6.2,48.3,5.8,49.2z M123.4,46.5
				c-0.5-0.8-1-1.6-1.6-2.3l-0.1-0.2l0.8-0.6l0.1,0.1c0.6,0.8,1.1,1.6,1.7,2.4L123.4,46.5z M7.8,45.8L7,45.2
				c0.6-0.8,1.2-1.7,1.8-2.5l0.8,0.6C9,44.1,8.4,45,7.8,45.8z M121.1,43.2c-0.6-0.8-1.3-1.6-1.9-2.3l0.8-0.7c0.7,0.8,1.3,1.6,2,2.4
				L121.1,43.2z M10.2,42.6l-0.8-0.6c0.6-0.8,1.3-1.6,2-2.3l0.7,0.7C11.5,41,10.8,41.8,10.2,42.6z M118.4,40.1
				c-0.7-0.7-1.4-1.4-2.1-2.1l0.7-0.7c0.7,0.7,1.5,1.4,2.2,2.2L118.4,40.1z M12.9,39.6l-0.7-0.7c0.7-0.7,1.4-1.4,2.2-2.1l0.7,0.7
				C14.3,38.1,13.6,38.8,12.9,39.6z M115.6,37.3c-0.7-0.7-1.5-1.3-2.3-2l0.6-0.8c0.8,0.7,1.6,1.3,2.3,2L115.6,37.3z M15.8,36.8
				L15.1,36c0.8-0.7,1.6-1.3,2.4-2l0.6,0.8C17.3,35.5,16.5,36.1,15.8,36.8z M112.5,34.7c-0.8-0.6-1.6-1.2-2.4-1.8l0.6-0.8
				c0.8,0.6,1.7,1.2,2.5,1.8L112.5,34.7z M18.9,34.2l-0.6-0.8c0.8-0.6,1.6-1.2,2.5-1.8l0.6,0.8C20.5,33,19.7,33.6,18.9,34.2z
				 M109.3,32.3c-0.8-0.6-1.7-1.1-2.5-1.6l0.5-0.9c0.9,0.5,1.7,1.1,2.6,1.7L109.3,32.3z M22.2,31.9l-0.6-0.8
				c0.8-0.6,1.7-1.1,2.6-1.6l0.5,0.9C23.9,30.8,23,31.4,22.2,31.9z M105.9,30.2c-0.9-0.5-1.7-1-2.6-1.5l0.5-0.9
				c0.9,0.5,1.8,1,2.7,1.5L105.9,30.2z M25.6,29.8l-0.5-0.9c0.9-0.5,1.8-1,2.7-1.5l0.5,0.9C27.4,28.8,26.5,29.3,25.6,29.8z
				 M102.3,28.3c-0.9-0.5-1.8-0.9-2.7-1.3L100,26c0.9,0.4,1.9,0.9,2.8,1.3L102.3,28.3z M29.2,27.9L28.7,27c0.9-0.4,1.8-0.9,2.8-1.3
				l0.4,0.9C31,27,30.1,27.5,29.2,27.9z M98.7,26.5c-0.9-0.4-1.8-0.8-2.8-1.2l0.4-0.9c1,0.4,1.9,0.8,2.8,1.2L98.7,26.5z M32.8,26.2
				l-0.4-0.9c0.9-0.4,1.9-0.8,2.8-1.1l0.4,0.9C34.7,25.5,33.8,25.8,32.8,26.2z M95,25c-0.9-0.4-1.9-0.7-2.9-1l0.3-1
				c1,0.3,1.9,0.7,2.9,1L95,25z M36.6,24.8l-0.3-1c1-0.3,1.9-0.7,2.9-1l0.3,1C38.5,24.1,37.5,24.4,36.6,24.8z M91.1,23.7
				c-1-0.3-1.9-0.6-2.9-0.9l0.3-1c1,0.3,2,0.6,2.9,0.9L91.1,23.7z M40.4,23.5l-0.3-1c1-0.3,2-0.6,2.9-0.8l0.3,1
				C42.4,22.9,41.4,23.2,40.4,23.5z M87.3,22.6c-1-0.3-2-0.5-2.9-0.7l0.2-1c1,0.2,2,0.5,3,0.7L87.3,22.6z M44.3,22.4l-0.2-1
				c1-0.2,2-0.5,3-0.7l0.2,1C46.3,21.9,45.3,22.2,44.3,22.4z M83.3,21.7c-1-0.2-2-0.4-3-0.6l0.2-1c1,0.2,2,0.4,3,0.6L83.3,21.7z
				 M48.2,21.5l-0.2-1c1-0.2,2-0.4,3-0.5l0.2,1C50.2,21.1,49.2,21.3,48.2,21.5z M79.4,20.9c-1-0.2-2-0.3-3-0.4l0.1-1
				c1,0.1,2,0.3,3,0.4L79.4,20.9z M52.2,20.8l-0.2-1c1-0.2,2-0.3,3-0.4l0.1,1C54.2,20.5,53.2,20.7,52.2,20.8z M75.4,20.4
				c-1-0.1-2-0.2-3-0.3l0.1-1c1,0.1,2,0.2,3,0.3L75.4,20.4z M56.2,20.3l-0.1-1c1-0.1,2-0.2,3-0.3l0.1,1
				C58.2,20.1,57.2,20.2,56.2,20.3z M71.3,20c-1-0.1-2-0.1-3-0.1l0-1c1,0,2,0.1,3.1,0.1L71.3,20z M60.3,20l-0.1-1
				c1-0.1,2-0.1,3.1-0.1l0,1C62.3,19.9,61.3,19.9,60.3,20z M67.3,19.9c-0.6,0-1.2,0-1.9,0l-0.2,0c-0.3,0-0.6,0-1,0l0-1
				c0.3,0,0.6,0,1,0l0.2,0c0.6,0,1.3,0,1.9,0L67.3,19.9z"/>
		</g>
	</g>
</g>
</svg>
