<?xml version="1.0" encoding="utf-8"?>
<!-- Generator: Adobe Illustrator 21.0.0, SVG Export Plug-In . SVG Version: 6.00 Build 0)  -->
<svg version="1.1" id="Layer_1" xmlns="http://www.w3.org/2000/svg" xmlns:xlink="http://www.w3.org/1999/xlink" x="0px" y="0px"
	 viewBox="0 0 395.8 144.5" style="enable-background:new 0 0 395.8 144.5;" xml:space="preserve">
<style type="text/css">
	.Arched_x0020_Green{fill:url(#SVGID_1_);stroke:#FFFFFF;stroke-width:0.25;stroke-miterlimit:1;}
	.st0{fill:#FFFFFF;}
</style>
<linearGradient id="SVGID_1_" gradientUnits="userSpaceOnUse" x1="-170.75" y1="368.6667" x2="-170.0429" y2="367.9596">
	<stop  offset="0" style="stop-color:#20AC4B"/>
	<stop  offset="0.9831" style="stop-color:#19361A"/>
</linearGradient>
<path class="st0" d="M110.6,37.1c0,2.4-0.4,4.5-1.1,6.4c-0.8,1.9-1.8,3.4-3.3,4.7c-1.4,1.3-3.2,2.2-5.3,2.9c-2.1,0.7-4.5,1-7.4,1H90
	v13.7c0,0.2-0.1,0.4-0.2,0.6c-0.1,0.2-0.4,0.3-0.7,0.4c-0.3,0.1-0.8,0.2-1.3,0.3c-0.6,0.1-1.3,0.1-2.1,0.1c-0.8,0-1.5,0-2.1-0.1
	c-0.6-0.1-1-0.2-1.3-0.3c-0.3-0.1-0.6-0.3-0.7-0.4c-0.1-0.2-0.2-0.4-0.2-0.6V27.2c0-1,0.3-1.8,0.8-2.3c0.5-0.5,1.3-0.8,2.1-0.8h10.1
	c1,0,2,0,2.9,0.1c0.9,0.1,2,0.2,3.3,0.5c1.3,0.3,2.6,0.7,3.9,1.4c1.3,0.7,2.4,1.5,3.4,2.6c0.9,1,1.6,2.3,2.1,3.7
	C110.4,33.8,110.6,35.3,110.6,37.1z M101.5,37.7c0-1.5-0.3-2.7-0.8-3.7c-0.5-1-1.2-1.7-2-2.2c-0.8-0.5-1.6-0.8-2.4-0.9
	c-0.8-0.1-1.7-0.2-2.6-0.2H90v14.5h3.9c1.4,0,2.6-0.2,3.5-0.6c0.9-0.4,1.7-0.9,2.3-1.6c0.6-0.7,1-1.5,1.4-2.4
	C101.4,39.8,101.5,38.8,101.5,37.7z"/>
<path class="st0" d="M138.8,65.9c0,0.3-0.1,0.6-0.3,0.7c-0.2,0.2-0.6,0.3-1,0.4c-0.5,0.1-1.2,0.1-2.1,0.1c-1,0-1.7,0-2.2-0.1
	c-0.5-0.1-0.8-0.2-1-0.4c-0.2-0.2-0.3-0.4-0.3-0.7v-2.3c-1.2,1.3-2.6,2.3-4.2,3c-1.6,0.7-3.3,1.1-5.2,1.1c-1.6,0-3-0.2-4.3-0.6
	c-1.3-0.4-2.4-1-3.4-1.8c-1-0.8-1.7-1.8-2.2-3c-0.5-1.2-0.8-2.6-0.8-4.2c0-1.7,0.3-3.2,1-4.5c0.7-1.3,1.7-2.3,3-3.1
	c1.3-0.8,3-1.4,5-1.8c2-0.4,4.3-0.6,6.9-0.6h2.9v-1.8c0-0.9-0.1-1.7-0.3-2.4c-0.2-0.7-0.5-1.3-0.9-1.7c-0.4-0.5-1-0.8-1.7-1
	c-0.7-0.2-1.6-0.3-2.7-0.3c-1.4,0-2.6,0.2-3.7,0.5c-1.1,0.3-2.1,0.7-2.9,1c-0.8,0.4-1.5,0.7-2.1,1c-0.6,0.3-1,0.5-1.4,0.5
	c-0.2,0-0.5-0.1-0.6-0.2c-0.2-0.2-0.3-0.4-0.5-0.7c-0.1-0.3-0.2-0.6-0.3-1.1c-0.1-0.4-0.1-0.9-0.1-1.4c0-0.7,0.1-1.2,0.2-1.6
	c0.1-0.4,0.3-0.8,0.6-1.1c0.3-0.3,0.8-0.7,1.6-1.1c0.8-0.4,1.7-0.7,2.7-1.1c1-0.3,2.2-0.6,3.4-0.8c1.2-0.2,2.5-0.3,3.8-0.3
	c2.3,0,4.3,0.2,5.9,0.7c1.6,0.5,3,1.1,4.1,2.1c1.1,0.9,1.8,2.1,2.3,3.6c0.5,1.5,0.7,3.2,0.7,5.3V65.9z M130.6,53.2h-3.2
	c-1.3,0-2.5,0.1-3.4,0.3c-0.9,0.2-1.7,0.5-2.3,0.9c-0.6,0.4-1,0.9-1.3,1.4c-0.3,0.6-0.4,1.2-0.4,1.9c0,1.2,0.4,2.2,1.2,2.9
	c0.8,0.7,1.9,1.1,3.3,1.1c1.2,0,2.2-0.3,3.2-0.9c1-0.6,2-1.5,3-2.6V53.2z"/>
<path class="st0" d="M171.9,65.8c0,0.2-0.1,0.4-0.2,0.6c-0.1,0.2-0.3,0.3-0.6,0.4c-0.3,0.1-0.6,0.2-1.1,0.2c-0.5,0.1-1,0.1-1.7,0.1
	c-0.7,0-1.3,0-1.8-0.1c-0.5-0.1-0.8-0.1-1.1-0.2c-0.3-0.1-0.5-0.2-0.6-0.4c-0.1-0.2-0.2-0.4-0.2-0.6v-3.4c-1.6,1.8-3.3,3.1-5,4
	c-1.7,0.9-3.4,1.3-5.2,1.3c-2,0-3.7-0.3-5.1-1c-1.4-0.7-2.5-1.6-3.3-2.7c-0.8-1.1-1.5-2.5-1.8-4c-0.4-1.5-0.5-3.4-0.5-5.6V36.2
	c0-0.2,0.1-0.4,0.2-0.6c0.1-0.2,0.3-0.3,0.7-0.4c0.3-0.1,0.8-0.2,1.3-0.2c0.5-0.1,1.2-0.1,2-0.1c0.8,0,1.5,0,2,0.1
	c0.5,0.1,1,0.1,1.3,0.2c0.3,0.1,0.5,0.2,0.7,0.4c0.1,0.2,0.2,0.4,0.2,0.6v16.7c0,1.5,0.1,2.7,0.3,3.5c0.2,0.8,0.5,1.5,0.9,2.1
	c0.4,0.6,0.9,1,1.6,1.4c0.6,0.3,1.4,0.5,2.2,0.5c1.1,0,2.1-0.4,3.2-1.2c1.1-0.8,2.2-1.9,3.4-3.4V36.2c0-0.2,0.1-0.4,0.2-0.6
	c0.1-0.2,0.3-0.3,0.7-0.4c0.3-0.1,0.7-0.2,1.3-0.2c0.5-0.1,1.2-0.1,2-0.1c0.8,0,1.5,0,2,0.1c0.5,0.1,0.9,0.1,1.3,0.2
	c0.3,0.1,0.5,0.2,0.7,0.4c0.1,0.2,0.2,0.4,0.2,0.6V65.8z"/>
<path class="st0" d="M185.7,65.8c0,0.2-0.1,0.4-0.2,0.6c-0.1,0.2-0.4,0.3-0.7,0.4c-0.3,0.1-0.7,0.2-1.3,0.2c-0.5,0.1-1.2,0.1-2,0.1
	c-0.8,0-1.5,0-2-0.1c-0.5-0.1-1-0.1-1.3-0.2c-0.3-0.1-0.5-0.2-0.7-0.4c-0.1-0.2-0.2-0.4-0.2-0.6V22.2c0-0.2,0.1-0.4,0.2-0.6
	c0.1-0.2,0.4-0.3,0.7-0.4c0.3-0.1,0.7-0.2,1.3-0.3c0.5-0.1,1.2-0.1,2-0.1c0.8,0,1.5,0,2,0.1c0.5,0.1,1,0.2,1.3,0.3
	c0.3,0.1,0.5,0.3,0.7,0.4c0.1,0.2,0.2,0.4,0.2,0.6V65.8z"/>
<path class="st0" d="M237.4,54c0,1.5-0.2,2.9-0.6,4.1c-0.4,1.2-1,2.3-1.7,3.3c-0.7,0.9-1.6,1.8-2.6,2.4c-1,0.7-2.2,1.2-3.4,1.7
	c-1.2,0.4-2.6,0.8-4,1c-1.4,0.2-3,0.3-4.7,0.3H209c-0.7,0-1.3-0.2-1.8-0.6c-0.5-0.4-0.7-1.1-0.7-2.1V26.8c0-1,0.2-1.7,0.7-2.1
	c0.5-0.4,1.1-0.6,1.8-0.6h10.8c2.6,0,4.8,0.2,6.7,0.7c1.8,0.4,3.4,1.1,4.6,2c1.2,0.9,2.2,2,2.9,3.4c0.7,1.4,1,3,1,4.8
	c0,1-0.1,2-0.4,2.9c-0.3,0.9-0.7,1.7-1.2,2.5c-0.5,0.8-1.1,1.4-1.9,2c-0.7,0.6-1.6,1-2.5,1.4c1.2,0.2,2.3,0.6,3.4,1.2
	c1,0.6,1.9,1.3,2.7,2.1c0.8,0.9,1.4,1.9,1.8,3.1C237.2,51.3,237.4,52.6,237.4,54z M226.2,36c0-0.9-0.1-1.6-0.4-2.3
	c-0.3-0.7-0.7-1.2-1.2-1.7c-0.5-0.5-1.2-0.8-2-1c-0.8-0.2-1.9-0.4-3.2-0.4h-4.4v11.1h4.9c1.3,0,2.3-0.1,3-0.4
	c0.8-0.3,1.4-0.7,1.9-1.2c0.5-0.5,0.9-1.1,1.1-1.8C226,37.5,226.2,36.8,226.2,36z M228.4,54.3c0-1-0.2-1.9-0.5-2.7
	c-0.3-0.8-0.8-1.4-1.5-2c-0.6-0.5-1.5-0.9-2.4-1.2c-1-0.3-2.3-0.4-3.9-0.4h-5.2v12.2h6.3c1.2,0,2.2-0.1,3.1-0.4
	c0.8-0.3,1.5-0.6,2.2-1.1c0.6-0.5,1.1-1.1,1.4-1.9C228.2,56.1,228.4,55.3,228.4,54.3z"/>
<path class="st0" d="M269.2,65.8c0,0.2-0.1,0.4-0.2,0.6c-0.1,0.2-0.3,0.3-0.6,0.4c-0.3,0.1-0.6,0.2-1.1,0.2c-0.5,0.1-1,0.1-1.7,0.1
	c-0.7,0-1.3,0-1.8-0.1c-0.5-0.1-0.8-0.1-1.1-0.2c-0.3-0.1-0.5-0.2-0.6-0.4c-0.1-0.2-0.2-0.4-0.2-0.6v-3.4c-1.6,1.8-3.3,3.1-5,4
	c-1.7,0.9-3.4,1.3-5.2,1.3c-2,0-3.7-0.3-5.1-1c-1.4-0.7-2.5-1.6-3.3-2.7c-0.8-1.1-1.5-2.5-1.8-4c-0.4-1.5-0.5-3.4-0.5-5.6V36.2
	c0-0.2,0.1-0.4,0.2-0.6c0.1-0.2,0.3-0.3,0.7-0.4c0.3-0.1,0.8-0.2,1.3-0.2c0.5-0.1,1.2-0.1,2-0.1c0.8,0,1.5,0,2,0.1
	c0.5,0.1,1,0.1,1.3,0.2c0.3,0.1,0.5,0.2,0.7,0.4c0.1,0.2,0.2,0.4,0.2,0.6v16.7c0,1.5,0.1,2.7,0.3,3.5c0.2,0.8,0.5,1.5,0.9,2.1
	c0.4,0.6,0.9,1,1.6,1.4c0.6,0.3,1.4,0.5,2.2,0.5c1.1,0,2.1-0.4,3.2-1.2c1.1-0.8,2.2-1.9,3.4-3.4V36.2c0-0.2,0.1-0.4,0.2-0.6
	c0.1-0.2,0.3-0.3,0.7-0.4c0.3-0.1,0.7-0.2,1.3-0.2c0.5-0.1,1.2-0.1,2-0.1c0.8,0,1.5,0,2,0.1c0.5,0.1,0.9,0.1,1.3,0.2
	c0.3,0.1,0.5,0.2,0.7,0.4c0.1,0.2,0.2,0.4,0.2,0.6V65.8z"/>
<path class="st0" d="M302.7,65.8c0,0.2-0.1,0.4-0.2,0.6c-0.1,0.2-0.4,0.3-0.7,0.4c-0.3,0.1-0.7,0.2-1.3,0.2c-0.5,0.1-1.2,0.1-2,0.1
	c-0.8,0-1.5,0-2-0.1c-0.5-0.1-1-0.1-1.3-0.2c-0.3-0.1-0.5-0.2-0.7-0.4c-0.1-0.2-0.2-0.4-0.2-0.6V48.9c0-1.4-0.1-2.6-0.3-3.4
	c-0.2-0.8-0.5-1.5-0.9-2.1c-0.4-0.6-0.9-1-1.5-1.4c-0.6-0.3-1.4-0.5-2.2-0.5c-1.1,0-2.1,0.4-3.2,1.2c-1.1,0.8-2.2,1.9-3.4,3.4v19.6
	c0,0.2-0.1,0.4-0.2,0.6c-0.1,0.2-0.4,0.3-0.7,0.4c-0.3,0.1-0.7,0.2-1.3,0.2c-0.5,0.1-1.2,0.1-2,0.1c-0.8,0-1.5,0-2-0.1
	c-0.5-0.1-1-0.1-1.3-0.2c-0.3-0.1-0.5-0.2-0.7-0.4c-0.1-0.2-0.2-0.4-0.2-0.6V36.2c0-0.2,0.1-0.4,0.2-0.6c0.1-0.2,0.3-0.3,0.6-0.4
	c0.3-0.1,0.7-0.2,1.1-0.2c0.5-0.1,1-0.1,1.7-0.1c0.7,0,1.3,0,1.8,0.1c0.5,0.1,0.8,0.1,1.1,0.2c0.3,0.1,0.4,0.2,0.5,0.4
	c0.1,0.2,0.2,0.4,0.2,0.6v3.4c1.6-1.8,3.3-3.1,5-4c1.7-0.9,3.4-1.3,5.3-1.3c2,0,3.7,0.3,5.1,1c1.4,0.7,2.5,1.6,3.3,2.7
	c0.8,1.1,1.5,2.5,1.8,4c0.4,1.5,0.6,3.4,0.6,5.5V65.8z"/>
<path class="st0" d="M324.4,66.9l-3.6,10.5c-0.2,0.6-0.7,0.9-1.6,1.2c-0.9,0.2-2.2,0.4-3.9,0.4c-0.9,0-1.6,0-2.1-0.1
	c-0.5-0.1-0.9-0.2-1.2-0.4c-0.3-0.2-0.4-0.4-0.4-0.7c0-0.3,0-0.6,0.2-1l3.9-9.9c-0.3-0.1-0.5-0.3-0.8-0.6c-0.2-0.3-0.4-0.6-0.5-0.9
	l-10.2-27.1c-0.3-0.8-0.4-1.4-0.4-1.8c0-0.4,0.1-0.7,0.4-1c0.3-0.2,0.7-0.4,1.3-0.5c0.6-0.1,1.5-0.1,2.5-0.1c0.9,0,1.7,0,2.2,0
	c0.6,0,1,0.1,1.3,0.2c0.3,0.1,0.5,0.3,0.7,0.6c0.2,0.3,0.3,0.7,0.5,1.2l6.9,19.8h0.1l6.4-20.2c0.1-0.6,0.3-1,0.5-1.1
	c0.2-0.2,0.6-0.3,1-0.4c0.5-0.1,1.3-0.1,2.5-0.1c0.9,0,1.7,0,2.4,0.1c0.6,0.1,1.1,0.3,1.4,0.5c0.3,0.2,0.4,0.6,0.4,1
	c0,0.4-0.1,0.9-0.3,1.4L324.4,66.9z"/>
<path class="st0" d="M361.8,65.9c0,0.3-0.1,0.6-0.3,0.7c-0.2,0.2-0.6,0.3-1,0.4c-0.5,0.1-1.2,0.1-2.1,0.1c-1,0-1.7,0-2.2-0.1
	c-0.5-0.1-0.8-0.2-1-0.4c-0.2-0.2-0.3-0.4-0.3-0.7v-2.3c-1.2,1.3-2.6,2.3-4.2,3c-1.6,0.7-3.3,1.1-5.2,1.1c-1.6,0-3-0.2-4.3-0.6
	c-1.3-0.4-2.4-1-3.4-1.8c-1-0.8-1.7-1.8-2.2-3c-0.5-1.2-0.8-2.6-0.8-4.2c0-1.7,0.3-3.2,1-4.5c0.7-1.3,1.7-2.3,3-3.1
	c1.3-0.8,3-1.4,5-1.8c2-0.4,4.3-0.6,6.9-0.6h2.9v-1.8c0-0.9-0.1-1.7-0.3-2.4c-0.2-0.7-0.5-1.3-0.9-1.7c-0.4-0.5-1-0.8-1.7-1
	c-0.7-0.2-1.6-0.3-2.7-0.3c-1.4,0-2.6,0.2-3.7,0.5c-1.1,0.3-2.1,0.7-2.9,1s-1.5,0.7-2.1,1c-0.6,0.3-1,0.5-1.4,0.5
	c-0.2,0-0.5-0.1-0.6-0.2c-0.2-0.2-0.3-0.4-0.5-0.7c-0.1-0.3-0.2-0.6-0.3-1.1c-0.1-0.4-0.1-0.9-0.1-1.4c0-0.7,0.1-1.2,0.2-1.6
	c0.1-0.4,0.3-0.8,0.6-1.1c0.3-0.3,0.8-0.7,1.6-1.1c0.8-0.4,1.7-0.7,2.7-1.1c1-0.3,2.2-0.6,3.4-0.8c1.2-0.2,2.5-0.3,3.8-0.3
	c2.3,0,4.3,0.2,5.9,0.7c1.6,0.5,3,1.1,4.1,2.1c1.1,0.9,1.8,2.1,2.3,3.6c0.5,1.5,0.7,3.2,0.7,5.3V65.9z M353.6,53.2h-3.2
	c-1.3,0-2.5,0.1-3.4,0.3c-0.9,0.2-1.7,0.5-2.3,0.9c-0.6,0.4-1,0.9-1.3,1.4c-0.3,0.6-0.4,1.2-0.4,1.9c0,1.2,0.4,2.2,1.2,2.9
	c0.8,0.7,1.9,1.1,3.3,1.1c1.2,0,2.2-0.3,3.2-0.9c1-0.6,2-1.5,3-2.6V53.2z"/>
<path class="st0" d="M395.3,65.8c0,0.2-0.1,0.4-0.2,0.6c-0.1,0.2-0.4,0.3-0.7,0.4c-0.3,0.1-0.7,0.2-1.3,0.2c-0.5,0.1-1.2,0.1-2,0.1
	c-0.8,0-1.5,0-2-0.1c-0.5-0.1-1-0.1-1.3-0.2c-0.3-0.1-0.5-0.2-0.7-0.4c-0.1-0.2-0.2-0.4-0.2-0.6V48.9c0-1.4-0.1-2.6-0.3-3.4
	c-0.2-0.8-0.5-1.5-0.9-2.1c-0.4-0.6-0.9-1-1.5-1.4c-0.6-0.3-1.4-0.5-2.2-0.5c-1.1,0-2.1,0.4-3.2,1.2c-1.1,0.8-2.2,1.9-3.4,3.4v19.6
	c0,0.2-0.1,0.4-0.2,0.6c-0.1,0.2-0.4,0.3-0.7,0.4c-0.3,0.1-0.7,0.2-1.3,0.2c-0.5,0.1-1.2,0.1-2,0.1c-0.8,0-1.5,0-2-0.1
	c-0.5-0.1-1-0.1-1.3-0.2c-0.3-0.1-0.5-0.2-0.7-0.4c-0.1-0.2-0.2-0.4-0.2-0.6V36.2c0-0.2,0.1-0.4,0.2-0.6c0.1-0.2,0.3-0.3,0.6-0.4
	c0.3-0.1,0.7-0.2,1.1-0.2c0.5-0.1,1-0.1,1.7-0.1c0.7,0,1.3,0,1.8,0.1c0.5,0.1,0.8,0.1,1.1,0.2c0.3,0.1,0.4,0.2,0.5,0.4
	c0.1,0.2,0.2,0.4,0.2,0.6v3.4c1.6-1.8,3.3-3.1,5-4c1.7-0.9,3.4-1.3,5.3-1.3c2,0,3.7,0.3,5.1,1c1.4,0.7,2.5,1.6,3.3,2.7
	c0.8,1.1,1.5,2.5,1.8,4c0.4,1.5,0.6,3.4,0.6,5.5V65.8z"/>
<path class="st0" d="M92.2,94.4c0,0.2,0,0.4,0,0.5c0,0.1,0,0.2-0.1,0.3c0,0.1-0.1,0.2-0.1,0.2c0,0.1-0.1,0.1-0.2,0.2
	c-0.1,0.1-0.2,0.2-0.5,0.3c-0.2,0.1-0.5,0.3-0.9,0.4c-0.3,0.1-0.8,0.2-1.2,0.3c-0.5,0.1-0.9,0.1-1.5,0.1c-1,0-1.9-0.2-2.8-0.5
	c-0.8-0.3-1.5-0.8-2.1-1.4c-0.6-0.6-1-1.4-1.3-2.3c-0.3-0.9-0.5-2-0.5-3.3c0-1.3,0.2-2.4,0.5-3.4c0.3-1,0.8-1.8,1.4-2.5
	c0.6-0.7,1.3-1.2,2.2-1.5c0.8-0.3,1.8-0.5,2.8-0.5c0.4,0,0.8,0,1.2,0.1c0.4,0.1,0.7,0.2,1.1,0.3c0.3,0.1,0.6,0.2,0.9,0.4
	c0.3,0.1,0.4,0.3,0.5,0.4s0.2,0.2,0.2,0.3c0,0.1,0.1,0.2,0.1,0.3c0,0.1,0,0.2,0.1,0.4c0,0.1,0,0.3,0,0.5c0,0.2,0,0.4,0,0.6
	c0,0.2,0,0.3-0.1,0.4c0,0.1-0.1,0.2-0.1,0.2c-0.1,0-0.1,0.1-0.2,0.1c-0.1,0-0.3-0.1-0.4-0.2c-0.2-0.1-0.4-0.3-0.7-0.5
	c-0.3-0.2-0.6-0.3-1-0.4c-0.4-0.1-0.9-0.2-1.4-0.2c-0.6,0-1.1,0.1-1.6,0.4c-0.5,0.2-0.9,0.6-1.2,1c-0.3,0.5-0.6,1-0.7,1.6
	c-0.2,0.6-0.3,1.4-0.3,2.2c0,0.9,0.1,1.6,0.3,2.3c0.2,0.6,0.4,1.2,0.8,1.6c0.3,0.4,0.7,0.7,1.2,0.9c0.5,0.2,1,0.3,1.6,0.3
	c0.5,0,1-0.1,1.4-0.2c0.4-0.1,0.7-0.3,1-0.4c0.3-0.2,0.5-0.3,0.7-0.4c0.2-0.1,0.3-0.2,0.4-0.2c0.1,0,0.1,0,0.2,0
	c0,0,0.1,0.1,0.1,0.2c0,0.1,0.1,0.2,0.1,0.4C92.2,93.9,92.2,94.1,92.2,94.4z"/>
<path class="st0" d="M110,89c0,1.2-0.2,2.3-0.5,3.3c-0.3,1-0.8,1.8-1.4,2.5c-0.6,0.7-1.4,1.2-2.3,1.6c-0.9,0.4-1.9,0.5-3.1,0.5
	c-1.2,0-2.2-0.2-3-0.5c-0.9-0.3-1.6-0.8-2.2-1.4c-0.6-0.6-1-1.4-1.3-2.4c-0.3-1-0.4-2.1-0.4-3.4c0-1.2,0.2-2.3,0.5-3.3
	c0.3-1,0.8-1.8,1.4-2.5c0.6-0.7,1.4-1.2,2.3-1.6c0.9-0.4,1.9-0.5,3.1-0.5c1.1,0,2.1,0.1,3,0.4c0.9,0.3,1.6,0.8,2.2,1.4
	c0.6,0.6,1,1.4,1.3,2.4C109.8,86.6,110,87.7,110,89z M106.8,89.2c0-0.8-0.1-1.5-0.2-2.1c-0.1-0.6-0.3-1.2-0.6-1.6
	c-0.3-0.5-0.7-0.8-1.2-1.1c-0.5-0.2-1.1-0.4-1.8-0.4c-0.7,0-1.4,0.1-1.9,0.4c-0.5,0.3-0.9,0.7-1.2,1.1c-0.3,0.5-0.5,1-0.7,1.6
	c-0.1,0.6-0.2,1.3-0.2,2c0,0.8,0.1,1.5,0.2,2.2c0.1,0.7,0.3,1.2,0.6,1.7c0.3,0.5,0.7,0.8,1.2,1.1c0.5,0.2,1.1,0.4,1.9,0.4
	c0.7,0,1.4-0.1,1.9-0.4c0.5-0.3,0.9-0.7,1.2-1.1c0.3-0.5,0.5-1,0.7-1.7C106.7,90.6,106.8,89.9,106.8,89.2z"/>
<path class="st0" d="M132.2,96.2c0,0.1,0,0.1-0.1,0.2c0,0.1-0.1,0.1-0.2,0.2c-0.1,0-0.3,0.1-0.4,0.1c-0.2,0-0.4,0-0.7,0
	c-0.3,0-0.5,0-0.7,0c-0.2,0-0.3-0.1-0.4-0.1c-0.1,0-0.2-0.1-0.2-0.2c0-0.1-0.1-0.1-0.1-0.2V84.1h0L125,96.2c0,0.1-0.1,0.2-0.1,0.2
	c-0.1,0.1-0.2,0.1-0.3,0.2c-0.1,0-0.3,0.1-0.5,0.1c-0.2,0-0.4,0-0.7,0c-0.3,0-0.5,0-0.7,0c-0.2,0-0.3-0.1-0.5-0.1
	c-0.1,0-0.2-0.1-0.3-0.2c-0.1-0.1-0.1-0.1-0.1-0.2l-4.2-12.1h0v12.1c0,0.1,0,0.1-0.1,0.2c0,0.1-0.1,0.1-0.2,0.2
	c-0.1,0-0.3,0.1-0.4,0.1c-0.2,0-0.4,0-0.7,0c-0.3,0-0.5,0-0.7,0c-0.2,0-0.3-0.1-0.4-0.1c-0.1,0-0.2-0.1-0.2-0.2
	c0-0.1-0.1-0.1-0.1-0.2V82.9c0-0.4,0.1-0.7,0.3-0.9c0.2-0.2,0.5-0.3,0.8-0.3h2c0.4,0,0.7,0,0.9,0.1c0.3,0.1,0.5,0.2,0.7,0.3
	c0.2,0.1,0.3,0.3,0.5,0.5c0.1,0.2,0.2,0.5,0.3,0.8l3.2,8.9h0l3.3-8.9c0.1-0.3,0.2-0.6,0.3-0.8c0.1-0.2,0.3-0.4,0.4-0.5
	c0.2-0.1,0.3-0.2,0.6-0.3c0.2-0.1,0.5-0.1,0.8-0.1h2c0.2,0,0.4,0,0.5,0.1c0.2,0.1,0.3,0.1,0.4,0.2c0.1,0.1,0.2,0.2,0.2,0.4
	c0,0.1,0.1,0.3,0.1,0.5V96.2z"/>
<path class="st0" d="M155.1,96.2c0,0.1,0,0.1-0.1,0.2c0,0.1-0.1,0.1-0.2,0.2c-0.1,0-0.3,0.1-0.4,0.1c-0.2,0-0.4,0-0.7,0
	c-0.3,0-0.5,0-0.7,0c-0.2,0-0.3-0.1-0.4-0.1c-0.1,0-0.2-0.1-0.2-0.2c0-0.1-0.1-0.1-0.1-0.2V84.1h0l-4.3,12.1c0,0.1-0.1,0.2-0.2,0.2
	c-0.1,0.1-0.2,0.1-0.3,0.2c-0.1,0-0.3,0.1-0.5,0.1c-0.2,0-0.4,0-0.7,0s-0.5,0-0.7,0c-0.2,0-0.3-0.1-0.5-0.1c-0.1,0-0.2-0.1-0.3-0.2
	c-0.1-0.1-0.1-0.1-0.1-0.2l-4.2-12.1h0v12.1c0,0.1,0,0.1-0.1,0.2c0,0.1-0.1,0.1-0.2,0.2c-0.1,0-0.3,0.1-0.4,0.1c-0.2,0-0.4,0-0.7,0
	c-0.3,0-0.5,0-0.7,0c-0.2,0-0.3-0.1-0.4-0.1c-0.1,0-0.2-0.1-0.2-0.2c0-0.1-0.1-0.1-0.1-0.2V82.9c0-0.4,0.1-0.7,0.3-0.9
	c0.2-0.2,0.5-0.3,0.8-0.3h2c0.4,0,0.7,0,0.9,0.1c0.3,0.1,0.5,0.2,0.7,0.3c0.2,0.1,0.3,0.3,0.5,0.5c0.1,0.2,0.2,0.5,0.3,0.8l3.2,8.9
	h0l3.3-8.9c0.1-0.3,0.2-0.6,0.3-0.8c0.1-0.2,0.3-0.4,0.4-0.5c0.2-0.1,0.3-0.2,0.6-0.3c0.2-0.1,0.5-0.1,0.8-0.1h2
	c0.2,0,0.4,0,0.5,0.1c0.2,0.1,0.3,0.1,0.4,0.2c0.1,0.1,0.2,0.2,0.2,0.4c0,0.1,0.1,0.3,0.1,0.5V96.2z"/>
<path class="st0" d="M172.8,91.1c0,0.9-0.1,1.7-0.4,2.5c-0.3,0.7-0.7,1.3-1.2,1.8c-0.5,0.5-1.2,0.9-1.9,1.1
	c-0.8,0.3-1.7,0.4-2.7,0.4c-0.9,0-1.8-0.1-2.5-0.4c-0.7-0.2-1.4-0.6-1.9-1.1c-0.5-0.5-0.9-1.1-1.2-1.8c-0.3-0.7-0.4-1.5-0.4-2.5
	v-9.1c0-0.1,0-0.1,0.1-0.2c0-0.1,0.1-0.1,0.2-0.1c0.1,0,0.3-0.1,0.5-0.1c0.2,0,0.4,0,0.7,0c0.3,0,0.5,0,0.7,0c0.2,0,0.3,0.1,0.5,0.1
	c0.1,0,0.2,0.1,0.2,0.1c0.1,0.1,0.1,0.1,0.1,0.2V91c0,0.6,0.1,1.1,0.2,1.5c0.1,0.4,0.4,0.8,0.6,1.1c0.3,0.3,0.6,0.5,1,0.6
	c0.4,0.1,0.8,0.2,1.3,0.2c0.5,0,0.9-0.1,1.3-0.2c0.4-0.1,0.7-0.4,1-0.6c0.3-0.3,0.5-0.6,0.6-1c0.1-0.4,0.2-0.9,0.2-1.4v-9
	c0-0.1,0-0.1,0.1-0.2c0-0.1,0.1-0.1,0.2-0.1c0.1,0,0.3-0.1,0.5-0.1c0.2,0,0.4,0,0.7,0c0.3,0,0.5,0,0.7,0c0.2,0,0.3,0.1,0.5,0.1
	c0.1,0,0.2,0.1,0.2,0.1c0,0.1,0.1,0.1,0.1,0.2V91.1z"/>
<path class="st0" d="M190.5,95.6c0,0.2,0,0.3-0.1,0.5c-0.1,0.1-0.1,0.3-0.2,0.3c-0.1,0.1-0.2,0.2-0.4,0.2c-0.1,0-0.3,0.1-0.4,0.1
	h-1.3c-0.3,0-0.5,0-0.7-0.1c-0.2-0.1-0.4-0.2-0.5-0.3c-0.2-0.1-0.3-0.3-0.5-0.6c-0.2-0.2-0.3-0.6-0.5-0.9l-3.7-7
	c-0.2-0.4-0.4-0.9-0.7-1.3c-0.2-0.5-0.4-0.9-0.6-1.4h0c0,0.6,0.1,1.1,0.1,1.7c0,0.5,0,1.1,0,1.7v7.8c0,0.1,0,0.1-0.1,0.2
	c0,0.1-0.1,0.1-0.2,0.2c-0.1,0-0.2,0.1-0.4,0.1c-0.2,0-0.4,0-0.7,0c-0.3,0-0.5,0-0.7,0c-0.2,0-0.3-0.1-0.4-0.1
	c-0.1,0-0.2-0.1-0.2-0.2c0-0.1-0.1-0.1-0.1-0.2V82.8c0-0.4,0.1-0.6,0.3-0.8c0.2-0.2,0.5-0.3,0.8-0.3h1.6c0.3,0,0.5,0,0.7,0.1
	c0.2,0,0.4,0.1,0.5,0.2c0.2,0.1,0.3,0.3,0.4,0.5c0.1,0.2,0.3,0.5,0.4,0.8l2.9,5.5c0.2,0.3,0.3,0.7,0.5,1c0.2,0.3,0.3,0.6,0.5,1
	c0.2,0.3,0.3,0.6,0.4,0.9c0.1,0.3,0.3,0.6,0.4,0.9h0c0-0.5,0-1.1-0.1-1.7c0-0.6,0-1.1,0-1.7v-7c0-0.1,0-0.1,0.1-0.2
	c0-0.1,0.1-0.1,0.2-0.2c0.1,0,0.2-0.1,0.4-0.1c0.2,0,0.4,0,0.7,0c0.3,0,0.5,0,0.7,0c0.2,0,0.3,0.1,0.4,0.1c0.1,0,0.2,0.1,0.2,0.2
	c0,0.1,0.1,0.1,0.1,0.2V95.6z"/>
<path class="st0" d="M199.1,96.2c0,0.1,0,0.1-0.1,0.2c-0.1,0.1-0.1,0.1-0.2,0.2c-0.1,0-0.3,0.1-0.5,0.1c-0.2,0-0.4,0-0.7,0
	c-0.3,0-0.5,0-0.7,0c-0.2,0-0.4-0.1-0.5-0.1c-0.1,0-0.2-0.1-0.2-0.2c-0.1-0.1-0.1-0.1-0.1-0.2V82.2c0-0.1,0-0.1,0.1-0.2
	c0-0.1,0.1-0.1,0.3-0.1c0.1,0,0.3-0.1,0.5-0.1c0.2,0,0.4,0,0.7,0c0.3,0,0.5,0,0.7,0c0.2,0,0.3,0.1,0.5,0.1c0.1,0,0.2,0.1,0.2,0.1
	c0,0.1,0.1,0.1,0.1,0.2V96.2z"/>
<path class="st0" d="M214.9,94.4c0,0.2,0,0.4,0,0.5c0,0.1,0,0.2-0.1,0.3c0,0.1-0.1,0.2-0.1,0.2c0,0.1-0.1,0.1-0.2,0.2
	c-0.1,0.1-0.2,0.2-0.5,0.3c-0.2,0.1-0.5,0.3-0.9,0.4c-0.3,0.1-0.8,0.2-1.2,0.3c-0.5,0.1-0.9,0.1-1.5,0.1c-1,0-1.9-0.2-2.8-0.5
	c-0.8-0.3-1.5-0.8-2.1-1.4c-0.6-0.6-1-1.4-1.3-2.3c-0.3-0.9-0.5-2-0.5-3.3c0-1.3,0.2-2.4,0.5-3.4c0.3-1,0.8-1.8,1.4-2.5
	c0.6-0.7,1.3-1.2,2.2-1.5c0.8-0.3,1.8-0.5,2.8-0.5c0.4,0,0.8,0,1.2,0.1c0.4,0.1,0.7,0.2,1.1,0.3c0.3,0.1,0.6,0.2,0.9,0.4
	c0.3,0.1,0.4,0.3,0.5,0.4c0.1,0.1,0.2,0.2,0.2,0.3c0,0.1,0.1,0.2,0.1,0.3c0,0.1,0,0.2,0.1,0.4c0,0.1,0,0.3,0,0.5c0,0.2,0,0.4,0,0.6
	c0,0.2,0,0.3-0.1,0.4c0,0.1-0.1,0.2-0.1,0.2c-0.1,0-0.1,0.1-0.2,0.1c-0.1,0-0.3-0.1-0.4-0.2c-0.2-0.1-0.4-0.3-0.7-0.5
	c-0.3-0.2-0.6-0.3-1-0.4c-0.4-0.1-0.9-0.2-1.4-0.2c-0.6,0-1.1,0.1-1.6,0.4c-0.5,0.2-0.9,0.6-1.2,1c-0.3,0.5-0.6,1-0.7,1.6
	c-0.2,0.6-0.3,1.4-0.3,2.2c0,0.9,0.1,1.6,0.3,2.3c0.2,0.6,0.4,1.2,0.8,1.6c0.3,0.4,0.7,0.7,1.2,0.9c0.5,0.2,1,0.3,1.6,0.3
	c0.5,0,1-0.1,1.4-0.2c0.4-0.1,0.7-0.3,1-0.4c0.3-0.2,0.5-0.3,0.7-0.4c0.2-0.1,0.3-0.2,0.4-0.2c0.1,0,0.1,0,0.2,0
	c0,0,0.1,0.1,0.1,0.2c0,0.1,0.1,0.2,0.1,0.4C214.9,93.9,214.9,94.1,214.9,94.4z"/>
<path class="st0" d="M232,95.5c0.1,0.3,0.2,0.5,0.2,0.7c0,0.2,0,0.3-0.1,0.4c-0.1,0.1-0.2,0.1-0.4,0.2c-0.2,0-0.5,0-0.9,0
	c-0.4,0-0.7,0-0.9,0c-0.2,0-0.4,0-0.5-0.1c-0.1,0-0.2-0.1-0.2-0.1c0-0.1-0.1-0.1-0.1-0.2l-1-3h-5.6l-0.9,2.9c0,0.1-0.1,0.2-0.1,0.3
	c-0.1,0.1-0.1,0.1-0.2,0.2c-0.1,0-0.3,0.1-0.5,0.1c-0.2,0-0.5,0-0.8,0c-0.4,0-0.6,0-0.8,0c-0.2,0-0.3-0.1-0.4-0.2
	c-0.1-0.1-0.1-0.2-0.1-0.4c0-0.2,0.1-0.4,0.2-0.6l4.6-13.2c0-0.1,0.1-0.2,0.2-0.3c0.1-0.1,0.2-0.1,0.3-0.2c0.1,0,0.3-0.1,0.6-0.1
	c0.2,0,0.6,0,0.9,0c0.5,0,0.8,0,1.1,0c0.3,0,0.5,0,0.6,0.1c0.2,0,0.3,0.1,0.3,0.2c0.1,0.1,0.1,0.2,0.2,0.3L232,95.5z M225.2,84.6
	L225.2,84.6l-2.1,6.3h4.2L225.2,84.6z"/>
<path class="st0" d="M244.9,83c0,0.2,0,0.4,0,0.6c0,0.2,0,0.3-0.1,0.4c0,0.1-0.1,0.2-0.1,0.2c-0.1,0-0.1,0.1-0.2,0.1h-3.7v12
	c0,0.1,0,0.1-0.1,0.2c-0.1,0.1-0.1,0.1-0.2,0.2c-0.1,0-0.3,0.1-0.5,0.1c-0.2,0-0.4,0-0.7,0c-0.3,0-0.5,0-0.7,0
	c-0.2,0-0.4-0.1-0.5-0.1c-0.1,0-0.2-0.1-0.2-0.2c-0.1-0.1-0.1-0.1-0.1-0.2v-12H234c-0.1,0-0.1,0-0.2-0.1c-0.1,0-0.1-0.1-0.1-0.2
	c0-0.1-0.1-0.2-0.1-0.4c0-0.2,0-0.3,0-0.6c0-0.2,0-0.4,0-0.6c0-0.2,0-0.3,0.1-0.4c0-0.1,0.1-0.2,0.1-0.2c0.1,0,0.1-0.1,0.2-0.1h10.5
	c0.1,0,0.1,0,0.2,0.1c0.1,0,0.1,0.1,0.1,0.2c0,0.1,0.1,0.2,0.1,0.4C244.9,82.6,244.9,82.8,244.9,83z"/>
<path class="st0" d="M252.1,96.2c0,0.1,0,0.1-0.1,0.2c0,0.1-0.1,0.1-0.2,0.2c-0.1,0-0.3,0.1-0.5,0.1c-0.2,0-0.4,0-0.7,0
	c-0.3,0-0.5,0-0.7,0c-0.2,0-0.4-0.1-0.5-0.1c-0.1,0-0.2-0.1-0.2-0.2c0-0.1-0.1-0.1-0.1-0.2V82.2c0-0.1,0-0.1,0.1-0.2
	c0.1-0.1,0.1-0.1,0.3-0.1c0.1,0,0.3-0.1,0.5-0.1c0.2,0,0.4,0,0.7,0c0.3,0,0.5,0,0.7,0c0.2,0,0.3,0.1,0.5,0.1c0.1,0,0.2,0.1,0.2,0.1
	c0.1,0.1,0.1,0.1,0.1,0.2V96.2z"/>
<path class="st0" d="M271.1,89c0,1.2-0.2,2.3-0.5,3.3c-0.3,1-0.8,1.8-1.4,2.5c-0.6,0.7-1.4,1.2-2.3,1.6c-0.9,0.4-1.9,0.5-3.1,0.5
	c-1.2,0-2.2-0.2-3-0.5c-0.9-0.3-1.6-0.8-2.2-1.4c-0.6-0.6-1-1.4-1.3-2.4c-0.3-1-0.4-2.1-0.4-3.4c0-1.2,0.2-2.3,0.5-3.3
	c0.3-1,0.8-1.8,1.4-2.5c0.6-0.7,1.4-1.2,2.3-1.6c0.9-0.4,1.9-0.5,3.1-0.5c1.1,0,2.1,0.1,3,0.4c0.9,0.3,1.6,0.8,2.2,1.4
	c0.6,0.6,1,1.4,1.3,2.4C270.9,86.6,271.1,87.7,271.1,89z M267.9,89.2c0-0.8-0.1-1.5-0.2-2.1c-0.1-0.6-0.3-1.2-0.6-1.6
	c-0.3-0.5-0.7-0.8-1.2-1.1c-0.5-0.2-1.1-0.4-1.8-0.4c-0.7,0-1.4,0.1-1.9,0.4c-0.5,0.3-0.9,0.7-1.2,1.1c-0.3,0.5-0.5,1-0.7,1.6
	c-0.1,0.6-0.2,1.3-0.2,2c0,0.8,0.1,1.5,0.2,2.2c0.1,0.7,0.3,1.2,0.6,1.7c0.3,0.5,0.7,0.8,1.2,1.1c0.5,0.2,1.1,0.4,1.9,0.4
	c0.7,0,1.4-0.1,1.9-0.4c0.5-0.3,0.9-0.7,1.2-1.1c0.3-0.5,0.5-1,0.7-1.7C267.8,90.6,267.9,89.9,267.9,89.2z"/>
<path class="st0" d="M288.2,95.6c0,0.2,0,0.3-0.1,0.5c-0.1,0.1-0.1,0.3-0.2,0.3c-0.1,0.1-0.2,0.2-0.4,0.2c-0.1,0-0.3,0.1-0.4,0.1
	h-1.3c-0.3,0-0.5,0-0.7-0.1c-0.2-0.1-0.4-0.2-0.5-0.3c-0.2-0.1-0.3-0.3-0.5-0.6c-0.2-0.2-0.3-0.6-0.5-0.9l-3.7-7
	c-0.2-0.4-0.4-0.9-0.7-1.3c-0.2-0.5-0.4-0.9-0.6-1.4h0c0,0.6,0.1,1.1,0.1,1.7c0,0.5,0,1.1,0,1.7v7.8c0,0.1,0,0.1-0.1,0.2
	c0,0.1-0.1,0.1-0.2,0.2c-0.1,0-0.2,0.1-0.4,0.1c-0.2,0-0.4,0-0.7,0c-0.3,0-0.5,0-0.7,0c-0.2,0-0.3-0.1-0.4-0.1
	c-0.1,0-0.2-0.1-0.2-0.2c0-0.1-0.1-0.1-0.1-0.2V82.8c0-0.4,0.1-0.6,0.3-0.8c0.2-0.2,0.5-0.3,0.8-0.3h1.6c0.3,0,0.5,0,0.7,0.1
	c0.2,0,0.4,0.1,0.5,0.2c0.2,0.1,0.3,0.3,0.4,0.5c0.1,0.2,0.3,0.5,0.4,0.8l2.9,5.5c0.2,0.3,0.3,0.7,0.5,1c0.2,0.3,0.3,0.6,0.5,1
	c0.2,0.3,0.3,0.6,0.5,0.9c0.1,0.3,0.3,0.6,0.4,0.9h0c0-0.5,0-1.1-0.1-1.7c0-0.6,0-1.1,0-1.7v-7c0-0.1,0-0.1,0.1-0.2
	c0-0.1,0.1-0.1,0.2-0.2c0.1,0,0.2-0.1,0.4-0.1c0.2,0,0.4,0,0.7,0c0.3,0,0.5,0,0.7,0c0.2,0,0.3,0.1,0.4,0.1c0.1,0,0.2,0.1,0.2,0.2
	c0,0.1,0.1,0.1,0.1,0.2V95.6z"/>
<path class="st0" d="M302.7,92.2c0,0.8-0.1,1.5-0.4,2.1c-0.3,0.6-0.7,1.1-1.2,1.5c-0.5,0.4-1.1,0.7-1.8,0.9
	c-0.7,0.2-1.4,0.3-2.1,0.3c-0.5,0-1,0-1.4-0.1c-0.4-0.1-0.8-0.2-1.2-0.3c-0.3-0.1-0.6-0.2-0.8-0.4c-0.2-0.1-0.4-0.2-0.5-0.3
	c-0.1-0.1-0.2-0.2-0.2-0.4s-0.1-0.5-0.1-0.8c0-0.2,0-0.4,0-0.6c0-0.2,0-0.3,0.1-0.4c0-0.1,0.1-0.2,0.1-0.2c0.1,0,0.1-0.1,0.2-0.1
	c0.1,0,0.3,0.1,0.5,0.2c0.2,0.1,0.4,0.3,0.8,0.4c0.3,0.2,0.7,0.3,1.1,0.4c0.4,0.1,0.9,0.2,1.5,0.2c0.4,0,0.7,0,1-0.1
	c0.3-0.1,0.5-0.2,0.7-0.4c0.2-0.2,0.4-0.4,0.5-0.6c0.1-0.2,0.2-0.5,0.2-0.8c0-0.3-0.1-0.6-0.3-0.9c-0.2-0.2-0.4-0.5-0.7-0.6
	c-0.3-0.2-0.6-0.4-1-0.5c-0.4-0.2-0.8-0.3-1.2-0.5c-0.4-0.2-0.8-0.4-1.2-0.6c-0.4-0.2-0.7-0.5-1-0.8s-0.5-0.7-0.7-1.2
	c-0.2-0.4-0.3-1-0.3-1.6c0-0.7,0.1-1.3,0.4-1.9c0.3-0.5,0.6-1,1.1-1.3c0.4-0.4,1-0.6,1.6-0.8c0.6-0.2,1.3-0.3,1.9-0.3
	c0.4,0,0.7,0,1.1,0.1c0.4,0.1,0.7,0.1,1,0.2c0.3,0.1,0.6,0.2,0.8,0.3c0.2,0.1,0.4,0.2,0.5,0.3c0.1,0.1,0.1,0.1,0.2,0.2
	c0,0.1,0.1,0.1,0.1,0.2c0,0.1,0,0.2,0,0.3c0,0.1,0,0.3,0,0.5c0,0.2,0,0.4,0,0.6c0,0.2,0,0.3-0.1,0.4c0,0.1-0.1,0.2-0.1,0.2
	c-0.1,0-0.1,0.1-0.2,0.1s-0.2-0.1-0.4-0.2c-0.2-0.1-0.4-0.2-0.7-0.4c-0.3-0.1-0.6-0.2-0.9-0.3c-0.4-0.1-0.7-0.2-1.2-0.2
	c-0.3,0-0.6,0-0.9,0.1c-0.2,0.1-0.5,0.2-0.6,0.3c-0.2,0.1-0.3,0.3-0.4,0.5c-0.1,0.2-0.1,0.4-0.1,0.6c0,0.3,0.1,0.6,0.3,0.9
	c0.2,0.2,0.4,0.5,0.7,0.6c0.3,0.2,0.6,0.4,1,0.5c0.4,0.2,0.8,0.3,1.2,0.5c0.4,0.2,0.8,0.4,1.2,0.6c0.4,0.2,0.7,0.5,1,0.8
	c0.3,0.3,0.5,0.7,0.7,1.2C302.6,91.1,302.7,91.6,302.7,92.2z"/>
<g>
	<path class="st0" d="M19.1,14.1c-5.7,0.5-11.2,0.9-16.7,1.4c-0.9,0.1-1.7-0.7-1.7-1.7c-0.1-2.6-0.3-5.3-0.4-7.9
		C0.2,4.8,0.9,3.8,1.8,3.6c5.5-1.2,11.2-2.2,17-3.2c1-0.2,1.8,0.7,1.8,2c0.1,3.1,0.1,6.2,0.2,9.4C20.8,12.9,20.1,14,19.1,14.1z"/>
	<path class="st0" d="M19.6,31.6c-5.5-0.2-10.9-0.5-16.3-0.8c-0.9,0-1.7-1-1.7-2c-0.1-2.6-0.3-5.3-0.4-7.9c-0.1-1.1,0.6-2,1.5-2
		c5.4-0.4,11-0.6,16.6-1c0.9,0,1.7,0.9,1.7,2.2c0.1,3.1,0.1,6.2,0.2,9.4C21.2,30.6,20.5,31.6,19.6,31.6z"/>
	<path class="st0" d="M20,49.1C14.7,48.2,9.4,47.2,4.1,46c-0.9-0.2-1.6-1.2-1.7-2.3c-0.1-2.6-0.3-5.3-0.4-7.9
		c-0.1-1.1,0.6-1.8,1.5-1.8c5.4,0.5,10.8,1,16.2,1.3c0.9,0.1,1.7,1.1,1.7,2.4c0.1,3.1,0.1,6.2,0.2,9.4C21.6,48.3,20.9,49.2,20,49.1z
		"/>
	<path class="st0" d="M20.5,66.6c-5.1-1.6-10.3-3.3-15.6-5.4c-0.9-0.3-1.6-1.5-1.7-2.5C3.1,56,3,53.4,2.8,50.7
		c-0.1-1.1,0.6-1.7,1.5-1.5c5.3,1.4,10.6,2.5,15.8,3.6c0.9,0.2,1.6,1.3,1.6,2.6c0.1,3.1,0.1,6.2,0.2,9.4C22,66,21.4,66.8,20.5,66.6z
		"/>
	<path class="st0" d="M21,84c-4.9-2.2-10-4.7-15.2-7.6c-0.9-0.5-1.6-1.8-1.7-2.8C4,71,3.8,68.3,3.7,65.7c-0.1-1.1,0.6-1.6,1.5-1.2
		c5.2,2.3,10.4,4.1,15.5,5.8c0.8,0.3,1.5,1.5,1.6,2.8c0.1,3.1,0.1,6.2,0.2,9.4C22.4,83.7,21.8,84.4,21,84z"/>
</g>
<path class="st0" d="M59.3,27.2c-11-2.9-22.5-6.6-34.2-12.1c-1-0.5-1.7-1.8-1.8-3.1c-0.1-3.1-0.1-6.2-0.2-9.3c0-1.2,0.8-1.7,1.7-1
	C37,9.6,48.8,14.9,59.9,19c0.9,0.3,1.6,1.2,1.5,1.9c-0.1,1.8-0.3,3.6-0.4,5.4C61,27,60.2,27.4,59.3,27.2z"/>
<path class="st0" d="M58.5,37.6c-10.8-1.3-22-3-33.2-5.5c-0.9-0.2-1.7-1.4-1.7-2.6c-0.1-3.1-0.1-6.2-0.2-9.3c0-1.2,0.7-1.9,1.7-1.5
	c11.6,4.9,23,8.1,34,10.7c0.9,0.2,1.6,1,1.5,1.7c-0.1,1.8-0.3,3.6-0.4,5.4C60.1,37.2,59.4,37.7,58.5,37.6z"/>
<path class="st0" d="M57.7,48c-10.6,0.3-21.4,0.7-32.1,1.2c-0.9,0-1.6-0.9-1.6-2.2c-0.1-3.1-0.1-6.2-0.2-9.3c0-1.2,0.7-2.1,1.6-2
	c11.1,1.9,22.2,3.1,32.9,4c0.9,0.1,1.5,0.7,1.5,1.4c-0.1,1.8-0.3,3.6-0.4,5.4C59.3,47.4,58.5,48,57.7,48z"/>
<path class="st0" d="M56.9,58.5c-10.4,1.9-20.8,4.3-31.1,7.8c-0.8,0.3-1.5-0.5-1.6-1.7c-0.1-3.1-0.1-6.2-0.2-9.3
	c0-1.2,0.7-2.3,1.5-2.4c10.6-1.2,21.4-2,31.9-2.6c0.9-0.1,1.5,0.5,1.5,1.2c-0.1,1.8-0.3,3.6-0.4,5.4C58.4,57.6,57.7,58.3,56.9,58.5z
	"/>
<path class="st0" d="M56,68.9c-10.2,3.5-20.3,7.9-30,14.5c-0.8,0.5-1.5,0-1.5-1.2c-0.1-3.1-0.1-6.2-0.2-9.3c0-1.2,0.6-2.5,1.5-2.9
	c10.2-4.2,20.5-7.1,30.9-9.3c0.8-0.2,1.5,0.3,1.4,1c-0.2,1.8-0.3,3.6-0.4,5.4C57.6,67.8,56.9,68.6,56,68.9z"/>
<g>
	<path class="st0" d="M283.4,122.7c0,0,0,0.1,0,0.3c0,0.1,0,0.3-0.1,0.4c0,0.2-0.1,0.3-0.1,0.5s-0.1,0.3-0.2,0.5
		c-0.1,0.2-0.1,0.3-0.2,0.4c-0.1,0.1-0.2,0.2-0.2,0.2c-0.1,0-0.2,0-0.3-0.1c-0.1,0-0.2-0.1-0.4-0.1c-0.1-0.1-0.3-0.1-0.4-0.1
		c-0.2,0-0.4-0.1-0.6-0.1c-0.4,0-0.8,0.2-1.3,0.5c-0.5,0.3-1,0.8-1.5,1.4c-0.5,0.6-0.9,1.3-1.3,2.1c-0.4,0.8-0.7,1.7-0.9,2.6
		l-1.3,6.7c0,0.1-0.1,0.2-0.1,0.2c-0.1,0.1-0.1,0.1-0.3,0.2c-0.1,0-0.3,0.1-0.4,0.1c-0.2,0-0.4,0-0.7,0c-0.3,0-0.5,0-0.7,0
		c-0.2,0-0.3-0.1-0.4-0.1c-0.1,0-0.2-0.1-0.2-0.2c0-0.1,0-0.1,0-0.2l3-15.1c0-0.1,0-0.2,0.1-0.2c0.1-0.1,0.1-0.1,0.3-0.2
		c0.1,0,0.2-0.1,0.4-0.1c0.2,0,0.4,0,0.6,0c0.2,0,0.4,0,0.6,0c0.2,0,0.3,0,0.4,0.1c0.1,0,0.1,0.1,0.2,0.2c0,0.1,0,0.1,0,0.2
		l-0.6,2.7c0.3-0.5,0.6-0.9,0.9-1.3c0.4-0.4,0.7-0.8,1.1-1.1c0.4-0.3,0.8-0.6,1.3-0.8c0.5-0.2,0.9-0.3,1.3-0.3c0.2,0,0.4,0,0.6,0
		c0.2,0,0.4,0.1,0.5,0.1c0.2,0,0.3,0.1,0.4,0.1c0.1,0,0.2,0.1,0.3,0.2C283.4,122.5,283.4,122.6,283.4,122.7z"/>
	<path class="st0" d="M285.1,137.8c0,0.1-0.1,0.2-0.1,0.2c-0.1,0.1-0.1,0.1-0.3,0.2c-0.1,0-0.3,0.1-0.4,0.1c-0.2,0-0.4,0-0.7,0
		c-0.3,0-0.5,0-0.7,0c-0.2,0-0.3-0.1-0.4-0.1c-0.1,0-0.2-0.1-0.2-0.2c0-0.1,0-0.1,0-0.2l3-15.1c0-0.1,0-0.2,0.1-0.2
		c0.1-0.1,0.1-0.1,0.3-0.2c0.1,0,0.3-0.1,0.4-0.1c0.2,0,0.4,0,0.7,0c0.3,0,0.5,0,0.7,0c0.2,0,0.3,0.1,0.4,0.1c0.1,0,0.2,0.1,0.2,0.2
		c0,0.1,0,0.1,0,0.2L285.1,137.8z M289.4,117.6c-0.1,0.3-0.1,0.6-0.2,0.8s-0.2,0.4-0.4,0.5c-0.2,0.1-0.4,0.2-0.6,0.3
		c-0.2,0.1-0.5,0.1-0.9,0.1c-0.3,0-0.6,0-0.8-0.1c-0.2-0.1-0.4-0.1-0.5-0.3c-0.1-0.1-0.2-0.3-0.2-0.5c0-0.2,0-0.5,0.1-0.8
		c0.1-0.3,0.2-0.6,0.3-0.8c0.1-0.2,0.2-0.4,0.4-0.5c0.2-0.1,0.3-0.2,0.6-0.3c0.2,0,0.5-0.1,0.9-0.1c0.3,0,0.6,0,0.8,0.1
		c0.2,0.1,0.4,0.1,0.5,0.3c0.1,0.1,0.2,0.3,0.2,0.5C289.5,117,289.5,117.3,289.4,117.6z"/>
	<path class="st0" d="M301.1,139c-0.2,0.9-0.5,1.7-0.9,2.3c-0.4,0.7-0.9,1.2-1.5,1.7c-0.6,0.4-1.3,0.8-2.2,1
		c-0.8,0.2-1.8,0.3-2.9,0.3c-0.9,0-1.8-0.1-2.5-0.3c-0.8-0.2-1.4-0.4-1.8-0.7c-0.2-0.1-0.3-0.2-0.3-0.3c-0.1-0.1-0.1-0.2-0.1-0.4
		c0-0.1,0-0.2,0-0.3c0-0.1,0-0.2,0.1-0.4c0-0.1,0.1-0.3,0.1-0.4c0-0.1,0.1-0.3,0.2-0.4c0.1-0.1,0.1-0.2,0.2-0.3
		c0.1-0.1,0.2-0.1,0.3-0.1c0.1,0,0.3,0.1,0.5,0.2c0.2,0.1,0.5,0.2,0.8,0.4c0.3,0.1,0.8,0.3,1.2,0.4c0.5,0.1,1.1,0.2,1.8,0.2
		c0.6,0,1.1-0.1,1.6-0.2c0.5-0.1,0.9-0.3,1.3-0.6c0.4-0.2,0.7-0.6,0.9-0.9c0.2-0.4,0.4-0.8,0.5-1.4c0.2-1,0.4-1.9,0.6-2.5
		c0.2-0.7,0.3-1.2,0.5-1.6c-0.2,0.4-0.5,0.8-0.9,1.2c-0.4,0.4-0.8,0.8-1.4,1.2c-0.5,0.4-1.1,0.6-1.7,0.9c-0.6,0.2-1.2,0.3-1.9,0.3
		c-0.8,0-1.5-0.1-2.1-0.4c-0.6-0.3-1-0.7-1.4-1.1c-0.4-0.5-0.6-1.1-0.8-1.7c-0.2-0.7-0.2-1.4-0.2-2.2c0-0.6,0.1-1.4,0.2-2.2
		c0.1-0.8,0.3-1.6,0.6-2.4c0.3-0.8,0.6-1.6,1-2.4c0.4-0.8,0.9-1.5,1.5-2.1c0.6-0.6,1.3-1.1,2.1-1.5c0.8-0.4,1.7-0.6,2.6-0.6
		c1,0,1.8,0.2,2.6,0.6c0.7,0.4,1.3,1,1.9,1.7l0.3-1.5c0-0.2,0.2-0.3,0.4-0.4c0.2-0.1,0.5-0.1,1-0.1c0.2,0,0.4,0,0.6,0
		c0.2,0,0.3,0,0.4,0.1c0.1,0,0.1,0.1,0.2,0.2c0,0.1,0,0.1,0,0.2L301.1,139z M300.9,126.6c-0.5-0.8-1.1-1.3-1.7-1.7
		c-0.6-0.4-1.3-0.6-2.1-0.6c-0.6,0-1.1,0.1-1.6,0.4c-0.5,0.3-0.9,0.7-1.3,1.1c-0.4,0.5-0.7,1-1,1.6c-0.3,0.6-0.5,1.2-0.7,1.9
		c-0.2,0.6-0.3,1.3-0.4,1.9c-0.1,0.6-0.1,1.2-0.1,1.7c0,0.5,0,0.9,0.1,1.3c0.1,0.4,0.2,0.7,0.4,1c0.2,0.3,0.4,0.5,0.7,0.7
		c0.3,0.2,0.7,0.3,1.1,0.3c0.6,0,1.2-0.2,1.8-0.5c0.6-0.3,1.2-0.8,1.7-1.4c0.5-0.6,1-1.3,1.4-2.1c0.4-0.8,0.7-1.7,0.9-2.7
		L300.9,126.6z"/>
	<path class="st0" d="M317.8,137.8c0,0.1-0.1,0.2-0.1,0.2c-0.1,0.1-0.1,0.1-0.3,0.2c-0.1,0-0.3,0.1-0.4,0.1c-0.2,0-0.4,0-0.7,0
		c-0.3,0-0.5,0-0.7,0c-0.2,0-0.3-0.1-0.4-0.1c-0.1,0-0.2-0.1-0.2-0.2c0-0.1,0-0.1,0-0.2l1.9-9.3c0.1-0.3,0.1-0.6,0.1-1
		c0-0.4,0.1-0.7,0.1-0.9c0-0.3,0-0.6-0.1-0.9c-0.1-0.3-0.2-0.5-0.3-0.7c-0.2-0.2-0.3-0.3-0.6-0.5c-0.2-0.1-0.5-0.2-0.9-0.2
		c-0.6,0-1.2,0.2-1.8,0.5c-0.6,0.3-1.2,0.8-1.7,1.4c-0.5,0.6-1,1.3-1.4,2.2c-0.4,0.8-0.7,1.7-0.9,2.7l-1.3,6.7
		c0,0.1-0.1,0.2-0.1,0.2c-0.1,0.1-0.1,0.1-0.3,0.2c-0.1,0-0.3,0.1-0.4,0.1c-0.2,0-0.4,0-0.7,0c-0.3,0-0.5,0-0.7,0
		c-0.2,0-0.3-0.1-0.4-0.1c-0.1,0-0.2-0.1-0.2-0.2c0-0.1,0-0.1,0-0.2l4.5-22.4c0-0.1,0.1-0.2,0.1-0.2c0-0.1,0.1-0.1,0.3-0.2
		c0.1,0,0.3-0.1,0.5-0.1c0.2,0,0.4,0,0.7,0c0.3,0,0.5,0,0.7,0c0.2,0,0.3,0.1,0.4,0.1c0.1,0,0.2,0.1,0.2,0.2c0,0.1,0,0.1,0,0.2
		l-1.3,6.8c-0.1,0.3-0.1,0.6-0.2,0.9c-0.1,0.3-0.2,0.6-0.2,0.9c-0.1,0.3-0.2,0.6-0.3,0.8c-0.1,0.3-0.2,0.5-0.2,0.7
		c0.2-0.4,0.5-0.8,0.8-1.2c0.4-0.4,0.8-0.8,1.3-1.2c0.5-0.4,1.1-0.6,1.7-0.9c0.6-0.2,1.3-0.4,1.9-0.4c0.7,0,1.3,0.1,1.8,0.3
		c0.5,0.2,0.9,0.5,1.2,0.9c0.3,0.4,0.5,0.8,0.7,1.3c0.1,0.5,0.2,1,0.2,1.6c0,0.4,0,0.8-0.1,1.2c0,0.4-0.1,0.8-0.2,1.2L317.8,137.8z"
		/>
	<path class="st0" d="M332,122.9c0,0.1,0,0.2,0,0.3c0,0.1,0,0.2-0.1,0.4c0,0.1-0.1,0.2-0.1,0.4c-0.1,0.1-0.1,0.2-0.2,0.3
		c-0.1,0.1-0.1,0.2-0.2,0.2c-0.1,0.1-0.2,0.1-0.3,0.1h-3.9l-1.7,8.4c0,0.2-0.1,0.5-0.1,0.8c0,0.3-0.1,0.5-0.1,0.7
		c0,0.6,0.1,1,0.4,1.2c0.2,0.3,0.6,0.4,1.2,0.4c0.3,0,0.6,0,0.8-0.1c0.2-0.1,0.4-0.1,0.6-0.2c0.2-0.1,0.3-0.1,0.4-0.2
		c0.1-0.1,0.2-0.1,0.3-0.1c0.1,0,0.2,0,0.2,0.1c0,0.1,0.1,0.2,0.1,0.3c0,0.1,0,0.3,0,0.5c0,0.2-0.1,0.3-0.1,0.5
		c0,0.2-0.1,0.3-0.2,0.5c-0.1,0.1-0.1,0.2-0.2,0.3c-0.1,0.1-0.2,0.2-0.4,0.2s-0.4,0.1-0.6,0.2c-0.2,0.1-0.5,0.1-0.7,0.1
		c-0.3,0-0.5,0-0.8,0c-0.6,0-1.2-0.1-1.6-0.2c-0.5-0.1-0.8-0.3-1.2-0.6c-0.3-0.3-0.5-0.6-0.7-1.1c-0.2-0.4-0.2-0.9-0.2-1.5
		c0-0.1,0-0.3,0-0.4c0-0.2,0-0.3,0.1-0.5c0-0.2,0.1-0.4,0.1-0.5c0-0.2,0.1-0.3,0.1-0.5l1.7-8.5h-2.1c-0.1,0-0.2,0-0.3-0.1
		c-0.1-0.1-0.1-0.2-0.1-0.4c0-0.2,0-0.3,0-0.5c0-0.2,0.1-0.4,0.2-0.6c0.1-0.2,0.2-0.3,0.3-0.5c0.1-0.1,0.2-0.2,0.4-0.2h2.1l0.7-3.6
		c0-0.1,0-0.2,0.1-0.2c0.1-0.1,0.1-0.1,0.3-0.2c0.1,0,0.3-0.1,0.4-0.1c0.2,0,0.4,0,0.7,0c0.3,0,0.5,0,0.7,0c0.2,0,0.3,0.1,0.4,0.1
		c0.1,0.1,0.2,0.1,0.2,0.2c0,0.1,0,0.1,0,0.2l-0.7,3.6h3.9c0.2,0,0.3,0.1,0.3,0.2C332,122.6,332,122.7,332,122.9z"/>
	<path class="st0" d="M351.3,137.8c0,0.1-0.1,0.2-0.1,0.2c-0.1,0.1-0.1,0.1-0.3,0.2c-0.1,0-0.3,0.1-0.4,0.1c-0.2,0-0.4,0-0.7,0
		c-0.3,0-0.5,0-0.7,0c-0.2,0-0.3-0.1-0.4-0.1c-0.1,0-0.2-0.1-0.2-0.2c0-0.1,0-0.1,0-0.2l1.9-9.3c0.1-0.3,0.1-0.6,0.1-1
		c0-0.4,0.1-0.7,0.1-0.9c0-0.3,0-0.6-0.1-0.9c-0.1-0.3-0.2-0.5-0.3-0.7c-0.2-0.2-0.3-0.3-0.6-0.5c-0.2-0.1-0.5-0.2-0.9-0.2
		c-0.6,0-1.2,0.2-1.8,0.5c-0.6,0.3-1.2,0.8-1.7,1.4c-0.5,0.6-1,1.3-1.4,2.2c-0.4,0.8-0.7,1.7-0.9,2.7l-1.3,6.7
		c0,0.1-0.1,0.2-0.1,0.2c-0.1,0.1-0.1,0.1-0.3,0.2c-0.1,0-0.3,0.1-0.4,0.1c-0.2,0-0.4,0-0.7,0c-0.3,0-0.5,0-0.7,0
		c-0.2,0-0.3-0.1-0.4-0.1c-0.1,0-0.2-0.1-0.2-0.2c0-0.1,0-0.1,0-0.2l4.5-22.4c0-0.1,0.1-0.2,0.1-0.2c0-0.1,0.1-0.1,0.3-0.2
		c0.1,0,0.3-0.1,0.5-0.1c0.2,0,0.4,0,0.7,0c0.3,0,0.5,0,0.7,0c0.2,0,0.3,0.1,0.4,0.1c0.1,0,0.2,0.1,0.2,0.2c0,0.1,0,0.1,0,0.2
		l-1.3,6.8c-0.1,0.3-0.1,0.6-0.2,0.9c-0.1,0.3-0.2,0.6-0.2,0.9c-0.1,0.3-0.2,0.6-0.3,0.8c-0.1,0.3-0.2,0.5-0.2,0.7
		c0.2-0.4,0.5-0.8,0.8-1.2c0.4-0.4,0.8-0.8,1.3-1.2c0.5-0.4,1.1-0.6,1.7-0.9c0.6-0.2,1.3-0.4,1.9-0.4c0.7,0,1.3,0.1,1.8,0.3
		c0.5,0.2,0.9,0.5,1.2,0.9c0.3,0.4,0.5,0.8,0.7,1.3c0.1,0.5,0.2,1,0.2,1.6c0,0.4,0,0.8-0.1,1.2c0,0.4-0.1,0.8-0.2,1.2L351.3,137.8z"
		/>
	<path class="st0" d="M369.5,125.8c0,0.8-0.2,1.5-0.5,2.1c-0.4,0.6-0.9,1.1-1.7,1.6c-0.8,0.4-1.7,0.8-2.9,1
		c-1.2,0.2-2.6,0.4-4.3,0.4h-1.8c-0.1,0.4-0.1,0.7-0.2,1.1c0,0.3,0,0.7,0,1c0,1.1,0.3,2,0.8,2.6c0.6,0.6,1.4,0.9,2.7,0.9
		c0.7,0,1.4-0.1,1.9-0.2c0.6-0.1,1.1-0.2,1.5-0.3c0.4-0.1,0.8-0.2,1-0.3c0.3-0.1,0.5-0.2,0.6-0.2c0.1,0,0.2,0,0.2,0.1
		c0.1,0.1,0.1,0.2,0.1,0.3c0,0.1,0,0.2,0,0.4c0,0.2-0.1,0.3-0.1,0.5c0,0.2-0.1,0.3-0.2,0.5c-0.1,0.1-0.2,0.3-0.2,0.4
		c-0.1,0.1-0.4,0.3-0.7,0.4c-0.3,0.1-0.7,0.2-1.2,0.4c-0.5,0.1-1,0.2-1.5,0.3c-0.6,0.1-1.1,0.1-1.7,0.1c-1,0-1.9-0.1-2.6-0.3
		c-0.7-0.2-1.4-0.6-1.9-1c-0.5-0.5-0.9-1-1.1-1.7c-0.2-0.7-0.4-1.5-0.4-2.4c0-0.7,0.1-1.5,0.2-2.3c0.1-0.8,0.4-1.7,0.7-2.5
		c0.3-0.8,0.7-1.6,1.2-2.3c0.5-0.7,1.1-1.4,1.7-2c0.7-0.6,1.4-1,2.3-1.4c0.9-0.3,1.9-0.5,2.9-0.5c0.9,0,1.7,0.1,2.4,0.4
		c0.7,0.2,1.2,0.5,1.6,0.9c0.4,0.4,0.7,0.8,0.9,1.2C369.4,124.9,369.5,125.3,369.5,125.8z M366.6,126c0-0.6-0.2-1-0.7-1.4
		c-0.4-0.4-1.1-0.5-1.9-0.5c-0.7,0-1.4,0.1-1.9,0.4c-0.6,0.3-1.1,0.6-1.5,1c-0.4,0.4-0.8,0.9-1.1,1.5c-0.3,0.6-0.6,1.2-0.7,1.8h1.7
		c1.2,0,2.2-0.1,2.9-0.2c0.8-0.1,1.4-0.3,1.9-0.6c0.5-0.3,0.8-0.5,1-0.9C366.5,126.7,366.6,126.4,366.6,126z"/>
	<path class="st0" d="M381.5,122.7c0,0,0,0.1,0,0.3c0,0.1,0,0.3-0.1,0.4c0,0.2-0.1,0.3-0.1,0.5c0,0.2-0.1,0.3-0.2,0.5
		c-0.1,0.2-0.1,0.3-0.2,0.4c-0.1,0.1-0.2,0.2-0.2,0.2c-0.1,0-0.2,0-0.3-0.1c-0.1,0-0.2-0.1-0.4-0.1c-0.1-0.1-0.3-0.1-0.4-0.1
		c-0.2,0-0.4-0.1-0.6-0.1c-0.4,0-0.8,0.2-1.3,0.5c-0.5,0.3-1,0.8-1.5,1.4c-0.5,0.6-0.9,1.3-1.3,2.1c-0.4,0.8-0.7,1.7-0.9,2.6
		l-1.3,6.7c0,0.1-0.1,0.2-0.1,0.2c-0.1,0.1-0.1,0.1-0.3,0.2c-0.1,0-0.3,0.1-0.4,0.1c-0.2,0-0.4,0-0.7,0c-0.3,0-0.5,0-0.7,0
		c-0.2,0-0.3-0.1-0.4-0.1c-0.1,0-0.2-0.1-0.2-0.2c0-0.1,0-0.1,0-0.2l3-15.1c0-0.1,0-0.2,0.1-0.2c0.1-0.1,0.1-0.1,0.3-0.2
		c0.1,0,0.2-0.1,0.4-0.1c0.2,0,0.4,0,0.6,0c0.2,0,0.4,0,0.6,0c0.2,0,0.3,0,0.4,0.1c0.1,0,0.1,0.1,0.2,0.2c0,0.1,0,0.1,0,0.2
		l-0.6,2.7c0.3-0.5,0.6-0.9,0.9-1.3c0.4-0.4,0.7-0.8,1.1-1.1c0.4-0.3,0.8-0.6,1.3-0.8c0.5-0.2,0.9-0.3,1.3-0.3c0.2,0,0.4,0,0.6,0
		c0.2,0,0.4,0.1,0.5,0.1c0.2,0,0.3,0.1,0.4,0.1c0.1,0,0.2,0.1,0.3,0.2C381.5,122.5,381.5,122.6,381.5,122.7z"/>
	<path class="st0" d="M394.7,125.8c0,0.8-0.2,1.5-0.5,2.1c-0.4,0.6-0.9,1.1-1.7,1.6c-0.8,0.4-1.7,0.8-2.9,1
		c-1.2,0.2-2.6,0.4-4.3,0.4h-1.8c-0.1,0.4-0.1,0.7-0.2,1.1c0,0.3,0,0.7,0,1c0,1.1,0.3,2,0.8,2.6c0.6,0.6,1.4,0.9,2.7,0.9
		c0.7,0,1.4-0.1,1.9-0.2c0.6-0.1,1.1-0.2,1.5-0.3c0.4-0.1,0.8-0.2,1-0.3c0.3-0.1,0.5-0.2,0.6-0.2c0.1,0,0.2,0,0.2,0.1
		c0.1,0.1,0.1,0.2,0.1,0.3c0,0.1,0,0.2,0,0.4c0,0.2-0.1,0.3-0.1,0.5c0,0.2-0.1,0.3-0.2,0.5c-0.1,0.1-0.2,0.3-0.2,0.4
		c-0.1,0.1-0.4,0.3-0.7,0.4c-0.3,0.1-0.7,0.2-1.2,0.4c-0.5,0.1-1,0.2-1.5,0.3c-0.6,0.1-1.1,0.1-1.7,0.1c-1,0-1.9-0.1-2.6-0.3
		c-0.7-0.2-1.4-0.6-1.9-1c-0.5-0.5-0.9-1-1.1-1.7c-0.2-0.7-0.4-1.5-0.4-2.4c0-0.7,0.1-1.5,0.2-2.3c0.1-0.8,0.4-1.7,0.7-2.5
		c0.3-0.8,0.7-1.6,1.2-2.3c0.5-0.7,1.1-1.4,1.7-2c0.7-0.6,1.4-1,2.3-1.4c0.9-0.3,1.9-0.5,2.9-0.5c0.9,0,1.7,0.1,2.4,0.4
		c0.7,0.2,1.2,0.5,1.6,0.9c0.4,0.4,0.7,0.8,0.9,1.2C394.6,124.9,394.7,125.3,394.7,125.8z M391.9,126c0-0.6-0.2-1-0.7-1.4
		c-0.4-0.4-1.1-0.5-1.9-0.5c-0.7,0-1.4,0.1-1.9,0.4c-0.6,0.3-1.1,0.6-1.5,1c-0.4,0.4-0.8,0.9-1.1,1.5c-0.3,0.6-0.6,1.2-0.7,1.8h1.7
		c1.2,0,2.2-0.1,2.9-0.2c0.8-0.1,1.4-0.3,1.9-0.6c0.5-0.3,0.8-0.5,1-0.9C391.8,126.7,391.9,126.4,391.9,126z"/>
</g>
<g>
	<path class="st0" d="M310.2,83.9c0,1.4-1.1,2.5-2.6,2.5c-1.4,0-2.6-1.1-2.6-2.5c0-1.4,1.2-2.5,2.6-2.5
		C309.1,81.4,310.2,82.5,310.2,83.9z M305.7,83.9c0,1.1,0.8,2,2,2c1.1,0,1.9-0.9,1.9-2c0-1.1-0.8-2-1.9-2
		C306.5,81.9,305.7,82.8,305.7,83.9z M307.2,85.2h-0.6v-2.5c0.2,0,0.6-0.1,1-0.1c0.5,0,0.7,0.1,0.9,0.2c0.1,0.1,0.2,0.3,0.2,0.6
		c0,0.3-0.2,0.5-0.5,0.6v0c0.2,0.1,0.4,0.3,0.5,0.6c0.1,0.4,0.1,0.5,0.2,0.6h-0.6c-0.1-0.1-0.1-0.3-0.2-0.6c0-0.3-0.2-0.4-0.5-0.4
		h-0.3V85.2z M307.2,83.8h0.3c0.3,0,0.6-0.1,0.6-0.4c0-0.2-0.2-0.4-0.5-0.4c-0.2,0-0.3,0-0.3,0V83.8z"/>
</g>
</svg>
